<?xml version="1.0" standalone="no"?>
<!DOCTYPE svg PUBLIC "-//W3C//DTD SVG 1.1//EN" "http://www.w3.org/Graphics/SVG/1.1/DTD/svg11.dtd" >
<svg xmlns="http://www.w3.org/2000/svg">
<metadata></metadata>
<defs>
<font id="ozhandicraft_btroman" horiz-adv-x="1024" >
<font-face units-per-em="2048" ascent="1556" descent="-492" />
<missing-glyph horiz-adv-x="352" />
<glyph horiz-adv-x="2048" />
<glyph horiz-adv-x="2048" />
<glyph unicode="&#xd;" horiz-adv-x="352" />
<glyph unicode=" "  horiz-adv-x="352" />
<glyph unicode="&#x09;" horiz-adv-x="352" />
<glyph unicode="&#xa0;" horiz-adv-x="352" />
<glyph unicode="!" horiz-adv-x="426" d="M125 1042q0 76 1.5 177t4.5 226q12 3 23.5 4t21.5 1q36 0 59.5 -10t45.5 -36q1 -50 1.5 -108t0.5 -172q0 -215 -6.5 -414.5t-18.5 -381.5q-15 -13 -28.5 -20t-24.5 -7q-14 0 -25 5.5t-26 21.5q-15 214 -22 391t-7 323zM129 76q0 9 4 42q3 21 4 31q15 7 28.5 10t24.5 3 q17 0 42 -1t32 -1l16 -8q6 -40 8.5 -62t2.5 -35t-6 -39q-2 -7 -2 -10q-23 -6 -40 -9t-28 -3q-16 0 -35 6t-42 18q-6 26 -7.5 38t-1.5 20z" />
<glyph unicode="&#x22;" horiz-adv-x="590" d="M94 881v553h117v-553h-117zM377 881v553h119v-553h-119z" />
<glyph unicode="#" horiz-adv-x="1575" d="M104 467l43 123h320l96 272h-342l43 123h344l168 471h146l-166 -471h260l168 471h143l-164 -471h307l-43 -123h-311l-94 -272h330l-43 -123h-332l-166 -469h-145l168 469h-265l-168 -469h-143l166 469h-320zM614 590h263l96 272h-264z" />
<glyph unicode="$" horiz-adv-x="592" d="M19 124q7 38 29 59.5t75 41.5q21 -43 54 -65.5t75 -22.5q56 0 86.5 37.5t30.5 106.5q0 68 -34.5 158t-115.5 229q-12 20 -35 60q-155 263 -155 396q0 92 48 149t138 73v55q0 21 2.5 54t8.5 71q6 1 17 3q25 5 31 5q9 0 21.5 -2t36.5 -8q6 -36 9 -72.5t3 -75.5v-30 q37 -4 68 -11t59 -19q-2 -68 -14 -96t-41 -40q-37 14 -67 21t-54 7q-55 0 -82 -23.5t-27 -72.5q0 -67 106 -244q27 -46 42 -71l2 -4q196 -334 196 -517q0 -111 -53 -193t-135 -99q0 -8 -1 -25q-6 -139 -17 -186q-22 -9 -33 -12t-19 -3t-21.5 2.5t-27.5 6.5q-7 30 -10.5 63.5 t-3.5 71.5q0 13 1 29l3 48q-62 8 -107.5 41.5t-88.5 103.5z" />
<glyph unicode="%" horiz-adv-x="1104" d="M47 987q0 163 71.5 271t168.5 108q88 0 158.5 -99.5t70.5 -232.5q0 -172 -78.5 -288.5t-191.5 -116.5q-39 0 -67 13.5t-52 43.5q-41 51 -60.5 125t-19.5 176zM135 -4q209 452 406 812.5t387 635.5q46 0 67.5 -15t26.5 -48q-274 -449 -457.5 -803.5t-308.5 -673.5l-48 -4 q-32 7 -49.5 29.5t-23.5 66.5zM176 995q0 -59 12.5 -104t41.5 -93q11 -19 21 -25.5t23 -6.5h5q49 48 77.5 117t28.5 139q0 65 -22 115t-68 92q-3 1 -5 1.5t-5 0.5q-39 0 -74 -71.5t-35 -164.5zM586 336q0 171 71 282t174 111q97 0 161.5 -100t64.5 -258q0 -176 -70.5 -285 t-179.5 -109q-99 0 -160 98.5t-61 260.5zM717 344q0 -96 16.5 -148t54.5 -83l82 16q27 49 40.5 103.5t13.5 111.5q0 99 -17 159t-51 79h-8q-59 0 -95 -64.5t-36 -173.5z" />
<glyph unicode="&#x26;" horiz-adv-x="930" d="M29 496q0 176 73.5 314.5t221.5 240.5q-72 36 -106 91t-34 134q0 131 80.5 209t214.5 78q26 0 52.5 -5.5t56.5 -17.5q9 -16 13.5 -30t4.5 -29q0 -18 -5 -32.5t-17 -29.5q-23 9 -41.5 13t-36.5 4q-75 0 -117.5 -44t-42.5 -122q0 -74 44.5 -120t115.5 -46h16q6 -15 9 -25.5 t4 -15.5q-1 -10 -2.5 -20.5t-4.5 -20.5q-148 -25 -238.5 -165t-90.5 -345q0 -191 67.5 -295t190.5 -104q100 0 167.5 86t67.5 217q0 113 -41 179.5t-131 96.5q-32 -24 -47.5 -62t-15.5 -89q0 -20 3 -39t9 -39q-24 -13 -44.5 -19t-39.5 -6q-7 0 -28 3q-8 1 -11 1 q-14 32 -20.5 58.5t-6.5 52.5q0 141 194 298q39 32 60 50q108 92 153.5 173.5t45.5 176.5q0 5 -1 17t-1 18q32 13 56.5 19t45.5 6q15 0 29.5 -4.5t32.5 -14.5q0 -5 1 -15.5t1 -14.5q0 -117 -66.5 -223t-216.5 -226q104 -73 151.5 -167.5t47.5 -227.5q0 -191 -114.5 -318 t-286.5 -127q-191 0 -306.5 143.5t-115.5 379.5z" />
<glyph unicode="'" horiz-adv-x="305" d="M94 881v553h117v-553h-117z" />
<glyph unicode="(" horiz-adv-x="455" d="M66 571q0 385 72 658t202 389q48 -6 73.5 -25.5t34.5 -55.5q-99 -130 -153.5 -360.5t-54.5 -527.5q0 -346 41 -579.5t128 -384.5q-13 -38 -43.5 -57t-86.5 -25q-109 145 -161 383.5t-52 584.5z" />
<glyph unicode=")" horiz-adv-x="455" d="M6 -315q101 130 156 360t55 524q0 347 -41.5 581.5t-128.5 385.5q13 38 43 56.5t88 25.5q107 -145 159 -383.5t52 -587.5q0 -383 -72 -656t-202 -388q-48 5 -74 24.5t-35 57.5z" />
<glyph unicode="*" horiz-adv-x="616" d="M52 1172q36 28 71 55t76 57q-19 11 -56 37t-91 67q6 19 14 34t18 28q49 -18 138 -56q21 -9 32 -13q2 41 5.5 85.5t8.5 91.5q15 4 24 5.5t13 1.5q8 0 30 -3q5 -1 7 -1q9 -52 14.5 -97t8.5 -83q55 27 90.5 42t70.5 27q12 -9 21.5 -22.5t17.5 -32.5q-43 -35 -79.5 -62 t-69.5 -49q35 -21 72 -46.5t77 -55.5q-4 -17 -12.5 -32.5t-21.5 -30.5q-43 14 -84 31.5t-80 37.5q-1 -7 -2 -21q-8 -98 -17 -159q-13 -3 -22.5 -3.5t-18.5 -0.5q-5 0 -15 1t-16 1q-6 42 -11 87t-9 94q-56 -27 -93.5 -42.5t-72.5 -26.5q-9 8 -18.5 21t-19.5 33z" />
<glyph unicode="+" horiz-adv-x="1706" d="M254 553v117h541v551h118v-551h539v-117h-539v-553h-118v553h-541z" />
<glyph unicode="," horiz-adv-x="358" d="M72 131q33 35 65 51.5t68 16.5h12q26 -44 38.5 -88t12.5 -95q0 -74 -22.5 -150.5t-65.5 -148.5l-67 11q4 21 13 63q26 122 26 182v11q-25 33 -45 70t-35 77z" />
<glyph unicode="-" horiz-adv-x="408" d="M41 623q0 8 1.5 19.5t4.5 22.5q58 13 113 19t112 6q11 0 52 -2q27 -1 44 -2q-1 -41 -9.5 -76t-24.5 -69q-98 -2 -161 -6.5t-110 -11.5q-10 28 -16 55t-6 45z" />
<glyph unicode="." horiz-adv-x="358" d="M70 117q23 25 57 43.5t84 34.5q27 -27 40.5 -64t16.5 -92q-24 -24 -50.5 -40.5t-57.5 -27.5q-36 26 -57.5 60.5t-32.5 85.5z" />
<glyph unicode="/" horiz-adv-x="584" d="M-51 -172q120 399 243 834.5t250 912.5q20 6 34 9t22 3q20 0 40 -7.5t46 -27.5q-75 -245 -153 -515.5t-167 -598.5l-178 -645q-23 -6 -34 -8t-19 -2q-25 0 -45 10.5t-39 34.5z" />
<glyph unicode="0" horiz-adv-x="631" d="M47 557q0 295 73 449.5t212 154.5q123 0 186.5 -146t63.5 -431q0 -299 -69.5 -454t-203.5 -155q-120 0 -191 156t-71 426zM197 526q0 -193 31.5 -282.5t99.5 -89.5q55 0 79.5 104t24.5 346q0 179 -34 291.5t-85 112.5q-53 0 -84.5 -129t-31.5 -353z" />
<glyph unicode="1" horiz-adv-x="469" d="M-31 1077q0 15 15 26t47 19q65 17 146 29t118 12q14 0 28 -4t29 -12q10 -73 14.5 -147t4.5 -156q0 -211 -10 -422t-29 -416q-30 -16 -53.5 -24.5t-36.5 -8.5q-8 0 -17 3.5t-20 9.5q-4 201 -6 408t-2 423v225l-191 7q-18 0 -27.5 7t-9.5 21z" />
<glyph unicode="2" horiz-adv-x="606" d="M-16 1047v10q51 49 117 76.5t135 27.5q95 0 160 -94.5t65 -237.5q0 -131 -96 -359.5t-123 -323.5q19 -4 36 -5.5t33 -1.5q53 0 114.5 13.5t162.5 47.5q9 -20 12.5 -39t3.5 -48q0 -9 -1.5 -24t-8.5 -62q-60 -20 -136 -29.5t-169 -9.5q-68 0 -122.5 8.5t-106.5 25.5 q1 59 19.5 127t74.5 199q10 25 30 73q109 255 109 386q0 79 -20.5 123.5t-66.5 62.5q-39 -4 -74.5 -18t-70.5 -39q-43 30 -60 54.5t-17 56.5z" />
<glyph unicode="3" horiz-adv-x="573" d="M20 1087q1 14 4 44q0 4 1 6q28 12 56 18t58 6q152 0 249 -110t97 -285q0 -128 -56 -244.5t-181 -245.5q124 -41 191 -140t67 -240q0 -162 -116.5 -275t-274.5 -113q-17 1 -32.5 2t-37.5 5q-12 17 -17 31t-5 28q0 18 9.5 34.5t30.5 35.5h17q123 0 187.5 69.5t64.5 204.5 q0 102 -59.5 176t-137.5 74q-13 0 -22 -3t-17 -9q-29 19 -43 41.5t-14 50.5q0 2 1 6.5t1 7.5q149 131 212.5 247.5t63.5 254.5q0 120 -57.5 189t-157.5 69q-13 0 -54 -3q-11 -1 -15 -1q-6 17 -9.5 34t-3.5 35z" />
<glyph unicode="4" horiz-adv-x="707" d="M-2 39q70 284 142.5 550t148.5 517q60 29 116 46.5t114 24.5l18 -18q8 -197 12 -439t4 -552q42 0 83.5 -5t84.5 -16v-12q0 -27 -5.5 -52t-17.5 -50q-32 -9 -67 -13t-78 -4q-2 -101 -6.5 -201t-11.5 -197q-19 -10 -35 -14.5t-33 -4.5q-15 0 -29 2.5t-32 9.5 q-7 107 -10 206.5t-3 190.5q-17 -1 -37 -1.5t-59 -0.5q-70 0 -141 3t-144 9zM160 154q40 3 94 6.5t143 7.5v219q0 68 -4 308q-2 149 -4 239l-31 -4q-45 -150 -94 -341.5t-104 -434.5z" />
<glyph unicode="5" horiz-adv-x="537" d="M-25 -375q0 16 9 39t26 53q25 -5 46 -7.5t38 -2.5q119 0 179.5 75t60.5 222q0 133 -61 204t-175 71l-26 50q-1 20 -1.5 43t-0.5 70q0 164 22 337t66 358q77 19 136.5 28t111.5 9l84 -1q5 -16 7.5 -28.5t2.5 -22.5q0 -16 -5.5 -39.5t-15.5 -54.5q-57 -5 -105 -11.5 t-89 -15.5q-30 -134 -45 -277.5t-15 -299.5q134 -26 206.5 -134t72.5 -280q0 -206 -105.5 -325t-287.5 -119q-32 0 -62 4.5t-63 13.5q-6 16 -8.5 25t-2.5 16z" />
<glyph unicode="6" horiz-adv-x="680" d="M51 369q0 216 53.5 520t155.5 661q15 7 28.5 11t22.5 4q25 0 42 -16t26 -46l-102 -538q19 9 36.5 13.5t34.5 4.5q111 0 194 -135t83 -334q0 -238 -97 -399.5t-233 -161.5q-119 0 -181.5 106t-62.5 310zM215 362q0 -131 18.5 -192t57.5 -61q63 0 118.5 125.5t55.5 297.5 q0 132 -37.5 211.5t-95.5 79.5q-16 0 -33.5 -6.5t-50.5 -25.5q-17 -105 -25 -211t-8 -218z" />
<glyph unicode="7" horiz-adv-x="563" d="M12 1051q0 13 3 29.5t8 33.5q88 9 170 19t155 22l80 12q17 3 29.5 4.5t17.5 2.5q11 0 24.5 -4t32.5 -13q-35 -179 -94 -556l-8 -48l-156 -987q-25 -19 -46.5 -27t-47.5 -8q-36 0 -58 11t-38 38q64 230 130.5 563.5t154.5 870.5l-338 -56q-10 35 -14.5 56.5t-4.5 36.5z " />
<glyph unicode="8" horiz-adv-x="631" d="M27 338q0 119 50.5 241.5t153.5 254.5q-48 83 -73 170t-25 174q0 156 67 254t173 98q92 0 149.5 -77t57.5 -200q0 -17 -2 -40t-5 -48q-14 -80 -53.5 -158t-122.5 -184q107 -140 157 -263.5t50 -244.5q0 -138 -81.5 -241t-188.5 -103q-118 0 -212.5 108.5t-94.5 258.5z M195 391q0 -112 44 -189t103 -77q42 0 71 56.5t29 140.5q0 80 -30 170.5t-109 234.5q-55 -69 -81.5 -151.5t-26.5 -184.5zM266 1116q0 -31 13.5 -73t44.5 -107q54 78 79 152.5t25 156.5q0 71 -17 111.5t-46 40.5q-39 0 -69 -83t-30 -198z" />
<glyph unicode="9" horiz-adv-x="649" d="M49 557q0 149 39.5 277t122.5 249q31 45 63.5 68t65.5 23q111 0 176.5 -151t65.5 -413q0 -204 -27 -473.5t-78 -572.5q-27 -12 -43.5 -16.5t-30.5 -4.5q-18 0 -30.5 7.5t-26.5 25.5q0 93 20 315.5t27 329.5l-11 -3q-101 -30 -134 -30q-87 0 -143 102.5t-56 266.5z M213 596q0 -129 25 -186.5t79 -57.5q16 0 35.5 2.5t57.5 10.5q3 76 4.5 138.5t1.5 108.5q0 162 -26.5 278t-59.5 116q-32 0 -74.5 -133.5t-42.5 -276.5z" />
<glyph unicode=":" horiz-adv-x="387" d="M84 117q31 29 63.5 49t69.5 33q32 -32 50 -67t24 -79q-24 -30 -52.5 -50t-64.5 -32q-36 26 -57.5 60.5t-32.5 85.5zM86 797q24 23 56.5 40.5t84.5 32.5q22 -25 38 -61t30 -86q-23 -23 -57 -40.5t-84 -31.5q-27 35 -43.5 71t-24.5 75z" />
<glyph unicode=";" horiz-adv-x="387" d="M86 131q32 29 67 45t78 23q27 -58 39.5 -105t12.5 -94q0 -56 -18.5 -124.5t-59.5 -164.5l-78 17q4 21 13 63q26 122 26 182v11q-25 33 -45 70t-35 77zM86 797q24 23 56.5 40.5t84.5 32.5q22 -25 38 -61t30 -86q-23 -25 -56 -40t-83 -24q-30 35 -47 69t-23 69z" />
<glyph unicode="&#x3c;" horiz-adv-x="1706" d="M264 559v103l1178 483v-127l-1000 -408l1000 -405v-129z" />
<glyph unicode="=" horiz-adv-x="1706" d="M254 360v117h1198v-117h-1198zM254 743v117h1198v-117h-1198z" />
<glyph unicode="&#x3e;" horiz-adv-x="1706" d="M264 76v129l1000 405l-1000 408v127l1178 -483v-103z" />
<glyph unicode="?" horiz-adv-x="530" d="M70 1356q0 33 8.5 57t27.5 43h15q160 0 252 -120t92 -330q0 -161 -53 -271t-152 -157v-41q0 -58 -3.5 -112t-11.5 -110q-11 -5 -25 -7.5t-32 -2.5q-10 0 -24 2.5t-31 8.5q-14 70 -21.5 129t-7.5 108q0 26 6 101q2 22 3 32q91 9 139.5 88t48.5 219q0 154 -57.5 235.5 t-171.5 90.5q-1 7 -1.5 15t-0.5 22zM111 84q0 21 7 61q0 3 1 4q18 7 32 10t27 3q18 0 39 -2.5t45 -8.5q6 -29 8 -49.5t2 -38.5q0 -17 -7 -52q0 -2 -1 -5q-23 -6 -40 -9t-27 -3q-17 0 -35.5 6t-42.5 18q-4 20 -6 37t-2 29z" />
<glyph unicode="@" horiz-adv-x="2048" d="M113 522q0 163 50.5 309t149.5 269q146 176 349.5 267t453.5 91q165 0 311 -43.5t248 -124.5q129 -99 195.5 -230t66.5 -282q0 -169 -62.5 -308.5t-182.5 -236.5q-69 -55 -148.5 -83.5t-163.5 -28.5q-99 0 -148.5 39t-49.5 116q0 3 1 11t1 12q-51 -87 -127 -132.5 t-170 -45.5q-153 0 -233.5 85t-80.5 247q0 230 137 389t332 159q91 0 153.5 -39.5t96.5 -117.5l58 121h110l-141 -568q-6 -24 -9 -44t-3 -36q0 -44 27.5 -67t82.5 -23q45 0 100 24t103 64q89 76 139.5 196.5t50.5 254.5q0 266 -195.5 428t-518.5 162q-168 0 -312.5 -52 t-259.5 -153q-140 -122 -211 -282.5t-71 -354.5q0 -173 60.5 -304t186.5 -230q101 -81 240 -124.5t295 -43.5q172 0 334.5 48.5t296.5 139.5l45 -66q-147 -109 -313 -165t-347 -56q-191 0 -348 46.5t-276 138.5q-153 117 -228 272t-75 352zM713 446q0 -110 51 -169.5 t145 -59.5q102 0 183.5 70.5t109.5 185.5l60 242q-17 90 -72 140t-135 50q-146 0 -244 -131.5t-98 -327.5z" />
<glyph unicode="A" horiz-adv-x="649" d="M-10 14q66 433 140 813.5t159 716.5q28 8 48 11.5t36 3.5t33.5 -4t37.5 -13q32 -323 78 -704t105 -807q-23 -21 -47 -31t-52 -10q-22 0 -35 1t-24 3q-16 113 -34 253t-19 146q-16 1 -41 2q-37 2 -47 2q-32 0 -104 -3q-9 -1 -13 -1q-15 -108 -26.5 -205t-18.5 -173 q-31 -17 -53.5 -24t-42.5 -7q-21 0 -40 7t-40 23zM231 528h12q58 -4 83 -4q9 0 40 2q23 2 35 2q-19 172 -33.5 342t-25.5 340q-30 -172 -56 -334t-55 -348z" />
<glyph unicode="B" horiz-adv-x="684" d="M76 -8q15 281 22.5 537.5t7.5 488.5q0 150 -2 268t-7 226q41 21 86 31.5t96 10.5q150 0 229.5 -92.5t79.5 -269.5q0 -114 -31.5 -186.5t-99.5 -118.5q77 -63 113 -159.5t36 -244.5q0 -246 -91.5 -372.5t-268.5 -126.5q-20 0 -88 3q-51 3 -82 5zM246 152q7 -1 20 -4t17 -3 q68 0 109.5 98t41.5 263t-34.5 238t-110.5 73q-3 0 -10.5 -1t-10.5 -1q0 -146 -5.5 -311t-16.5 -352zM266 1419q0 -83 2 -180v-31v-265q6 -2 11.5 -2.5t15.5 -0.5q65 0 94 51.5t29 171.5q0 124 -30.5 191t-86.5 67q-9 0 -17.5 -0.5t-17.5 -1.5z" />
<glyph unicode="C" horiz-adv-x="573" d="M39 657q0 372 112 594.5t341 304.5q29 -14 43 -37.5t14 -58.5v-16q-19 -19 -103 -89.5t-122 -129.5q-52 -80 -80.5 -228.5t-28.5 -341.5q0 -223 61 -362t152 -139q14 0 46 15q19 9 29 13q22 -14 34 -36t12 -48q0 -8 -2.5 -18t-7.5 -22q-30 -46 -59 -63.5t-74 -17.5 q-160 0 -263.5 187.5t-103.5 492.5z" />
<glyph unicode="D" horiz-adv-x="662" d="M92 727q0 142 4 322.5t15 498.5h106q216 0 300.5 -171.5t84.5 -616.5q0 -438 -79.5 -606t-276.5 -168q-46 0 -76.5 1t-60.5 3q-9 218 -13 399.5t-4 337.5zM262 649q0 -145 2.5 -269t8.5 -241h1q84 0 118 140t34 524q0 292 -36 446t-103 154q-2 0 -6.5 -1t-6.5 -1 q-6 -162 -9 -351.5t-3 -400.5z" />
<glyph unicode="E" horiz-adv-x="573" d="M57 14q20 162 29.5 335.5t9.5 367.5q0 102 -5 312t-15 493q84 12 190.5 18t259.5 8q4 -12 6.5 -22.5t2.5 -18.5q0 -13 -5.5 -30t-15.5 -37l-26 -57q-37 2 -54.5 2.5t-34.5 0.5q-39 0 -77 -4.5t-76 -13.5q2 -91 5.5 -167.5t8.5 -145.5h55q28 0 58.5 0.5t90.5 3.5 q22 -11 32.5 -26.5t13.5 -41.5q-3 -29 -14.5 -50.5t-35.5 -39.5q-39 3 -77 4.5t-76 1.5h-47q2 -78 3 -147.5t1 -136.5q0 -124 -3.5 -237.5t-10.5 -219.5l4 -1q117 -18 158 -18q34 0 64.5 4.5t60.5 12.5q13 -24 21 -49t11 -54q-15 -26 -35.5 -47.5t-43.5 -35.5 q-24 -2 -44 -2.5t-43 -0.5q-98 0 -185.5 10t-160.5 29z" />
<glyph unicode="F" horiz-adv-x="541" d="M47 1534q70 14 127 20.5t107 6.5q38 0 102 -7.5t157 -21.5q4 -13 5.5 -23t1.5 -18q0 -2 -2 -11.5t-4 -18.5q-8 -16 -18.5 -27t-27.5 -21q-23 -3 -43 -4.5t-36 -1.5q-22 0 -53.5 2t-40.5 2q-35 0 -56 -1t-43 -3q7 -154 18 -348q2 -38 3 -53q52 1 110.5 2.5t124.5 3.5 q8 -17 12.5 -31.5t4.5 -24.5q0 -8 -3 -20t-12 -39q-32 -18 -113.5 -28t-117.5 -17q2 -51 5 -142q11 -282 11 -378q0 -60 -3 -131t-11 -170q-9 -26 -24.5 -37t-46.5 -14q-6 -2 -10 -2.5t-13 -0.5q-22 0 -41.5 9t-40.5 28q12 74 17 175t5 262q0 188 -22.5 564t-28.5 519z" />
<glyph unicode="G" horiz-adv-x="674" d="M47 838q0 375 111 559t338 184h9q4 -15 5.5 -27t1.5 -18q0 -24 -8 -45t-25 -43q-38 -11 -75.5 -29.5t-75.5 -46.5q-53 -71 -77 -196t-24 -340q0 -202 14 -349t42 -239q15 -44 42 -79.5t66 -66.5l39 17q6 136 9 274t3 277v198q-25 2 -54.5 5t-65.5 8q-6 20 -8.5 33 t-2.5 22q0 8 5 36q2 12 4 19q39 8 85.5 11.5t116.5 3.5h60l22 -23q1 -41 1.5 -89t0.5 -138q0 -260 -13 -447t-40 -309q-34 -25 -67 -36t-72 -11q-195 0 -281 205.5t-86 679.5z" />
<glyph unicode="H" horiz-adv-x="721" d="M74 1500q7 29 32 40.5t84 11.5q9 0 18.5 -2.5t28.5 -11.5q8 -143 15 -304.5t8 -176.5h47q42 0 79.5 2t70.5 6v129q0 102 2 185t6 155q27 13 51 19t49 6q16 -1 32 -3t38 -8q-1 -34 -2 -96q-6 -236 -6 -324q0 -124 1 -414t1 -456l-1 -244q-28 -13 -48.5 -18.5t-40.5 -5.5 q-26 0 -81 11l-5 1q3 137 4.5 276.5t1.5 280.5q0 124 -0.5 204t-1.5 158l-103 -1q-27 0 -50 -2t-44 -7v-397q0 -145 -5 -275t-15 -247q-26 -8 -51.5 -11t-55.5 -4h-22l-29 19q7 150 10.5 305t3.5 315q0 186 -5.5 405t-16.5 479z" />
<glyph unicode="I" horiz-adv-x="342" d="M86 1028q0 101 1 212t3 267q3 15 10.5 24t20.5 13q11 1 26 2.5t19 1.5q19 0 36.5 -5.5t39.5 -18.5q8 -219 12 -411t4 -365q0 -175 -3 -366t-9 -396q-18 -9 -39 -13t-47 -4h-17l-51 25l-2 422q-1 176 -2.5 380.5t-1.5 231.5z" />
<glyph unicode="J" horiz-adv-x="500" d="M-47 162q0 13 4 25.5t12 25.5q16 6 29.5 9t28.5 3q8 0 23 -3t34 -9q2 -32 7 -57t15 -47l9 -3q19 -6 24 -6q61 0 86 177t25 643q0 121 -4.5 260t-14.5 331q25 25 44 34t42 9q16 0 34.5 -4t41.5 -12q14 -170 20.5 -318.5t6.5 -281.5q0 -599 -61 -781t-226 -182 q-79 0 -129.5 53t-50.5 134z" />
<glyph unicode="K" horiz-adv-x="698" d="M59 2q9 134 13 289.5t4 462.5q0 288 -3 463t-10 301l38 20q24 5 36.5 6.5t22.5 1.5q16 0 33.5 -7t35.5 -21q5 -184 8 -387.5t3 -417.5q0 -213 -3.5 -377.5t-11.5 -319.5q-14 -20 -26.5 -27t-34.5 -7q-21 0 -46.5 5t-58.5 15zM246 950q111 218 176 361.5t88 220.5l57 -2 q32 -6 51.5 -20t32.5 -39q-46 -132 -107.5 -260t-140.5 -257q68 -264 143.5 -485t153.5 -385v-6q0 -34 -18 -56.5t-76 -52.5l-61 8q-64 136 -138 376.5t-161 596.5z" />
<glyph unicode="L" horiz-adv-x="588" d="M90 799q0 190 8 372.5t25 360.5q16 16 34.5 23.5t45.5 7.5q15 0 30 -1.5t32 -5.5l22 -18q-15 -228 -22 -441t-7 -411q0 -164 6.5 -303t20.5 -266l30 3q167 15 178 39l7 1q14 0 29.5 -6t37.5 -21q15 -16 22 -34.5t7 -41.5q0 -4 -1 -11t-1 -11q-48 -29 -116.5 -46 t-174.5 -26q-75 16 -118 37.5t-72 56.5q-12 197 -17.5 381t-5.5 361z" />
<glyph unicode="M" horiz-adv-x="862" d="M57 -2q8 476 28.5 872.5t49.5 657.5q22 10 42 15t38 5q14 0 28.5 -4t35.5 -14q34 -98 68 -221.5t83 -337.5q41 123 92.5 257t122.5 298q16 14 29.5 20t27.5 6q15 0 33.5 -5t40.5 -15q-4 -176 -6 -342.5t-2 -323.5q0 -189 5 -396t15 -445q-22 -13 -46 -19t-54 -6 q-23 0 -41 4.5t-35 13.5q-2 111 -3 220.5t-1 267.5q0 159 4 331.5t13 364.5q-85 -237 -112.5 -325t-37.5 -138q-11 -11 -25 -18t-33 -10l-38 10q-27 119 -58.5 243.5t-66.5 254.5q-13 -350 -18 -573.5t-5 -409.5q0 -97 0.5 -144t1.5 -88q-19 -13 -37 -18.5t-42 -5.5 q-26 0 -50 4.5t-47 13.5z" />
<glyph unicode="N" horiz-adv-x="705" d="M78 1124v402q11 8 22.5 12t22.5 4q19 0 40.5 -2.5t47.5 -7.5q65 -174 129 -326t133 -297q0 13 -1 38q-3 131 -3 183q0 92 1 194t3 216q5 2 9 5.5t14 13.5l60 1q18 -3 36 -9t35 -15q2 -168 3 -274.5t1 -200.5q0 -353 -5.5 -630.5t-15.5 -457.5q-20 -5 -36 -11.5t-29 -14.5 q-5 0 -12.5 -1t-10.5 -1q-16 0 -32 3.5t-35 12.5q4 225 6 374.5t2 285.5q-81 159 -138.5 277t-93.5 200q4 -232 6.5 -423t2.5 -308q0 -86 -1.5 -181t-5.5 -201q-19 -8 -37.5 -12t-35.5 -4q-19 0 -37 6t-39 19q-3 308 -4.5 590.5t-1.5 539.5z" />
<glyph unicode="O" horiz-adv-x="694" d="M47 805q0 295 27.5 429t93.5 220q45 59 85.5 83t96.5 24q148 0 222.5 -185t74.5 -553q0 -284 -35 -456.5t-110 -262.5q-50 -60 -105.5 -93.5t-105.5 -33.5q-119 0 -181.5 211.5t-62.5 616.5zM227 799q0 -284 17 -432.5t55 -221.5h6q86 0 125 156t39 500q0 331 -32 465.5 t-107 134.5q-16 0 -31 -7t-29 -20q-23 -81 -33 -208.5t-10 -366.5z" />
<glyph unicode="P" horiz-adv-x="633" d="M80 1518l29 24q253 0 369 -118t116 -377q0 -235 -83 -354.5t-247 -119.5h-8q0 -181 2.5 -318t7.5 -253q-30 -7 -55 -10.5t-45 -3.5q-19 0 -38 3.5t-44 13.5q2 174 3 281t1 201q0 149 -2 421.5t-6 609.5zM252 1135q0 -89 1 -184t3 -228q5 -1 10.5 -1.5t16.5 -0.5 q73 0 106 74t33 239q0 176 -38.5 252t-129.5 86q0 -69 -1 -148t-1 -89z" />
<glyph unicode="Q" horiz-adv-x="664" d="M45 793q0 308 84.5 538t181.5 230q163 0 234 -176.5t71 -589.5q0 -332 -55.5 -489t-191.5 -251q29 -63 66.5 -116t84.5 -99q44 31 72.5 45t52.5 17q28 -4 43.5 -17.5t22.5 -40.5q-46 -76 -100.5 -125t-90.5 -49q-41 0 -125 87.5t-159 219.5q-30 -14 -63.5 -24t-70.5 -14 q-23 25 -35 48t-12 44q0 7 3 25q1 6 1 10q29 8 55.5 19t51.5 26q-60 148 -90.5 319t-30.5 363zM213 848q0 -187 24 -354.5t70 -305.5q75 55 106 176.5t31 389.5q0 210 -25 370.5t-71 245.5q-14 7 -25 11.5t-21 6.5q-44 -122 -66.5 -259t-22.5 -281z" />
<glyph unicode="R" horiz-adv-x="664" d="M74 1513q65 23 128.5 34.5t127.5 11.5q128 0 186.5 -95.5t58.5 -304.5q0 -135 -28 -214.5t-90 -121.5q122 -38 165 -770l1 -8l-33 -49q-23 -7 -39 -10.5t-27 -3.5q-16 0 -37.5 3.5t-50.5 12.5v129q0 154 -12 303.5t-27 216.5q-8 46 -30 66t-62 20q-13 0 -28 -1.5 t-33 -4.5v-168q0 -100 3.5 -245.5t10.5 -310.5q-38 -9 -59.5 -12t-36.5 -3q-19 0 -37 3.5t-41 12.5q1 102 2 281q2 352 2 458q0 225 -3.5 415t-10.5 355zM244 860h24q81 0 109.5 44.5t28.5 195.5q0 204 -20.5 258.5t-82.5 54.5q-10 0 -21.5 -2.5t-33.5 -9.5 q-3 -213 -3.5 -327t-0.5 -214z" />
<glyph unicode="S" horiz-adv-x="469" d="M33 1176q0 82 24 152.5t74 133.5q43 54 86.5 87.5t67.5 33.5q32 0 53 -23.5t30 -71.5q-87 -84 -130 -161t-43 -149q0 -77 104 -365l18 -51q59 -159 85 -268.5t26 -190.5q0 -141 -71 -241.5t-216 -163.5q-55 24 -79.5 49t-24.5 57v4q137 87 179 145.5t42 141.5 q0 118 -128 483l-9 25q-55 156 -71.5 231t-16.5 142z" />
<glyph unicode="T" horiz-adv-x="604" d="M23 1456q0 3 1 10.5t1 10.5q17 41 67 58t158 17q77 0 164.5 -12.5t187.5 -38.5v-24q0 -33 -7.5 -56.5t-23.5 -42.5q-37 2 -76.5 3t-103.5 1q-9 -398 -13.5 -742.5t-4.5 -633.5q-29 -11 -50 -15.5t-38 -4.5q-19 0 -39.5 6t-46.5 20q9 271 13.5 543t4.5 549v37 q-2 127 -2 241q-27 -1 -85 -2t-89 -2q-9 18 -13.5 37.5t-4.5 40.5z" />
<glyph unicode="U" horiz-adv-x="696" d="M72 1550q20 4 42 6.5t46 2.5q24 -1 44 -5.5t44 -15.5v-467v-446v-109q0 -244 18 -309.5t66 -65.5q3 0 8.5 1t18.5 4q46 52 68 194t22 389q0 175 -21 710l-2 60q7 30 33 42.5t84 12.5q11 0 36 -11q7 -3 11 -5q13 -273 17.5 -426.5t4.5 -280.5q0 -445 -40 -596t-138 -239 q-26 -11 -49 -17t-43 -6q-156 0 -212 100t-56 539v332q0 128 -0.5 281.5t-1.5 324.5z" />
<glyph unicode="V" horiz-adv-x="623" d="M8 1532q28 14 52.5 21.5t48.5 7.5q21 0 42.5 -6.5t41.5 -18.5q15 -197 54 -596t56 -598q42 336 86 637t90 563q20 16 36 23.5t32 7.5q23 0 48 -7t52 -22q-108 -561 -167 -922t-89 -636q-26 -7 -48 -10t-40 -3q-30 0 -54 10t-50 33q-23 258 -67 609t-124 907z" />
<glyph unicode="W" horiz-adv-x="868" d="M74 1524l65 24q9 3 18.5 4.5t18.5 1.5q25 0 40.5 -8.5t29.5 -30.5l-17 -1103q125 405 140 549q21 12 37 17t32 5q15 0 31 -4.5t39 -16.5q13 -98 37.5 -224.5t66.5 -313.5q12 305 31 578t47 522q3 1 11 5q50 25 75 25q26 0 44 -12.5t28 -38.5q-47 -371 -73.5 -693.5 t-39.5 -651.5l-6 -142q-21 -9 -45.5 -13.5t-58.5 -4.5h-29l-47 16l-6 143q-4 84 -32 236t-79 357q-85 -294 -116.5 -421.5t-36.5 -188.5l-13 -140q-10 -5 -21.5 -7.5t-35.5 -2.5q-4 0 -11 1t-10 1l-76 9q-6 11 -9 25t-3 44z" />
<glyph unicode="X" horiz-adv-x="653" d="M-43 49l285 858q-50 130 -104.5 264.5t-117.5 282.5q5 39 44.5 69.5t76.5 30.5q10 0 17.5 -0.5t13.5 -1.5q33 -110 114 -323q34 -89 50 -133l147 437q21 12 35 16.5t29 4.5q26 0 51 -12t53 -39q-74 -181 -130.5 -329.5t-100.5 -274.5q93 -274 147 -491.5t70 -376.5 q-21 -25 -45.5 -37t-50.5 -12q-18 0 -48 12q-7 3 -9 4q-19 143 -57.5 310t-100.5 376l-224 -715q-9 0 -20 1l-10 1q-45 0 -68 16t-47 62z" />
<glyph unicode="Y" horiz-adv-x="502" d="M-16 1493q17 29 41 44t55 15q5 0 21 -2q8 -1 14 -2q42 -108 76 -223.5t61 -239.5q38 181 69.5 288t67.5 183q3 1 9 1q31 4 46 4q13 0 37.5 -7.5t55.5 -19.5q-30 -57 -84.5 -238.5t-114.5 -425.5l-8 -303q-5 -185 -7 -322t-4 -266l-90 -14q-21 14 -40.5 21t-40.5 10 q8 308 11 438t3 215q0 71 -2 132t-6 116q-28 115 -67.5 253t-102.5 343z" />
<glyph unicode="Z" horiz-adv-x="547" d="M39 94l108 508q42 189 79.5 374.5t72.5 373.5h-12q-58 0 -116 12.5t-120 38.5q-1 4 -3 10q-9 30 -9 43q0 19 5.5 42t16.5 48q54 -17 98.5 -25t84.5 -8q41 0 84.5 8.5t92.5 26.5q29 -6 48 -21t39 -46q-73 -288 -140 -617.5t-130 -711.5h10q36 0 76 15t118 62 q34 -27 48 -56.5t14 -74.5q0 -6 -2 -26.5t-2 -30.5q-85 -29 -151.5 -43t-117.5 -14q-25 0 -58 4t-77 12q-23 20 -37 43.5t-20 52.5z" />
<glyph unicode="[" horiz-adv-x="455" d="M98 745q0 177 2.5 376t8.5 438l26 18q24 -5 67 -14q145 -31 201 -31h17q19 -14 27 -26.5t8 -30.5q0 -30 -9 -47.5t-26 -22.5h-55q-14 0 -38.5 2t-56.5 6q-8 -167 -12 -333t-4 -330q0 -273 8 -499.5t25 -426.5q31 3 54.5 4.5t41.5 1.5q21 0 35.5 -0.5t27.5 -1.5l15 -18 v-17q0 -24 -8.5 -45.5t-26.5 -44.5q-85 -2 -150.5 -6.5t-123.5 -11.5l-31 6q-11 273 -17 537t-6 517z" />
<glyph unicode="\" horiz-adv-x="584" d="M-2 1552q23 19 43.5 27t42.5 8q8 0 21.5 -3t33.5 -9q119 -445 243 -882t253 -865q-20 -25 -39 -35t-45 -10q-9 0 -22.5 2.5t-32.5 7.5l-177 645q-108 391 -181 644t-140 470z" />
<glyph unicode="]" horiz-adv-x="455" d="M-4 -190l12 18q14 1 28.5 1.5t35.5 0.5q17 0 40.5 -1.5t54.5 -4.5q17 207 25.5 428t8.5 457q0 189 -4.5 366t-12.5 338h-6q-80 -8 -119 -8h-24q-16 4 -24.5 21.5t-8.5 48.5q0 20 7 32t26 25h16q57 0 201 31q44 9 67 14l27 -19q5 -240 7.5 -464.5t2.5 -427.5 q0 -217 -5.5 -459.5t-16.5 -515.5l-29 -6q-70 7 -139 11.5t-137 6.5q-17 20 -25 41t-8 47v19z" />
<glyph unicode="^" horiz-adv-x="2048" d="M422 901l520 557h162l520 -557h-158l-442 438l-442 -438h-160z" />
<glyph unicode="_" d="M0 -365h1024v-118h-1024v118z" />
<glyph unicode="`" d="M373 1505q24 15 44 22t38 7q9 0 28 -6q9 -3 14 -4q19 -71 47 -131.5t66 -112.5q-17 -21 -39.5 -33t-54.5 -18q-46 50 -81.5 118t-61.5 158z" />
<glyph unicode="a" horiz-adv-x="602" d="M45 1014q0 4 3 10t11 16q57 34 118 66t124 61q125 -24 173 -135.5t48 -529.5q0 -139 -7 -459q-1 -33 -1 -49q-21 -9 -37 -13t-31 -4q-16 0 -33.5 5t-33.5 14l-8 47q-42 -20 -84.5 -31.5t-73.5 -11.5q-82 0 -122 81.5t-40 252.5q0 199 63.5 286t207.5 87h32 q-1 124 -29 204t-67 80q-9 0 -23.5 -5t-29.5 -13l-74 -41h-6q-32 0 -56 26t-24 56zM209 373q0 -124 22 -162.5t80 -38.5q9 0 35 5q10 2 16 3q0 93 -1.5 186.5t-4.5 190.5q-5 1 -11 1.5t-17 0.5q-59 0 -89 -47t-30 -139z" />
<glyph unicode="b" horiz-adv-x="608" d="M37 113q16 104 23.5 247t7.5 428q0 260 -7.5 417.5t-23.5 307.5q19 26 40 38t46 12q13 0 28 -4.5t46 -18.5q12 -101 19.5 -205t9.5 -214q28 18 54 28t48 10q108 0 174.5 -149.5t66.5 -399.5q0 -290 -76 -463.5t-200 -173.5q-56 0 -95 22.5t-71 72.5q-32 0 -52.5 10 t-37.5 35zM213 186q8 -31 22.5 -48t34.5 -17q63 0 98 118t35 330q0 221 -31 330t-93 109q-13 0 -25 -5t-23 -14q1 -54 1.5 -103t0.5 -93q0 -141 -5 -292.5t-15 -314.5z" />
<glyph unicode="c" horiz-adv-x="473" d="M45 535q0 219 43 375t121 223q28 13 53.5 19.5t54.5 6.5q48 0 80 -9.5t54 -29.5v-18q0 -28 -8 -57.5t-25 -63.5q-34 18 -53 24.5t-35 6.5q-59 0 -89 -111.5t-30 -331.5q0 -164 25.5 -266.5t74.5 -136.5q7 -1 17 -1.5t28 -0.5q25 0 46 2t40 6q8 -21 11.5 -37.5t3.5 -30.5 q0 -2 -1 -8t-1 -10q-11 -47 -51.5 -79t-90.5 -32q-122 0 -195 151t-73 409z" />
<glyph unicode="d" horiz-adv-x="639" d="M51 455q0 194 28.5 354.5t80.5 261.5q16 35 59.5 57.5t91.5 22.5q20 0 43.5 -4t48.5 -12l-4 356q27 28 55.5 40.5t65.5 12.5q6 0 17 -1.5t44 -8.5q-9 -280 -14 -605.5t-4 -697.5v-215l-61 -34h-15q-25 0 -47 5t-43 16q-3 12 -5.5 27.5t-4.5 44.5q-29 -27 -65.5 -46.5 t-83.5 -32.5q-41 0 -70 12.5t-51 38.5q-34 70 -50 166t-16 242zM217 469q0 -74 3.5 -142.5t11.5 -134.5q32 -9 56.5 -13.5t41.5 -4.5q18 0 55 14l2 1q7 127 11 321.5t5 505.5q-22 5 -38 7.5t-27 2.5q-63 0 -92 -133t-29 -424z" />
<glyph unicode="e" horiz-adv-x="551" d="M45 498q0 282 86.5 472.5t206.5 190.5q80 0 130 -93t50 -245q0 -45 -6.5 -87t-19.5 -83q-26 -5 -45 -7.5t-35 -2.5q-4 0 -64.5 3.5t-117.5 4.5q-6 -66 -7.5 -99t-1.5 -60q0 -209 47.5 -283t182.5 -74h20l12 1t23 1q1 -9 1.5 -17t0.5 -16q0 -57 -42.5 -93t-107.5 -36 q-154 0 -233.5 133t-79.5 390zM240 762l136 12q2 23 3.5 47.5t1.5 26.5q0 75 -15 108t-49 33q-28 0 -46 -51.5t-31 -175.5z" />
<glyph unicode="f" horiz-adv-x="367" d="M2 983v23q8 30 21 53t32 39l39 2q0 133 36.5 229.5t113.5 167.5q26 14 47.5 22.5t44.5 14.5q6 -1 15 -1q171 -14 171 -79q0 -20 -8.5 -39.5t-28.5 -42.5q-5 0 -16 -1t-16 -1q-25 0 -49 4.5t-47 13.5q-55 -30 -79 -87.5t-24 -157.5v-41l104 2q13 -23 20 -47t7 -47 q0 -3 -1 -10.5t-1 -9.5q-23 -12 -50 -17.5t-63 -5.5l-18 -1q-1 -40 -1.5 -85.5t-0.5 -132.5q0 -94 1 -199q1 -30 1 -37q0 -328 -11 -483.5t-36 -198.5q-4 0 -12.5 -1t-14.5 -1q-34 0 -67 12t-68 37q0 35 11 175q37 489 40 920q-4 0 -9 -0.5t-15 -0.5q-19 0 -36 3t-32 9z" />
<glyph unicode="g" horiz-adv-x="596" d="M-12 -115q0 84 31 143t103 114q-12 16 -17 26t-5 18q0 49 10 83t27 47v12q0 24 6 48t16 45q-52 41 -80 124t-28 200q0 72 15.5 145t46.5 150q65 64 112.5 90t99.5 31q26 -1 51.5 -9.5t52.5 -24.5q19 13 40.5 21t46.5 11q17 -10 37 -15t47 -8q3 -11 4.5 -21.5t1.5 -18.5 t-3 -20.5t-9 -26.5q-23 -19 -46.5 -34.5t-51.5 -29.5q12 -80 18 -150t6 -122q0 -121 -68.5 -219.5t-162.5 -98.5q-11 0 -16.5 0.5t-10.5 1.5q-12 -26 -19 -48t-9 -42q41 -56 168 -163q31 -26 47 -40q59 -51 77.5 -88t18.5 -114v-19q0 -34 -5 -57.5t-16 -46.5 q-80 -89 -157 -142t-121 -53q-99 0 -178.5 86.5t-79.5 214.5zM125 -49q0 -91 46.5 -150t117.5 -59q17 0 76 10q14 3 22 5l2 9q19 86 19 105q0 76 -179 189q-19 12 -28 18q-36 0 -56 -33.5t-20 -93.5zM211 770q0 -111 27 -172t75 -61q14 0 25.5 6t28.5 22q2 27 3 53.5t1 59.5 q0 97 -16.5 177t-49.5 144q-5 1 -11.5 1.5t-14.5 0.5q-41 0 -54.5 -43.5t-13.5 -187.5z" />
<glyph unicode="h" horiz-adv-x="682" d="M72 223q0 249 10 587.5t10 428.5q0 53 -5 115.5t-15 146.5q22 26 55.5 39.5t73.5 13.5q8 0 17 -1.5t20 -4.5q14 -62 21 -127.5t7 -142.5q0 -32 -1.5 -77.5t-4.5 -102.5q67 32 115.5 48.5t77.5 16.5q81 0 117 -104.5t36 -345.5q0 -37 -5 -272.5t-5 -434.5 q-28 -9 -51.5 -13.5t-42.5 -4.5q-29 0 -48 8t-32 25q7 158 10.5 292t3.5 236v129q0 205 -18 261t-68 56q-28 0 -50 -9.5t-44 -31.5q-8 -126 -11 -288.5t-3 -427.5v-222q-25 -10 -48 -15t-44 -5q-18 0 -37 3.5t-39 10.5q-1 38 -1.5 83t-0.5 130z" />
<glyph unicode="i" horiz-adv-x="336" d="M68 1382q0 10 2.5 24t11.5 50q24 6 47.5 9t44.5 3q11 0 31 -4t45 -12q9 -28 13.5 -47.5t4.5 -32.5t-4.5 -30t-15.5 -45q-27 -8 -49 -11.5t-37 -3.5q-12 0 -30.5 3.5t-47.5 10.5q-8 29 -12 50t-4 36zM82 596q0 85 3 204t11 339q19 6 37.5 9t36.5 3q19 0 36 -2t35 -6 q6 -215 8.5 -408.5t2.5 -374.5q0 -58 -1 -173.5t-1 -171.5q-23 -16 -46 -23.5t-46 -7.5q-13 0 -26 3t-36 11q-7 178 -10.5 323t-3.5 275z" />
<glyph unicode="j" horiz-adv-x="342" d="M-59 -231q0 17 0.5 26.5t1.5 18.5q30 8 60 17.5t60 21.5q18 45 25.5 136.5t7.5 248.5q0 129 -3 347.5t-3 309.5q0 87 0.5 140t1.5 103q17 9 32.5 13t31.5 4q14 0 57 -7q20 -3 32 -5q9 -371 14 -669.5t5 -393.5q0 -233 -61.5 -319t-220.5 -101q-22 19 -31.5 44t-9.5 65z M84 1366q0 21 16 74l2 6q32 8 51 11t33 3q12 0 31.5 -4t42.5 -12q6 -36 8 -52.5t2 -25.5q0 -16 -4 -35t-16 -53q-31 -9 -48 -12.5t-28 -3.5q-15 0 -33.5 5t-44.5 17q-6 30 -9 50t-3 32z" />
<glyph unicode="k" horiz-adv-x="627" d="M62 1526q32 13 54 18.5t42 5.5t42.5 -4t49.5 -12q-4 -147 -6 -326.5t-2 -406.5q21 37 58 106q118 220 181 268q44 -8 75.5 -30.5t59.5 -67.5q-78 -73 -186 -233q-47 -70 -72 -103l271 -688q-32 -37 -69.5 -54.5t-90.5 -18.5l-227 665q1 -233 5 -408t11 -323 q-49 -9 -69 -11.5t-33 -2.5q-23 0 -41.5 3t-38.5 11q1 134 2.5 385t1.5 322q0 234 -4.5 461t-13.5 444z" />
<glyph unicode="l" horiz-adv-x="326" d="M62 1526q31 13 54.5 18.5t43.5 5.5t42 -3.5t50 -13.5q-4 -146 -6 -278.5t-2 -242.5q0 -382 4 -609.5t12 -402.5q-42 -8 -66.5 -11t-41.5 -3t-34 3.5t-42 12.5q2 170 3 322.5t1 285.5q0 236 -4.5 465t-13.5 451z" />
<glyph unicode="m" horiz-adv-x="977" d="M29 27q22 73 31.5 162t9.5 284q0 130 -7.5 291t-21.5 342q18 23 45.5 35.5t72.5 19.5h9q30 0 46 -19.5t20 -59.5q28 30 63.5 45.5t75.5 15.5q45 0 78 -19.5t61 -62.5q49 50 100 75t105 25q106 0 153.5 -83t47.5 -275q0 -104 -7.5 -296.5t-7.5 -281.5q0 -49 1.5 -103.5 t4.5 -109.5q-36 -16 -65.5 -24t-52.5 -8q-17 0 -34.5 4.5t-43.5 16.5q14 177 21 329t7 282q0 262 -19.5 324.5t-74.5 62.5q-47 0 -65.5 -48.5t-18.5 -198.5q0 -28 1 -101.5t1 -120.5q0 -100 3 -236.5t3 -172.5q0 -26 -3 -76l-1 -6l-42 -22q-8 -2 -15 -2.5t-21 -0.5 q-31 0 -54.5 7.5t-43.5 24.5q2 61 4 168q6 292 6 337v111q0 213 -16 270t-59 57q-22 0 -44.5 -12t-43.5 -35q-2 -45 -3.5 -85.5t-1.5 -80.5q0 -250 7 -512q2 -55 2 -65q0 -63 -7.5 -114t-21.5 -87q-19 -5 -34 -7.5t-27 -2.5q-26 0 -56.5 9.5t-66.5 29.5z" />
<glyph unicode="n" horiz-adv-x="649" d="M55 1067q27 31 61.5 48t80.5 21l18 -57q41 17 84 36.5t88 41.5q9 2 18.5 3t22.5 1q75 0 109 -63.5t34 -206.5v-234q0 -214 4 -367.5t13 -266.5q-25 -17 -48.5 -25t-50.5 -8q-23 0 -46.5 6.5t-49.5 19.5q6 145 9.5 283t3.5 270v43q0 254 -16.5 311.5t-63.5 57.5 q-29 0 -54.5 -15.5t-40.5 -41.5q7 -121 10 -242.5t3 -247.5q0 -78 -1 -214.5t-1 -194.5q-15 -19 -35 -27t-53 -8q-26 0 -49 6t-48 20q11 178 16 349t5 337q0 122 -5.5 205.5t-17.5 159.5z" />
<glyph unicode="o" horiz-adv-x="592" d="M49 535q0 314 73.5 470t221.5 156q103 0 151 -131.5t48 -415.5q0 -289 -80 -464t-209 -175q-110 0 -157.5 128.5t-47.5 431.5zM215 588q0 -252 18 -349.5t62 -97.5q46 0 64 97t18 376q0 207 -18.5 297t-61.5 99q-41 -19 -61.5 -123.5t-20.5 -298.5z" />
<glyph unicode="p" horiz-adv-x="616" d="M74 -285q0 7 1 45t1 70v1267q27 3 41.5 4t25.5 1q9 0 26 -1t26 -1q52 35 86.5 48t68.5 13q109 0 161 -129.5t52 -398.5q0 -315 -62.5 -486.5t-176.5 -171.5q-21 0 -40.5 8t-43.5 27v-145q0 -77 2.5 -122t7.5 -87q-27 -25 -62 -40t-59 -15q-29 0 -42 26t-13 88zM240 524 q0 -225 14.5 -304t50.5 -79q48 0 69 109.5t21 363.5q0 215 -21.5 306.5t-70.5 91.5q-35 0 -49 -31t-14 -125v-332z" />
<glyph unicode="q" horiz-adv-x="631" d="M37 399q0 166 36 343t103 339q55 33 121.5 53.5t153.5 30.5q30 -9 58 -23t52 -32q-10 -200 -15 -389t-5 -373q0 -165 5.5 -333.5t16.5 -337.5q-47 -33 -93.5 -51.5t-94.5 -22.5v383q-2 -1 -7 -1q-37 -3 -55 -3q-146 0 -211 98t-65 319zM209 377q0 -150 25 -204t83 -54 q5 0 18.5 1.5t38.5 4.5l1 851q-11 13 -24 20.5t-32 10.5q-20 -7 -32.5 -19t-20.5 -30q-28 -153 -42.5 -301.5t-14.5 -279.5z" />
<glyph unicode="r" horiz-adv-x="510" d="M59 1096q24 26 53.5 41.5t69.5 21.5q32 -22 46 -64t18 -153q68 67 115.5 109.5t78.5 64.5q34 -13 53.5 -40.5t32.5 -84.5q-72 -43 -139 -100.5t-131 -132.5q-3 -95 -4.5 -192t-1.5 -197q0 -63 2 -152t6 -194l-31 -39q-9 0 -27 1t-26 1q-36 0 -59 7t-39 23 q5 137 7.5 238.5t2.5 183.5q0 181 -6.5 344t-20.5 314z" />
<glyph unicode="s" horiz-adv-x="408" d="M35 860q0 105 56.5 196.5t162.5 157.5q36 -12 58.5 -33.5t37.5 -60.5l-15 -16q-138 -151 -138 -238q0 -43 57 -210q28 -80 43 -128q35 -112 46 -169t11 -107q0 -112 -47 -191.5t-141 -123.5q-35 6 -54 22.5t-42 71.5q56 64 84 127.5t28 128.5q0 42 -14 99t-57 179l-2 5 q-74 215 -74 290z" />
<glyph unicode="t" horiz-adv-x="467" d="M8 987v10q0 27 7.5 53t21.5 52l69 6l7 197q22 18 42.5 27t41.5 9q15 0 31 -5.5t38 -20.5q5 -19 7.5 -41.5t2.5 -50.5v-86q0 -1 -1 -10.5t0 -20.5q34 1 79 6.5t105 15.5q29 -24 42.5 -54t14.5 -72q-33 -17 -80 -27.5t-159 -22.5q-10 -161 -14.5 -308.5t-4.5 -278.5 q0 -168 15 -205t57 -37q22 0 41 4.5t36 13.5q14 -12 20.5 -25t6.5 -28q0 -19 -8.5 -38t-30.5 -46q-53 -23 -89.5 -33t-65.5 -10q-85 0 -121.5 70.5t-36.5 236.5q0 82 10 253t10 259q0 68 -0.5 103.5t-1.5 64.5q-26 7 -48.5 16.5t-43.5 22.5z" />
<glyph unicode="u" horiz-adv-x="631" d="M57 1128q25 12 47 17.5t43 5.5t43.5 -6.5t51.5 -22.5q-2 -81 -3 -209.5t-1 -283.5v-45q0 -244 14 -320t51 -104h12q15 0 28.5 2.5t28.5 7.5q7 77 10 157t3 177q0 177 -5 337.5t-15 307.5q21 9 42 13.5t42 4.5q24 0 49 -6.5t55 -21.5v-78q0 -11 -1 -67q-5 -306 -5 -617 q0 -147 2.5 -223t7.5 -143q-20 -14 -44.5 -19.5t-66.5 -5.5h-30q-13 22 -21 40t-12 33q-34 -32 -65.5 -50.5t-51.5 -18.5q-1 0 -6.5 1t-9.5 1q-171 43 -177 614q-4 320 -16 522z" />
<glyph unicode="v" horiz-adv-x="563" d="M10 1108q43 29 73.5 42t55.5 13q8 0 41 -9l4 -1l86 -743l16 85q85 457 107 649q23 10 46 14.5t46 4.5q25 0 53.5 -8t63.5 -25q-106 -353 -182.5 -640t-124.5 -508q-18 -7 -33 -10t-31 -3q-44 0 -61 174q-19 205 -49 367z" />
<glyph unicode="w" horiz-adv-x="819" d="M-6 1094q29 37 62.5 55t72.5 18q11 0 32 -5t29 -7v-37q0 -52 20.5 -191.5t76.5 -459.5l1 4q75 212 83 303q-19 133 -37.5 201t-44.5 106q17 40 51.5 63t73.5 23q12 0 23.5 -4.5t27.5 -17.5q8 -70 38 -265t68 -431l62 366q14 78 23 147.5t14 137.5q15 23 38 35.5t62 19.5 q30 -11 47.5 -28t30.5 -48q-78 -267 -136.5 -541.5t-99.5 -557.5q-22 -6 -34.5 -8.5t-18.5 -2.5t-16.5 1.5t-26.5 5.5v32q0 13 -7 60.5t-28 169.5l-59 337q-48 -150 -80.5 -298t-48.5 -287q-18 -4 -27 -5t-16 -1q-9 0 -19.5 2.5t-21.5 7.5q-37 293 -90.5 566.5t-124.5 533.5 z" />
<glyph unicode="x" horiz-adv-x="567" d="M-20 76l57 133q60 135 101.5 233t74.5 183q-56 157 -107 261.5t-106 176.5q28 42 63.5 61t86.5 19h22q46 -92 78.5 -167.5t52.5 -137.5q29 81 50 159t34 154l84 10q30 -6 46.5 -20.5t27.5 -42.5q-17 -74 -48 -170.5t-114 -319.5q41 -111 80 -253t82 -335q-27 -23 -50 -35 t-42 -12q-4 0 -26 4t-40 7q-39 173 -62.5 263t-43.5 152q-24 -68 -58 -153.5t-108 -259.5q-58 1 -90 22.5t-45 67.5z" />
<glyph unicode="y" horiz-adv-x="575" d="M10 1085q25 20 49.5 28.5t67.5 8.5q19 0 33.5 -0.5t29.5 -1.5q28 -158 53 -341t48 -394q36 177 64 368.5t48 399.5q28 6 39.5 8t18.5 2q22 0 48.5 -7.5t61.5 -22.5q-60 -434 -151 -826t-211 -737h-21q-43 0 -79.5 17.5t-73.5 56.5q42 73 78 168t75 237q-32 273 -76.5 532 t-101.5 504z" />
<glyph unicode="z" horiz-adv-x="537" d="M18 127q0 13 0.5 20t1.5 12l261 830q-15 -2 -29.5 -3t-34.5 -1q-31 0 -70 5t-88 16q-8 32 -12 58.5t-4 45.5q0 13 7 24t22 21q32 -11 67.5 -15.5t83.5 -4.5q50 0 92.5 5t77.5 15q30 -15 46 -41.5t24 -75.5q-92 -297 -153.5 -503.5t-106.5 -370.5q22 -7 45 -10.5t45 -3.5 q33 0 76 7t92 21q32 -22 46.5 -46.5t14.5 -53.5q0 -15 -7 -46q-1 -4 -1 -5q-52 -22 -99.5 -31.5t-97.5 -9.5q-52 0 -122 11.5t-158 35.5q-9 24 -14 48t-5 46z" />
<glyph unicode="{" d="M172 467v127q8 0 23 -1t22 -1q134 0 189 61.5t55 214.5v244q0 153 22.5 215.5t77.5 97.5q42 28 102 40t160 12h35v-127q-8 0 -23 1t-22 1q-121 0 -164 -47t-43 -197v-242q0 -166 -43.5 -235.5t-154.5 -100.5q111 -30 154.5 -99.5t43.5 -235.5v-242q0 -149 43.5 -195.5 t169.5 -46.5h39v-125h-35q-99 0 -159.5 12t-102.5 40q-55 36 -77.5 100t-22.5 213v244q0 152 -55 213t-189 61q-7 0 -22 -1t-23 -1z" />
<glyph unicode="|" d="M449 -483v2048h126v-2048h-126z" />
<glyph unicode="}" d="M166 -289q8 0 23 -1t22 -1q120 0 163.5 47.5t43.5 198.5v240q0 166 43.5 235.5t154.5 99.5q-111 31 -154.5 100.5t-43.5 235.5v242q0 149 -44 196.5t-169 47.5h-39v125h35q100 0 161 -12.5t103 -39.5q54 -35 76 -98t22 -215v-244q0 -152 55.5 -214t190.5 -62q7 0 22 1 t23 1v-127q-8 0 -23 1t-22 1q-135 0 -190.5 -62t-55.5 -214v-242q0 -153 -22 -216.5t-76 -99.5q-39 -26 -97.5 -37.5t-160.5 -11.5h-41v125z" />
<glyph unicode="~" horiz-adv-x="1706" d="M178 461v133q105 73 202 109t185 36q56 0 116.5 -12.5t174.5 -52.5q14 -5 44 -16q158 -58 245 -58q84 0 174.5 37t210.5 121v-131q-101 -72 -197.5 -108t-189.5 -36q-43 0 -90.5 9t-100.5 26q-30 10 -87 31q-202 72 -302 72q-83 0 -173.5 -37.5t-211.5 -122.5z" />
<glyph unicode="&#xa1;" horiz-adv-x="426" d="M129 1389q0 14 7 45q1 4 2 6q19 5 36 7.5t31 2.5q15 0 32.5 -5.5t45.5 -19.5q0 -1 1 -6q7 -35 7 -51q0 -10 -4 -42q-3 -20 -5 -32q-16 -6 -29.5 -9t-23.5 -3q-7 0 -33 1.5t-40 2.5l-15 6q-2 15 -5 39q-7 45 -7 58zM137 356q0 200 6.5 390.5t18.5 369.5q15 13 28 20t25 7 q15 0 27 -6t26 -21q15 -212 22 -389t7 -326q0 -56 -5 -248q-2 -99 -4 -155q-11 -2 -22.5 -3t-21.5 -1q-34 0 -57.5 10.5t-45.5 34.5v12q-4 205 -4 305z" />
<glyph unicode="&#xa2;" horiz-adv-x="508" d="M45 543q0 186 44 321t122 191l31 10q-2 18 -2 53q0 15 3 45.5t9 73.5q17 3 26 4.5t15 1.5q10 0 23 -2t28 -6q5 -36 7.5 -68t2.5 -63l1 -29q32 -3 55 -11t41 -22q0 -50 -7.5 -80.5t-23.5 -52.5q-32 15 -52.5 21t-37.5 6q-58 0 -88.5 -93.5t-30.5 -269.5q0 -144 25.5 -232 t76.5 -118h33q24 0 48.5 1.5t49.5 4.5q7 -15 11 -30.5t4 -28.5q0 -1 -1 -7t-1 -9q-6 -29 -35 -54.5t-68 -36.5q0 -78 -3 -122t-11 -76q-16 -7 -25.5 -9.5t-19.5 -2.5q-7 0 -17.5 1.5t-25.5 4.5q-6 33 -9 68.5t-3 72.5q0 28 0.5 42t0.5 26q-93 47 -144.5 170.5t-51.5 304.5z " />
<glyph unicode="&#xa3;" horiz-adv-x="592" d="M51 57q0 13 2 25t6 22l74 25l41 158q10 35 16.5 81.5t6.5 82.5q0 30 -3 58.5t-8 54.5l-10 44l-72 12t-45 9q-2 10 -3 18.5t-1 20.5q0 8 2 19t9 34q5 1 17 3q50 9 71 9q-29 78 -43.5 148t-14.5 129q0 53 12 105.5t37 109.5q58 60 101.5 92.5t85.5 48.5q23 3 48.5 4.5 t63.5 1.5q14 0 27.5 -0.5t28.5 -1.5q18 -17 27.5 -33.5t9.5 -31.5q0 -12 -5.5 -22t-19.5 -23l-6 -21l-92 2q-13 -6 -41.5 -23t-61.5 -38q-28 -43 -41.5 -97.5t-13.5 -124.5q10 -61 22.5 -115.5t28.5 -102.5q42 -2 99 -5.5t63 -3.5q18 -1 35 -6.5t35 -15.5l-7 -43 q-14 -20 -31 -35t-38 -27l-119 -2q5 -35 7.5 -63.5t2.5 -55.5q0 -52 -14.5 -129t-46.5 -194h35q14 0 33.5 -3t40.5 -8l155 -34q1 -3 3 -10q9 -34 9 -52q0 -21 -6.5 -38t-21.5 -35l-172 32q-51 -5 -115 -9.5t-186 -8.5q-8 17 -12.5 33.5t-4.5 29.5z" />
<glyph unicode="&#xa4;" horiz-adv-x="707" d="M-4 883q0 8 2.5 20.5t8.5 26.5l124 12q40 273 174 436t330 178q41 0 66.5 -17.5t25.5 -45.5q0 -10 -5.5 -21t-19.5 -28q-180 -60 -275.5 -178.5t-119.5 -317.5q31 0 66.5 -1.5t105.5 -6.5q20 -2 38 -7.5t34 -14.5l-6 -44q-12 -17 -29.5 -31.5t-42.5 -29.5l-180 -6 q-1 -19 -3.5 -49t-2.5 -37q15 2 30.5 3t34.5 1q23 0 71 -4h5q20 -2 38 -7.5t34 -15.5l-6 -43q-13 -18 -31 -34t-41 -29l-131 -4v-25q0 -171 66 -291t157 -120q26 0 53 12.5t58 40.5q9 3 17 4.5t13 1.5q25 0 37.5 -17t12.5 -51q-1 -10 -4.5 -22.5t-12.5 -34.5 q-40 -53 -92.5 -82t-110.5 -29q-155 0 -260.5 174.5t-109.5 448.5l-90 20q-4 16 -5.5 25t-1.5 14q0 11 8 38q3 10 5 16l84 12v20q0 8 1.5 34.5t2.5 39.5l-119 25q-3 18 -3.5 26t-0.5 15z" />
<glyph unicode="&#xa5;" horiz-adv-x="502" d="M-10 1317q17 29 40 43t54 14q4 0 15 -1.5t18 -2.5q41 -106 75 -219.5t60 -235.5q33 164 65.5 274.5t69.5 188.5q7 1 20 2q22 2 27 2q16 0 37.5 -5.5t58.5 -20.5q-28 -55 -80 -225.5t-110 -403.5q37 0 73.5 -3t71.5 -9q3 -11 4.5 -20.5t2.5 -18.5q-1 -12 -2.5 -25.5 t-4.5 -26.5l-26 -14q-16 0 -39.5 1t-30.5 1q-6 0 -26 -1t-35 -1q-6 -286 -8.5 -418.5t-2.5 -211.5l-86 -13q-16 11 -36 18t-45 11q8 134 12 257t4 234q0 22 -1 63.5t-1 61.5q-37 0 -74 3t-76 10q0 1 -2 6q-10 26 -10 37q0 7 5 19t18 34q39 0 72.5 2t62.5 6 q-28 113 -66.5 248t-103.5 340z" />
<glyph unicode="&#xa6;" d="M449 -350v758h126v-758h-126zM449 674v758h126v-758h-126z" />
<glyph unicode="&#xa7;" horiz-adv-x="702" d="M55 784q0 102 41.5 181t120.5 127q-17 43 -25 79t-8 72q0 136 89.5 227t222.5 91q20 0 42.5 -3t49.5 -10q11 -16 16.5 -32.5t5.5 -34.5q0 -4 -1 -11t-1 -10l-35 -69h-4q-53 8 -80 8q-74 0 -111.5 -37t-37.5 -109q0 -41 15.5 -90t60.5 -139l157 -319q36 -70 52 -122 t16 -98q0 -73 -36.5 -131.5t-110.5 -103.5q43 -72 63.5 -138t20.5 -132q0 -150 -74.5 -236t-202.5 -86q-12 0 -34.5 2t-67.5 8q-14 24 -20.5 44t-6.5 36q0 11 5 23t16 28l34 8q8 1 23 2q85 6 115 23q1 3 5 11q42 83 42 128q0 59 -21.5 118.5t-95.5 178.5l-143 232 q-58 92 -77.5 153.5t-19.5 130.5zM211 780q0 -58 55 -150l2 -3l144 -242q33 21 50 48t17 59q0 31 -14 73.5t-47 106.5l-137 274q-35 -32 -52.5 -73t-17.5 -93z" />
<glyph unicode="&#xa8;" d="M324 1354q0 15 3 33t11 49q26 4 45.5 6t32.5 2q14 0 50 -6q9 -1 15 -2q2 -15 3 -27t1 -23q0 -31 -4 -52.5t-14 -43.5q-28 -9 -40 -11.5t-24 -2.5q-15 0 -30.5 1.5t-32.5 4.5q-9 23 -12.5 40t-3.5 32zM543 1331q0 30 4.5 56t14.5 51q11 2 22 3t20 1q21 0 46 -3.5t54 -10.5 q2 -9 2.5 -19t0.5 -27q0 -14 -5.5 -39.5t-15.5 -60.5q-10 -2 -21 -3t-26 -1q-17 0 -38 3.5t-56 13.5q0 5 -1 17.5t-1 18.5z" />
<glyph unicode="&#xa9;" horiz-adv-x="1706" d="M119 725q0 145 56.5 279.5t162.5 242.5q102 104 234 158.5t280 54.5q151 0 285 -55t239 -160q102 -102 156.5 -236t54.5 -284q0 -151 -54 -283t-157 -233q-109 -106 -244.5 -162.5t-279.5 -56.5q-146 0 -278 55.5t-238 161.5q-106 105 -161.5 238.5t-55.5 279.5zM207 725 q0 -127 49 -244t141 -211q93 -92 209.5 -141t245.5 -49t248.5 50t214.5 142q91 90 138.5 205.5t47.5 247.5q0 130 -49 249t-139 210q-92 92 -210 140t-251 48q-132 0 -247.5 -47.5t-205.5 -138.5q-93 -95 -142.5 -214t-49.5 -247zM465 721q0 208 107.5 332.5t287.5 124.5 q137 0 230 -74.5t104 -192.5h-129q-15 77 -70.5 120.5t-138.5 43.5q-117 0 -182.5 -92.5t-65.5 -259.5q0 -160 66.5 -252t181.5 -92q87 0 145.5 48.5t73.5 133.5h129q-11 -127 -109 -207t-245 -80q-176 0 -280.5 121t-104.5 326z" />
<glyph unicode="&#xaa;" horiz-adv-x="453" d="M35 1456q0 3 2 6.5t8 12.5q49 26 94 48t86 40q94 -18 130 -94.5t36 -370.5q0 -81 -1.5 -170t-4.5 -186q-15 -7 -26.5 -10t-22.5 -3q-14 0 -26.5 3.5t-24.5 10.5l-6 33q-33 -14 -65.5 -22.5t-53.5 -8.5q-62 0 -91.5 57.5t-29.5 176.5q0 140 47.5 201t155.5 61h24 q-1 86 -22 142.5t-49 56.5q-7 0 -18.5 -3.5t-23.5 -9.5l-55 -28h-4q-23 0 -41 18t-18 39zM158 1006q0 -88 16.5 -114t58.5 -26q7 0 16.5 1.5t22.5 4.5q0 83 -3 251l-1 11q-4 2 -9 2.5t-13 0.5q-44 0 -66 -33t-22 -98z" />
<glyph unicode="&#xab;" horiz-adv-x="664" d="M39 580q0 13 3 28.5t9 34.5q65 51 121.5 126.5t116.5 191.5q33 0 54.5 -11t37.5 -37l25 -39q-40 -71 -97 -147.5t-131 -155.5q71 -70 126.5 -143.5t96.5 -151.5q-10 -43 -34 -66.5t-70 -33.5q-75 117 -133 191.5t-113 121.5q-6 32 -9 55t-3 36zM319 563l1 38q7 6 22 20 q127 115 166 194q37 -11 62 -34.5t44 -65.5q-36 -40 -106 -121l-14 -16q17 -30 43 -56.5t61 -52.5q-4 -38 -26.5 -66t-73.5 -57q-51 70 -95.5 124.5t-83.5 92.5z" />
<glyph unicode="&#xac;" horiz-adv-x="1706" d="M254 741v117h1198v-502h-115v385h-1083z" />
<glyph unicode="&#xad;" horiz-adv-x="408" d="M41 623q0 8 1.5 19.5t4.5 22.5q58 13 113 19t112 6q11 0 52 -2q27 -1 44 -2q-1 -41 -9.5 -76t-24.5 -69q-98 -2 -161 -6.5t-110 -11.5q-10 28 -16 55t-6 45z" />
<glyph unicode="&#xae;" horiz-adv-x="1706" d="M119 725q0 147 57 282t164 242q101 103 232 157t280 54q150 0 284 -55.5t240 -161.5q102 -102 156.5 -235.5t54.5 -282.5q0 -151 -54.5 -283t-158.5 -233q-109 -106 -243.5 -162.5t-278.5 -56.5q-145 0 -278.5 56t-239.5 163q-105 104 -160 237t-55 279zM207 725 q0 -127 49 -244t141 -211q91 -92 208 -141t245 -49q131 0 249.5 48.5t213.5 141.5q91 90 139.5 206t48.5 245q0 133 -48 251.5t-138 209.5q-94 93 -211.5 141.5t-251.5 48.5q-132 0 -247 -47t-204 -137q-94 -95 -144 -214t-50 -249zM561 317v840h311q178 0 264.5 -57 t86.5 -174q0 -89 -53 -148.5t-144 -75.5l188 -385h-157l-176 365h-179v-365h-141zM702 774h148q123 0 175 33t52 108q0 79 -54.5 114.5t-176.5 35.5h-144v-291z" />
<glyph unicode="&#xaf;" d="M338 1346q0 14 2 26t6 25q76 8 122 11t81 3q28 0 59 -3.5t69 -10.5q1 -2 2 -7q7 -38 7 -55q0 -19 -5 -36t-15 -31q-27 4 -54 6t-69 2q-32 0 -95.5 -1t-95.5 -1q-8 32 -11 47t-3 25z" />
<glyph unicode="&#xb0;" horiz-adv-x="674" d="M55 1171q0 119 82.5 201t200.5 82q117 0 200 -83t83 -200q0 -116 -83.5 -199t-201.5 -83t-199.5 82t-81.5 200zM135 1171q0 -84 59.5 -143t143.5 -59t142.5 59t58.5 143t-58.5 142.5t-142.5 58.5t-143.5 -58.5t-59.5 -142.5z" />
<glyph unicode="&#xb1;" horiz-adv-x="1706" d="M254 41v117h1198v-117h-1198zM254 719v117h541v344h118v-344h539v-117h-539v-344h-118v344h-541z" />
<glyph unicode="&#xb2;" horiz-adv-x="399" d="M-10 1190v6q34 29 77 45t89 16q63 0 106 -56t43 -142q0 -79 -63.5 -215.5t-81.5 -194.5q8 -2 17.5 -3t27.5 -1q34 0 73 7.5t109 29.5q6 -13 9 -25.5t3 -27.5q0 -6 -4 -29q-3 -15 -4 -22q-40 -13 -90 -19t-111 -6q-44 0 -80 5.5t-71 17.5q1 35 14.5 78t49.5 117 q7 16 22 49q68 148 68 224q0 48 -13.5 75.5t-42.5 37.5q-28 -3 -51.5 -11.5t-44.5 -23.5q-29 19 -40 34t-11 34z" />
<glyph unicode="&#xb3;" horiz-adv-x="379" d="M14 305q0 11 6 20.5t21 22.5h12q81 0 123.5 42t42.5 122q0 61 -39 105.5t-90 44.5q-12 -1 -17.5 -2.5t-8.5 -3.5q-20 11 -28.5 24t-8.5 31v8q98 77 140 147t42 154q0 71 -38 112.5t-103 41.5q-16 0 -26.5 -1t-19.5 -1q-4 10 -6 20t-2 22q0 11 0.5 17t1.5 12q17 7 36 10.5 t40 3.5q100 0 163.5 -66t63.5 -171q0 -78 -37 -148t-118 -145q82 -25 126 -84.5t44 -144.5q0 -97 -76.5 -164.5t-181.5 -67.5q-12 0 -40 4h-5q-9 11 -13 19.5t-4 15.5z" />
<glyph unicode="&#xb4;" d="M410 1284q10 17 33 55q68 115 116 191q8 1 15.5 1.5t15.5 0.5q15 0 34.5 -6.5t53.5 -22.5q-50 -105 -96.5 -173.5t-85.5 -92.5q-28 3 -49 14.5t-37 32.5z" />
<glyph unicode="&#xb5;" horiz-adv-x="1128" d="M-111 -426l316 1495h157l-126 -595q-8 -33 -11.5 -67t-3.5 -71q0 -109 57 -168t160 -59q125 0 208 101t128 308l121 551h156l-162 -754q-12 -52 -17.5 -84t-5.5 -51q0 -32 18.5 -48.5t53.5 -16.5q9 0 17.5 0.5t17.5 1.5l-27 -125q-21 -5 -44 -7.5t-48 -2.5 q-70 0 -104.5 35t-40.5 112q-41 -70 -117 -108.5t-172 -38.5q-87 0 -152.5 34t-109.5 103l-113 -545h-156z" />
<glyph unicode="&#xb6;" d="M76 1130q0 157 107.5 253t285.5 96h479v-78h-125v-1401h-94v1401h-182v-1401h-96v782q-173 8 -274 102.5t-101 245.5z" />
<glyph unicode="&#xb7;" horiz-adv-x="358" d="M76 569q0 42 30.5 72.5t71.5 30.5q43 0 73 -30t30 -73q0 -42 -30.5 -72t-72.5 -30q-40 0 -71 31t-31 71z" />
<glyph unicode="&#xb8;" d="M369 -317q34 82 53.5 160.5t26.5 156.5q16 5 29.5 7.5t23.5 2.5t27 -2t53 -8q-7 -101 -33 -182.5t-76 -153.5q-2 0 -7 -1q-17 -3 -22 -3q-13 0 -36.5 11t-38.5 12z" />
<glyph unicode="&#xb9;" horiz-adv-x="309" d="M-20 1208q0 9 10 15.5t30 11.5q43 10 96 17.5t79 7.5q10 -1 18.5 -3t19.5 -7q6 -43 8.5 -87.5t2.5 -95.5q0 -127 -6.5 -253.5t-18.5 -248.5q-19 -10 -35 -15t-24 -5q-6 0 -12 2t-13 6q-3 135 -4.5 260t-1.5 238v135l-125 4q-12 0 -18 4.5t-6 13.5z" />
<glyph unicode="&#xba;" horiz-adv-x="444" d="M37 1120q0 221 55 330t166 109q77 0 113.5 -92.5t36.5 -290.5q0 -203 -60.5 -325t-157.5 -122q-82 0 -117.5 90t-35.5 301zM162 1157q0 -176 13.5 -244.5t45.5 -68.5q35 0 48.5 66.5t13.5 265.5q0 143 -14 206.5t-46 69.5q-30 -12 -45.5 -86t-15.5 -209z" />
<glyph unicode="&#xbb;" horiz-adv-x="664" d="M49 424q8 9 23 26q61 68 98 111q-17 30 -42 55.5t-62 51.5q4 38 27 67t73 58q47 -66 93 -121t87 -97l-2 -38q-10 -10 -33 -30q-119 -107 -155 -183q-38 10 -63 33.5t-44 66.5zM258 264q39 72 96.5 148.5t130.5 154.5q-75 76 -129 147t-94 146q10 44 34.5 67.5t70.5 33.5 q62 -101 123.5 -178.5t123.5 -132.5q6 -34 8.5 -55.5t2.5 -35.5q0 -19 -11 -58q-1 -3 -2 -5q-61 -48 -116.5 -121.5t-120.5 -198.5q-34 0 -55 11t-37 36z" />
<glyph unicode="&#xbc;" horiz-adv-x="1083" d="M-18 1210q0 8 9 14t27 11q42 9 93.5 15.5t74.5 6.5q8 0 16 -1.5t19 -6.5q7 -39 9.5 -79.5t2.5 -90.5q0 -119 -6 -237.5t-18 -231.5q-19 -8 -34 -13t-23 -5q-5 0 -11 1.5t-12 5.5q-3 123 -4.5 240.5t-1.5 223.5v127l-119 4q-11 0 -16.5 4t-5.5 12zM27 -4 q210 455 405 811.5t387 636.5h12q31 0 48.5 -15.5t23.5 -48.5q-265 -432 -456.5 -801.5t-309.5 -674.5l-37 -4q-31 7 -48 28.5t-25 67.5zM635 23q51 179 95.5 323.5t88.5 271.5q38 17 73.5 27t70.5 14l11 -9q6 -106 8.5 -238t2.5 -318q24 0 50.5 -3t56.5 -9v-6 q0 -14 -3.5 -28t-11.5 -30q-27 -5 -49 -7.5t-43 -2.5v-2q-4 -148 -12 -221q-14 -6 -23 -8t-18 -2q-11 0 -20 1.5t-19 6.5q-4 54 -6 108.5t-2 112.5h-62q-44 0 -88.5 1.5t-88.5 4.5zM738 86q22 2 55 4t94 4v123q0 38 -2 174q-2 83 -2 131l-21 -2q-25 -75 -54.5 -177 t-69.5 -257z" />
<glyph unicode="&#xbd;" horiz-adv-x="1020" d="M-18 1210q0 8 9 14t27 11q42 9 93.5 15.5t74.5 6.5q8 0 16 -1.5t19 -6.5q7 -39 9.5 -79.5t2.5 -90.5q0 -119 -6 -237.5t-18 -231.5q-19 -8 -34 -13t-23 -5q-5 0 -11 1.5t-12 5.5q-3 123 -4.5 240.5t-1.5 223.5v127l-119 4q-11 0 -16.5 4t-5.5 12zM27 -4 q210 455 405 811.5t387 636.5h12q31 0 48.5 -15.5t23.5 -48.5q-265 -432 -456.5 -801.5t-309.5 -674.5l-37 -4q-31 7 -48 28.5t-25 67.5zM627 586v6q32 28 74 43.5t83 15.5q61 0 102.5 -53t41.5 -133q0 -75 -61 -203.5t-79 -179.5q2 0 6 -1q26 -3 40 -3q34 0 74 8t100 26 q5 -12 7.5 -23.5t2.5 -25.5q0 -5 -1.5 -17.5t-5.5 -31.5q-36 -10 -84 -15t-108 -5q-48 0 -81 4.5t-64 13.5q2 56 57 178l2 4q6 14 18 39q70 146 70 220q0 45 -12.5 69.5t-40.5 34.5q-26 -3 -48.5 -11t-43.5 -22q-28 17 -38.5 31t-10.5 31z" />
<glyph unicode="&#xbe;" horiz-adv-x="1149" d="M12 1214q0 4 1 10.5t3 18.5q22 8 38.5 11t33.5 3q95 0 156 -62t61 -161q0 -72 -35.5 -136.5t-113.5 -135.5q80 -25 121.5 -80t41.5 -135q0 -90 -73.5 -152.5t-173.5 -62.5q-17 0 -26 0.5t-17 1.5q-8 9 -11.5 17.5t-3.5 17.5t6 18t20 20l11 1q78 0 118 38.5t40 114.5 q0 57 -37 98t-86 41q-8 0 -14 -1.5t-10 -3.5q-20 9 -28.5 21.5t-8.5 28.5q0 2 1 4.5t1 4.5q93 72 133.5 137.5t40.5 142.5q0 67 -36.5 105.5t-98.5 38.5q-17 0 -26 -0.5t-20 -1.5q-4 12 -6 21.5t-2 16.5zM92 -4q211 455 406 811.5t387 636.5h12q31 0 48.5 -15.5t23.5 -48.5 q-265 -432 -456.5 -801.5t-309.5 -674.5l-38 -4q-31 7 -48 28.5t-25 67.5zM700 23q51 179 96 323.5t89 271.5q37 17 72.5 27t70.5 14l12 -10q6 -106 8.5 -238t2.5 -317q24 0 50.5 -3t55.5 -9v-6q0 -15 -3.5 -29t-10.5 -28q-28 -6 -50 -8.5t-42 -2.5v-2q-5 -148 -13 -221 q-13 -6 -22 -8t-19 -2q-11 0 -19.5 1.5t-19.5 6.5q-4 54 -6 108.5t-2 112.5h-61q-44 0 -88.5 1.5t-90.5 5.5zM803 86q23 2 55.5 4t93.5 4v123q0 38 -2 175q-1 81 -2 130l-20 -2q-25 -75 -54.5 -177t-70.5 -257z" />
<glyph unicode="&#xbf;" horiz-adv-x="530" d="M66 438q0 162 52 271.5t152 156.5v41q0 57 3.5 111.5t11.5 109.5q16 6 30 8.5t27 2.5q7 0 18 -2t37 -9q15 -71 22 -129t7 -106q0 -18 -5 -83q-2 -32 -3 -50q-92 -10 -140.5 -88.5t-48.5 -218.5q0 -154 57.5 -235t174.5 -92q1 -10 1.5 -19.5t0.5 -18.5q0 -28 -10 -52.5 t-29 -45.5h-18q-159 0 -249.5 119.5t-90.5 328.5zM258 1374q0 18 2 34.5t6 31.5q23 6 40 9t28 3q16 0 35 -6t44 -18q4 -16 5.5 -30.5t1.5 -35.5q0 -17 -1.5 -33t-5.5 -33q-20 -7 -34.5 -10.5t-26.5 -3.5q-22 0 -77 11l-7 2l-1 6q-9 62 -9 73z" />
<glyph unicode="&#xc0;" horiz-adv-x="649" d="M-10 14q66 433 140 813.5t159 716.5q28 8 48 11.5t36 3.5t33.5 -4t37.5 -13q32 -323 78 -704t105 -807q-23 -21 -47 -31t-52 -10q-22 0 -35 1t-24 3q-16 113 -34 253t-19 146q-16 1 -41 2q-37 2 -47 2q-32 0 -104 -3q-9 -1 -13 -1q-15 -108 -26.5 -205t-18.5 -173 q-31 -17 -53.5 -24t-42.5 -7q-21 0 -40 7t-40 23zM215 1902q24 15 44 22t38 7q9 0 28 -6q9 -3 14 -4q19 -71 47 -131.5t66 -112.5q-17 -21 -39.5 -33t-54.5 -18q-46 50 -81.5 118t-61.5 158zM231 528h12q58 -4 83 -4q9 0 40 2q23 2 35 2q-19 172 -33.5 342t-25.5 340 q-30 -172 -56 -334t-55 -348z" />
<glyph unicode="&#xc1;" horiz-adv-x="649" d="M-10 14q66 433 140 813.5t159 716.5q28 8 48 11.5t36 3.5t33.5 -4t37.5 -13q32 -323 78 -704t105 -807q-23 -21 -47 -31t-52 -10q-22 0 -35 1t-24 3q-16 113 -34 253t-19 146q-16 1 -41 2q-37 2 -47 2q-32 0 -104 -3q-9 -1 -13 -1q-15 -108 -26.5 -205t-18.5 -173 q-31 -17 -53.5 -24t-42.5 -7q-21 0 -40 7t-40 23zM231 528h12q58 -4 83 -4q9 0 40 2q23 2 35 2q-19 172 -33.5 342t-25.5 340q-30 -172 -56 -334t-55 -348zM252 1681q10 17 33 55q68 115 116 191q8 1 15.5 1.5t15.5 0.5q15 0 34.5 -6.5t53.5 -22.5q-50 -105 -96.5 -173.5 t-85.5 -92.5q-28 3 -49 14.5t-37 32.5z" />
<glyph unicode="&#xc2;" horiz-adv-x="649" d="M-10 14q66 433 140 813.5t159 716.5q28 8 48 11.5t36 3.5t33.5 -4t37.5 -13q32 -323 78 -704t105 -807q-23 -21 -47 -31t-52 -10q-22 0 -35 1t-24 3q-16 113 -34 253t-19 146q-16 1 -41 2q-37 2 -47 2q-32 0 -104 -3q-9 -1 -13 -1q-15 -108 -26.5 -205t-18.5 -173 q-31 -17 -53.5 -24t-42.5 -7q-21 0 -40 7t-40 23zM174 1675q39 45 74.5 105t71.5 143q9 1 25 3q32 5 40 5q15 0 40 -10h1q22 -74 51 -134t65 -110q-17 -20 -35.5 -30t-43.5 -13q-29 20 -53.5 50t-47.5 75q-19 -33 -44 -63t-57 -58q-28 3 -49 12t-38 25zM231 528h12 q58 -4 83 -4q9 0 40 2q23 2 35 2q-19 172 -33.5 342t-25.5 340q-30 -172 -56 -334t-55 -348z" />
<glyph unicode="&#xc3;" horiz-adv-x="649" d="M-10 14q66 433 140 813.5t159 716.5q28 8 48 11.5t36 3.5t33.5 -4t37.5 -13q32 -323 78 -704t105 -807q-23 -21 -47 -31t-52 -10q-22 0 -35 1t-24 3q-16 113 -34 253t-19 146q-16 1 -41 2q-37 2 -47 2q-32 0 -104 -3q-9 -1 -13 -1q-15 -108 -26.5 -205t-18.5 -173 q-31 -17 -53.5 -24t-42.5 -7q-21 0 -40 7t-40 23zM149 1714q28 80 54.5 107.5t70.5 27.5h4q26 -9 63 -42.5t66 -33.5h10l74 90q27 -6 44.5 -20.5t31.5 -42.5q-46 -90 -79 -116.5t-85 -26.5q-38 0 -69 14t-62 45l-43 -57q-28 8 -47.5 21.5t-32.5 33.5zM231 528h12 q58 -4 83 -4q9 0 40 2q23 2 35 2q-19 172 -33.5 342t-25.5 340q-30 -172 -56 -334t-55 -348z" />
<glyph unicode="&#xc4;" horiz-adv-x="649" d="M-10 14q66 433 140 813.5t159 716.5q28 8 48 11.5t36 3.5t33.5 -4t37.5 -13q32 -323 78 -704t105 -807q-23 -21 -47 -31t-52 -10q-22 0 -35 1t-24 3q-16 113 -34 253t-19 146q-16 1 -41 2q-37 2 -47 2q-32 0 -104 -3q-9 -1 -13 -1q-15 -108 -26.5 -205t-18.5 -173 q-31 -17 -53.5 -24t-42.5 -7q-21 0 -40 7t-40 23zM166 1751q0 15 3 33t11 49q26 4 45.5 6t32.5 2q14 0 50 -6q9 -1 15 -2q2 -15 3 -27t1 -23q0 -31 -4 -52.5t-14 -43.5q-28 -9 -40 -11.5t-24 -2.5q-15 0 -30.5 1.5t-32.5 4.5q-9 23 -12.5 40t-3.5 32zM231 528h12 q58 -4 83 -4q9 0 40 2q23 2 35 2q-19 172 -33.5 342t-25.5 340q-30 -172 -56 -334t-55 -348zM385 1728q0 30 4.5 56t14.5 51q11 2 22 3t20 1q21 0 46 -3.5t54 -10.5q2 -9 2.5 -19t0.5 -27q0 -14 -5.5 -39.5t-15.5 -60.5q-10 -2 -21 -3t-26 -1q-17 0 -38 3.5t-56 13.5 q0 5 -1 17.5t-1 18.5z" />
<glyph unicode="&#xc5;" horiz-adv-x="649" d="M-10 14q64 426 136.5 800.5t145.5 658.5q-51 26 -77.5 69.5t-26.5 99.5q0 78 58 135.5t136 57.5q82 0 133.5 -51.5t51.5 -132.5q0 -52 -26 -97.5t-70 -68.5q18 -216 64 -597t112 -857q-23 -21 -47 -31t-52 -10q-22 0 -35 1t-24 3q-16 113 -34 253t-19 146q-16 1 -41 2 q-37 2 -47 2q-32 0 -104 -3q-9 -1 -13 -1q-15 -108 -26.5 -205t-18.5 -173q-31 -17 -53.5 -24t-42.5 -7q-21 0 -40 7t-40 23zM231 528h12q58 -4 83 -4q9 0 40 2q23 2 35 2q-19 172 -33.5 342t-25.5 340q-30 -172 -56 -334t-55 -348zM260 1638q0 -39 26 -64.5t66 -25.5 q44 0 73.5 28t29.5 69q0 20 -6.5 38.5t-20.5 38.5q-17 11 -32 16t-31 5q-47 0 -76 -29.5t-29 -75.5z" />
<glyph unicode="&#xc6;" horiz-adv-x="829" d="M18 -6q28 506 84.5 900t135.5 636l24 20q6 1 17 1q80 3 114 3q84 0 163 -8.5t157 -26.5q5 -14 8.5 -27.5t3.5 -21.5q0 -25 -8 -45.5t-27 -42.5q-28 4 -56 6.5t-54 2.5q-19 0 -36.5 -0.5t-37.5 -1.5q10 -93 15.5 -180.5t7.5 -172.5q3 0 11 -1q66 -7 95 -7q12 0 58 3 q14 1 22 1q6 -20 9 -37.5t3 -33.5q0 -18 -4.5 -34t-13.5 -36q-7 -1 -18 -2q-54 -6 -75 -6q-18 0 -65 3q-10 0 -16 1l2 -242q2 -196 3.5 -302t4.5 -187q28 -5 59.5 -7t71.5 -2q38 0 57 0.5t38 1.5q19 -7 26.5 -19.5t7.5 -37.5q0 -16 -5 -36.5t-16 -49.5q-40 -12 -79.5 -18 t-79.5 -6q-41 0 -93 6t-122 20l-35 45v541q-14 2 -29 3t-41 1q-9 0 -32 -3t-58 -9q-10 -116 -24.5 -311.5t-22.5 -264.5l-12 -2q-13 -19 -26.5 -27t-33.5 -8q-19 0 -38 5t-40 16zM234 750q17 1 33 1.5t38 0.5q11 0 43 -3q16 -1 25 -1q-2 187 -7 354.5t-14 320.5l-12 -2 q-33 -130 -59 -294t-47 -377z" />
<glyph unicode="&#xc7;" horiz-adv-x="573" d="M39 657q0 372 112 594.5t341 304.5q29 -14 43 -37.5t14 -58.5v-16q-19 -19 -103 -89.5t-122 -129.5q-52 -80 -80.5 -228.5t-28.5 -341.5q0 -223 61 -362t152 -139q14 0 46 15q19 9 29 13q22 -14 34 -36t12 -48q0 -8 -2.5 -18t-7.5 -22q-30 -46 -59 -63.5t-74 -17.5 q-160 0 -263.5 187.5t-103.5 492.5zM242 -317q34 82 53.5 160.5t26.5 156.5q16 5 29.5 7.5t23.5 2.5t27 -2t53 -8q-7 -101 -33 -182.5t-76 -153.5q-2 0 -7 -1q-17 -3 -22 -3q-13 0 -36.5 11t-38.5 12z" />
<glyph unicode="&#xc8;" horiz-adv-x="573" d="M57 14q20 162 29.5 335.5t9.5 367.5q0 102 -5 312t-15 493q84 12 190.5 18t259.5 8q4 -12 6.5 -22.5t2.5 -18.5q0 -13 -5.5 -30t-15.5 -37l-26 -57q-37 2 -54.5 2.5t-34.5 0.5q-39 0 -77 -4.5t-76 -13.5q2 -91 5.5 -167.5t8.5 -145.5h55q28 0 58.5 0.5t90.5 3.5 q22 -11 32.5 -26.5t13.5 -41.5q-3 -29 -14.5 -50.5t-35.5 -39.5q-39 3 -77 4.5t-76 1.5h-47q2 -78 3 -147.5t1 -136.5q0 -124 -3.5 -237.5t-10.5 -219.5l4 -1q117 -18 158 -18q34 0 64.5 4.5t60.5 12.5q13 -24 21 -49t11 -54q-15 -26 -35.5 -47.5t-43.5 -35.5 q-24 -2 -44 -2.5t-43 -0.5q-98 0 -185.5 10t-160.5 29zM148 1902q24 15 44 22t38 7q9 0 28 -6q9 -3 14 -4q19 -71 47 -131.5t66 -112.5q-17 -21 -39.5 -33t-54.5 -18q-46 50 -81.5 118t-61.5 158z" />
<glyph unicode="&#xc9;" horiz-adv-x="573" d="M57 14q20 162 29.5 335.5t9.5 367.5q0 102 -5 312t-15 493q84 12 190.5 18t259.5 8q4 -12 6.5 -22.5t2.5 -18.5q0 -13 -5.5 -30t-15.5 -37l-26 -57q-37 2 -54.5 2.5t-34.5 0.5q-39 0 -77 -4.5t-76 -13.5q2 -91 5.5 -167.5t8.5 -145.5h55q28 0 58.5 0.5t90.5 3.5 q22 -11 32.5 -26.5t13.5 -41.5q-3 -29 -14.5 -50.5t-35.5 -39.5q-39 3 -77 4.5t-76 1.5h-47q2 -78 3 -147.5t1 -136.5q0 -124 -3.5 -237.5t-10.5 -219.5l4 -1q117 -18 158 -18q34 0 64.5 4.5t60.5 12.5q13 -24 21 -49t11 -54q-15 -26 -35.5 -47.5t-43.5 -35.5 q-24 -2 -44 -2.5t-43 -0.5q-98 0 -185.5 10t-160.5 29zM185 1681q10 17 33 55q68 115 116 191q8 1 15.5 1.5t15.5 0.5q15 0 34.5 -6.5t53.5 -22.5q-50 -105 -96.5 -173.5t-85.5 -92.5q-28 3 -49 14.5t-37 32.5z" />
<glyph unicode="&#xca;" horiz-adv-x="573" d="M57 14q20 162 29.5 335.5t9.5 367.5q0 102 -5 312t-15 493q84 12 190.5 18t259.5 8q4 -12 6.5 -22.5t2.5 -18.5q0 -13 -5.5 -30t-15.5 -37l-26 -57q-37 2 -54.5 2.5t-34.5 0.5q-39 0 -77 -4.5t-76 -13.5q2 -91 5.5 -167.5t8.5 -145.5h55q28 0 58.5 0.5t90.5 3.5 q22 -11 32.5 -26.5t13.5 -41.5q-3 -29 -14.5 -50.5t-35.5 -39.5q-39 3 -77 4.5t-76 1.5h-47q2 -78 3 -147.5t1 -136.5q0 -124 -3.5 -237.5t-10.5 -219.5l4 -1q117 -18 158 -18q34 0 64.5 4.5t60.5 12.5q13 -24 21 -49t11 -54q-15 -26 -35.5 -47.5t-43.5 -35.5 q-24 -2 -44 -2.5t-43 -0.5q-98 0 -185.5 10t-160.5 29zM107 1675q39 45 74.5 105t71.5 143q9 1 25 3q32 5 40 5q15 0 40 -10h1q22 -74 51 -134t65 -110q-17 -20 -35.5 -30t-43.5 -13q-29 20 -53.5 50t-47.5 75q-19 -33 -44 -63t-57 -58q-28 3 -49 12t-38 25z" />
<glyph unicode="&#xcb;" horiz-adv-x="573" d="M57 14q20 162 29.5 335.5t9.5 367.5q0 102 -5 312t-15 493q84 12 190.5 18t259.5 8q4 -12 6.5 -22.5t2.5 -18.5q0 -13 -5.5 -30t-15.5 -37l-26 -57q-37 2 -54.5 2.5t-34.5 0.5q-39 0 -77 -4.5t-76 -13.5q2 -91 5.5 -167.5t8.5 -145.5h55q28 0 58.5 0.5t90.5 3.5 q22 -11 32.5 -26.5t13.5 -41.5q-3 -29 -14.5 -50.5t-35.5 -39.5q-39 3 -77 4.5t-76 1.5h-47q2 -78 3 -147.5t1 -136.5q0 -124 -3.5 -237.5t-10.5 -219.5l4 -1q117 -18 158 -18q34 0 64.5 4.5t60.5 12.5q13 -24 21 -49t11 -54q-15 -26 -35.5 -47.5t-43.5 -35.5 q-24 -2 -44 -2.5t-43 -0.5q-98 0 -185.5 10t-160.5 29zM99 1751q0 15 3 33t11 49q26 4 45.5 6t32.5 2q14 0 50 -6q9 -1 15 -2q2 -15 3 -27t1 -23q0 -31 -4 -52.5t-14 -43.5q-28 -9 -40 -11.5t-24 -2.5q-15 0 -30.5 1.5t-32.5 4.5q-9 23 -12.5 40t-3.5 32zM318 1728 q0 30 4.5 56t14.5 51q11 2 22 3t20 1q21 0 46 -3.5t54 -10.5q2 -9 2.5 -19t0.5 -27q0 -14 -5.5 -39.5t-15.5 -60.5q-10 -2 -21 -3t-26 -1q-17 0 -38 3.5t-56 13.5q0 5 -1 17.5t-1 18.5z" />
<glyph unicode="&#xcc;" horiz-adv-x="342" d="M33 1902q24 15 44 22t38 7q9 0 28 -6q9 -3 14 -4q19 -71 47 -131.5t66 -112.5q-17 -21 -39.5 -33t-54.5 -18q-46 50 -81.5 118t-61.5 158zM86 1028q0 101 1 212t3 267q3 15 10.5 24t20.5 13q11 1 26 2.5t19 1.5q19 0 36.5 -5.5t39.5 -18.5q8 -219 12 -411t4 -365 q0 -175 -3 -366t-9 -396q-18 -9 -39 -13t-47 -4h-17l-51 25l-2 422q-1 176 -2.5 380.5t-1.5 231.5z" />
<glyph unicode="&#xcd;" horiz-adv-x="342" d="M70 1681q10 17 33 55q68 115 116 191q8 1 15.5 1.5t15.5 0.5q15 0 34.5 -6.5t53.5 -22.5q-50 -105 -96.5 -173.5t-85.5 -92.5q-28 3 -49 14.5t-37 32.5zM86 1028q0 101 1 212t3 267q3 15 10.5 24t20.5 13q11 1 26 2.5t19 1.5q19 0 36.5 -5.5t39.5 -18.5q8 -219 12 -411 t4 -365q0 -175 -3 -366t-9 -396q-18 -9 -39 -13t-47 -4h-17l-51 25l-2 422q-1 176 -2.5 380.5t-1.5 231.5z" />
<glyph unicode="&#xce;" horiz-adv-x="342" d="M-8 1675q39 45 74.5 105t71.5 143q9 1 25 3q32 5 40 5q15 0 40 -10h1q22 -74 51 -134t65 -110q-17 -20 -35.5 -30t-43.5 -13q-29 20 -53.5 50t-47.5 75q-19 -33 -44 -63t-57 -58q-28 3 -49 12t-38 25zM86 1028q0 101 1 212t3 267q3 15 10.5 24t20.5 13q11 1 26 2.5 t19 1.5q19 0 36.5 -5.5t39.5 -18.5q8 -219 12 -411t4 -365q0 -175 -3 -366t-9 -396q-18 -9 -39 -13t-47 -4h-17l-51 25l-2 422q-1 176 -2.5 380.5t-1.5 231.5z" />
<glyph unicode="&#xcf;" horiz-adv-x="342" d="M-16 1751q0 15 3 33t11 49q26 4 45.5 6t32.5 2q14 0 50 -6q9 -1 15 -2q2 -15 3 -27t1 -23q0 -31 -4 -52.5t-14 -43.5q-28 -9 -40 -11.5t-24 -2.5q-15 0 -30.5 1.5t-32.5 4.5q-9 23 -12.5 40t-3.5 32zM86 1028q0 101 1 212t3 267q3 15 10.5 24t20.5 13q11 1 26 2.5t19 1.5 q19 0 36.5 -5.5t39.5 -18.5q8 -219 12 -411t4 -365q0 -175 -3 -366t-9 -396q-18 -9 -39 -13t-47 -4h-17l-51 25l-2 422q-1 176 -2.5 380.5t-1.5 231.5zM203 1728q0 30 4.5 56t14.5 51q11 2 22 3t20 1q21 0 46 -3.5t54 -10.5q2 -9 2.5 -19t0.5 -27q0 -14 -5.5 -39.5 t-15.5 -60.5q-10 -2 -21 -3t-26 -1q-17 0 -38 3.5t-56 13.5q0 5 -1 17.5t-1 18.5z" />
<glyph unicode="&#xd0;" horiz-adv-x="672" d="M-14 786q0 9 3 23t9 35l7 1q67 7 97 7q4 337 16 687l1 9h108q216 0 300.5 -171.5t84.5 -616.5q0 -438 -79.5 -606t-276.5 -168q-46 0 -77.5 1t-61.5 3q-6 123 -9 273.5t-6 461.5q-22 0 -47 2t-61 6q-4 17 -6 30t-2 23zM270 633q0 -117 3 -240t10 -254h2q84 0 117.5 140 t33.5 524q0 293 -36 446.5t-105 153.5q-2 0 -6 -1t-6 -1q-4 -89 -6 -203.5t-4 -345.5q36 0 53 -2t32 -6q3 -11 8 -29t5 -24q0 -12 -2.5 -27t-8.5 -35q-22 -2 -37.5 -3t-27.5 -1h-25v-92z" />
<glyph unicode="&#xd1;" horiz-adv-x="705" d="M78 1124v402q11 8 22.5 12t22.5 4q19 0 40.5 -2.5t47.5 -7.5q65 -174 129 -326t133 -297q0 13 -1 38q-3 131 -3 183q0 92 1 194t3 216q5 2 9 5.5t14 13.5l60 1q18 -3 36 -9t35 -15q2 -168 3 -274.5t1 -200.5q0 -353 -5.5 -630.5t-15.5 -457.5q-20 -5 -36 -11.5t-29 -14.5 q-5 0 -12.5 -1t-10.5 -1q-16 0 -32 3.5t-35 12.5q4 225 6 374.5t2 285.5q-81 159 -138.5 277t-93.5 200q4 -232 6.5 -423t2.5 -308q0 -86 -1.5 -181t-5.5 -201q-19 -8 -37.5 -12t-35.5 -4q-19 0 -37 6t-39 19q-3 308 -4.5 590.5t-1.5 539.5zM147 1714q28 80 54.5 107.5 t70.5 27.5h4q26 -9 63 -42.5t66 -33.5h10l74 90q27 -6 44.5 -20.5t31.5 -42.5q-46 -90 -79 -116.5t-85 -26.5q-38 0 -69 14t-62 45l-43 -57q-28 8 -47.5 21.5t-32.5 33.5z" />
<glyph unicode="&#xd2;" horiz-adv-x="694" d="M47 805q0 295 27.5 429t93.5 220q45 59 85.5 83t96.5 24q148 0 222.5 -185t74.5 -553q0 -284 -35 -456.5t-110 -262.5q-50 -60 -105.5 -93.5t-105.5 -33.5q-119 0 -181.5 211.5t-62.5 616.5zM209 1902q24 15 44 22t38 7q9 0 28 -6q9 -3 14 -4q19 -71 47 -131.5t66 -112.5 q-17 -21 -39.5 -33t-54.5 -18q-46 50 -81.5 118t-61.5 158zM227 799q0 -284 17 -432.5t55 -221.5h6q86 0 125 156t39 500q0 331 -32 465.5t-107 134.5q-16 0 -31 -7t-29 -20q-23 -81 -33 -208.5t-10 -366.5z" />
<glyph unicode="&#xd3;" horiz-adv-x="694" d="M47 805q0 295 27.5 429t93.5 220q45 59 85.5 83t96.5 24q148 0 222.5 -185t74.5 -553q0 -284 -35 -456.5t-110 -262.5q-50 -60 -105.5 -93.5t-105.5 -33.5q-119 0 -181.5 211.5t-62.5 616.5zM227 799q0 -284 17 -432.5t55 -221.5h6q86 0 125 156t39 500q0 331 -32 465.5 t-107 134.5q-16 0 -31 -7t-29 -20q-23 -81 -33 -208.5t-10 -366.5zM246 1681q10 17 33 55q68 115 116 191q8 1 15.5 1.5t15.5 0.5q15 0 34.5 -6.5t53.5 -22.5q-50 -105 -96.5 -173.5t-85.5 -92.5q-28 3 -49 14.5t-37 32.5z" />
<glyph unicode="&#xd4;" horiz-adv-x="694" d="M47 805q0 295 27.5 429t93.5 220q45 59 85.5 83t96.5 24q148 0 222.5 -185t74.5 -553q0 -284 -35 -456.5t-110 -262.5q-50 -60 -105.5 -93.5t-105.5 -33.5q-119 0 -181.5 211.5t-62.5 616.5zM168 1675q39 45 74.5 105t71.5 143q9 1 25 3q32 5 40 5q15 0 40 -10h1 q22 -74 51 -134t65 -110q-17 -20 -35.5 -30t-43.5 -13q-29 20 -53.5 50t-47.5 75q-19 -33 -44 -63t-57 -58q-28 3 -49 12t-38 25zM227 799q0 -284 17 -432.5t55 -221.5h6q86 0 125 156t39 500q0 331 -32 465.5t-107 134.5q-16 0 -31 -7t-29 -20q-23 -81 -33 -208.5 t-10 -366.5z" />
<glyph unicode="&#xd5;" horiz-adv-x="694" d="M47 805q0 295 27.5 429t93.5 220q45 59 85.5 83t96.5 24q148 0 222.5 -185t74.5 -553q0 -284 -35 -456.5t-110 -262.5q-50 -60 -105.5 -93.5t-105.5 -33.5q-119 0 -181.5 211.5t-62.5 616.5zM143 1714q28 80 54.5 107.5t70.5 27.5h4q26 -9 63 -42.5t66 -33.5h10l74 90 q27 -6 44.5 -20.5t31.5 -42.5q-46 -90 -79 -116.5t-85 -26.5q-38 0 -69 14t-62 45l-43 -57q-28 8 -47.5 21.5t-32.5 33.5zM227 799q0 -284 17 -432.5t55 -221.5h6q86 0 125 156t39 500q0 331 -32 465.5t-107 134.5q-16 0 -31 -7t-29 -20q-23 -81 -33 -208.5t-10 -366.5z" />
<glyph unicode="&#xd6;" horiz-adv-x="694" d="M47 805q0 295 27.5 429t93.5 220q45 59 85.5 83t96.5 24q148 0 222.5 -185t74.5 -553q0 -284 -35 -456.5t-110 -262.5q-50 -60 -105.5 -93.5t-105.5 -33.5q-119 0 -181.5 211.5t-62.5 616.5zM160 1751q0 15 3 33t11 49q26 4 45.5 6t32.5 2q14 0 50 -6q9 -1 15 -2 q2 -15 3 -27t1 -23q0 -31 -4 -52.5t-14 -43.5q-28 -9 -40 -11.5t-24 -2.5q-15 0 -30.5 1.5t-32.5 4.5q-9 23 -12.5 40t-3.5 32zM227 799q0 -284 17 -432.5t55 -221.5h6q86 0 125 156t39 500q0 331 -32 465.5t-107 134.5q-16 0 -31 -7t-29 -20q-23 -81 -33 -208.5t-10 -366.5 zM379 1728q0 30 4.5 56t14.5 51q11 2 22 3t20 1q21 0 46 -3.5t54 -10.5q2 -9 2.5 -19t0.5 -27q0 -14 -5.5 -39.5t-15.5 -60.5q-10 -2 -21 -3t-26 -1q-17 0 -38 3.5t-56 13.5q0 5 -1 17.5t-1 18.5z" />
<glyph unicode="&#xd7;" horiz-adv-x="1706" d="M301 135l475 475l-475 477l80 82l477 -477l475 477l82 -82l-475 -477l475 -475l-82 -82l-475 475l-477 -475z" />
<glyph unicode="&#xd8;" horiz-adv-x="694" d="M47 805q0 295 27.5 429t93.5 220q44 59 84.5 83t99.5 24q11 0 25 -2.5t35 -7.5l30 178q18 8 30 11t22 3q13 0 24.5 -1t24.5 -3l49 -41q-16 -53 -29 -114t-24 -138q56 -91 82 -242t26 -395q0 -452 -72 -642t-241 -190h-45q-10 -59 -22.5 -130.5t-12.5 -73.5q-3 -1 -10 -3 q-38 -10 -58 -10q-23 0 -42.5 7.5t-43.5 23.5l62 275q-57 89 -86 274.5t-29 464.5zM227 750q0 -308 30 -470.5t87 -162.5q69 0 97 147.5t28 536.5q0 331 -32 465.5t-107 134.5q-16 0 -31 -7t-29 -20q-23 -80 -33 -205t-10 -419z" />
<glyph unicode="&#xd9;" horiz-adv-x="696" d="M72 1550q20 4 42 6.5t46 2.5q24 -1 44 -5.5t44 -15.5v-467v-446v-109q0 -244 18 -309.5t66 -65.5q3 0 8.5 1t18.5 4q46 52 68 194t22 389q0 175 -21 710l-2 60q7 30 33 42.5t84 12.5q11 0 36 -11q7 -3 11 -5q13 -273 17.5 -426.5t4.5 -280.5q0 -445 -40 -596t-138 -239 q-26 -11 -49 -17t-43 -6q-156 0 -212 100t-56 539v332q0 128 -0.5 281.5t-1.5 324.5zM209 1902q24 15 44 22t38 7q9 0 28 -6q9 -3 14 -4q19 -71 47 -131.5t66 -112.5q-17 -21 -39.5 -33t-54.5 -18q-46 50 -81.5 118t-61.5 158z" />
<glyph unicode="&#xda;" horiz-adv-x="696" d="M72 1550q20 4 42 6.5t46 2.5q24 -1 44 -5.5t44 -15.5v-467v-446v-109q0 -244 18 -309.5t66 -65.5q3 0 8.5 1t18.5 4q46 52 68 194t22 389q0 175 -21 710l-2 60q7 30 33 42.5t84 12.5q11 0 36 -11q7 -3 11 -5q13 -273 17.5 -426.5t4.5 -280.5q0 -445 -40 -596t-138 -239 q-26 -11 -49 -17t-43 -6q-156 0 -212 100t-56 539v332q0 128 -0.5 281.5t-1.5 324.5zM246 1681q10 17 33 55q68 115 116 191q8 1 15.5 1.5t15.5 0.5q15 0 34.5 -6.5t53.5 -22.5q-50 -105 -96.5 -173.5t-85.5 -92.5q-28 3 -49 14.5t-37 32.5z" />
<glyph unicode="&#xdb;" horiz-adv-x="696" d="M72 1550q20 4 42 6.5t46 2.5q24 -1 44 -5.5t44 -15.5v-467v-446v-109q0 -244 18 -309.5t66 -65.5q3 0 8.5 1t18.5 4q46 52 68 194t22 389q0 175 -21 710l-2 60q7 30 33 42.5t84 12.5q11 0 36 -11q7 -3 11 -5q13 -273 17.5 -426.5t4.5 -280.5q0 -445 -40 -596t-138 -239 q-26 -11 -49 -17t-43 -6q-156 0 -212 100t-56 539v332q0 128 -0.5 281.5t-1.5 324.5zM168 1675q39 45 74.5 105t71.5 143q9 1 25 3q32 5 40 5q15 0 40 -10h1q22 -74 51 -134t65 -110q-17 -20 -35.5 -30t-43.5 -13q-29 20 -53.5 50t-47.5 75q-19 -33 -44 -63t-57 -58 q-28 3 -49 12t-38 25z" />
<glyph unicode="&#xdc;" horiz-adv-x="696" d="M72 1550q20 4 42 6.5t46 2.5q24 -1 44 -5.5t44 -15.5v-467v-446v-109q0 -244 18 -309.5t66 -65.5q3 0 8.5 1t18.5 4q46 52 68 194t22 389q0 175 -21 710l-2 60q7 30 33 42.5t84 12.5q11 0 36 -11q7 -3 11 -5q13 -273 17.5 -426.5t4.5 -280.5q0 -445 -40 -596t-138 -239 q-26 -11 -49 -17t-43 -6q-156 0 -212 100t-56 539v332q0 128 -0.5 281.5t-1.5 324.5zM160 1751q0 15 3 33t11 49q26 4 45.5 6t32.5 2q14 0 50 -6q9 -1 15 -2q2 -15 3 -27t1 -23q0 -31 -4 -52.5t-14 -43.5q-28 -9 -40 -11.5t-24 -2.5q-15 0 -30.5 1.5t-32.5 4.5 q-9 23 -12.5 40t-3.5 32zM379 1728q0 30 4.5 56t14.5 51q11 2 22 3t20 1q21 0 46 -3.5t54 -10.5q2 -9 2.5 -19t0.5 -27q0 -14 -5.5 -39.5t-15.5 -60.5q-10 -2 -21 -3t-26 -1q-17 0 -38 3.5t-56 13.5q0 5 -1 17.5t-1 18.5z" />
<glyph unicode="&#xdd;" horiz-adv-x="502" d="M-16 1493q17 29 41 44t55 15q5 0 21 -2q8 -1 14 -2q42 -108 76 -223.5t61 -239.5q38 181 69.5 288t67.5 183q3 1 9 1q31 4 46 4q13 0 37.5 -7.5t55.5 -19.5q-30 -57 -84.5 -238.5t-114.5 -425.5l-8 -303q-5 -185 -7 -322t-4 -266l-90 -14q-21 14 -40.5 21t-40.5 10 q8 308 11 438t3 215q0 71 -2 132t-6 116q-28 115 -67.5 253t-102.5 343zM150 1681q10 17 33 55q68 115 116 191q8 1 15.5 1.5t15.5 0.5q15 0 34.5 -6.5t53.5 -22.5q-50 -105 -96.5 -173.5t-85.5 -92.5q-28 3 -49 14.5t-37 32.5z" />
<glyph unicode="&#xde;" horiz-adv-x="606" d="M70 1530q43 7 82.5 10.5t76.5 3.5h27q-1 -74 -1.5 -141.5t-0.5 -136.5q170 -2 234.5 -104t64.5 -406q0 -241 -45 -339t-150 -98q-13 0 -36 5t-64 15q0 -89 2 -173.5t6 -163.5q-30 -7 -55 -10.5t-45 -3.5q-19 0 -38 3.5t-44 12.5q1 199 1.5 377.5t0.5 353.5 q0 277 -4 458.5t-12 336.5zM252 889q0 -121 1 -225t4 -179q27 -5 45.5 -7.5t29.5 -2.5q27 0 38 60.5t11 244.5q0 216 -26 279t-97 63h-6v-233z" />
<glyph unicode="&#xdf;" horiz-adv-x="735" d="M-31 1014q5 33 15.5 62.5t27.5 58.5l84 8q0 9 1 26q8 360 140 385q170 -9 250 -74.5t80 -195.5q0 -74 -30.5 -128t-96.5 -97q27 -167 128 -373q7 -13 10 -19q6 -13 19 -38q114 -229 114 -342q0 -80 -74.5 -174.5t-181.5 -145.5q-32 5 -47 18.5t-23 45.5q16 47 78.5 133 t62.5 145q0 39 -57 167.5t-88 215.5q-38 110 -55.5 196.5t-20.5 169.5q57 59 82 107.5t25 98.5q0 16 -4 37t-15 61q-30 14 -49.5 19t-38.5 5l-35 -14q-10 -74 -15 -152t-5 -186q0 -240 8.5 -508.5t26.5 -557.5q-10 -21 -22.5 -35.5t-31.5 -26.5h-14q-31 0 -56 7.5t-46 23.5 q-14 264 -20.5 507.5t-6.5 470.5v91q-2 -1 -5 -1q-28 -4 -40 -4q-18 0 -36.5 3.5t-37.5 9.5z" />
<glyph unicode="&#xe0;" horiz-adv-x="602" d="M45 1014q0 4 3 10t11 16q57 34 118 66t124 61q125 -24 173 -135.5t48 -529.5q0 -139 -7 -459q-1 -33 -1 -49q-21 -9 -37 -13t-31 -4q-16 0 -33.5 5t-33.5 14l-8 47q-42 -20 -84.5 -31.5t-73.5 -11.5q-82 0 -122 81.5t-40 252.5q0 199 63.5 286t207.5 87h32 q-1 124 -29 204t-67 80q-9 0 -23.5 -5t-29.5 -13l-74 -41h-6q-32 0 -56 26t-24 56zM162 1505q24 15 44 22t38 7q9 0 28 -6q9 -3 14 -4q19 -71 47 -131.5t66 -112.5q-17 -21 -39.5 -33t-54.5 -18q-46 50 -81.5 118t-61.5 158zM209 373q0 -124 22 -162.5t80 -38.5q9 0 35 5 q10 2 16 3q0 93 -1.5 186.5t-4.5 190.5q-5 1 -11 1.5t-17 0.5q-59 0 -89 -47t-30 -139z" />
<glyph unicode="&#xe1;" horiz-adv-x="602" d="M45 1014q0 4 3 10t11 16q57 34 118 66t124 61q125 -24 173 -135.5t48 -529.5q0 -139 -7 -459q-1 -33 -1 -49q-21 -9 -37 -13t-31 -4q-16 0 -33.5 5t-33.5 14l-8 47q-42 -20 -84.5 -31.5t-73.5 -11.5q-82 0 -122 81.5t-40 252.5q0 199 63.5 286t207.5 87h32 q-1 124 -29 204t-67 80q-9 0 -23.5 -5t-29.5 -13l-74 -41h-6q-32 0 -56 26t-24 56zM199 1284q10 17 33 55q68 115 116 191q8 1 15.5 1.5t15.5 0.5q15 0 34.5 -6.5t53.5 -22.5q-50 -105 -96.5 -173.5t-85.5 -92.5q-28 3 -49 14.5t-37 32.5zM209 373q0 -124 22 -162.5 t80 -38.5q9 0 35 5q10 2 16 3q0 93 -1.5 186.5t-4.5 190.5q-5 1 -11 1.5t-17 0.5q-59 0 -89 -47t-30 -139z" />
<glyph unicode="&#xe2;" horiz-adv-x="602" d="M45 1014q0 4 3 10t11 16q57 34 118 66t124 61q125 -24 173 -135.5t48 -529.5q0 -139 -7 -459q-1 -33 -1 -49q-21 -9 -37 -13t-31 -4q-16 0 -33.5 5t-33.5 14l-8 47q-42 -20 -84.5 -31.5t-73.5 -11.5q-82 0 -122 81.5t-40 252.5q0 199 63.5 286t207.5 87h32 q-1 124 -29 204t-67 80q-9 0 -23.5 -5t-29.5 -13l-74 -41h-6q-32 0 -56 26t-24 56zM121 1278q39 45 74.5 105t71.5 143q9 1 25 3q32 5 40 5q15 0 40 -10h1q22 -74 51 -134t65 -110q-17 -20 -35.5 -30t-43.5 -13q-29 20 -53.5 50t-47.5 75q-19 -33 -44 -63t-57 -58 q-28 3 -49 12t-38 25zM209 373q0 -124 22 -162.5t80 -38.5q9 0 35 5q10 2 16 3q0 93 -1.5 186.5t-4.5 190.5q-5 1 -11 1.5t-17 0.5q-59 0 -89 -47t-30 -139z" />
<glyph unicode="&#xe3;" horiz-adv-x="602" d="M45 1014q0 4 3 10t11 16q57 34 118 66t124 61q125 -24 173 -135.5t48 -529.5q0 -139 -7 -459q-1 -33 -1 -49q-21 -9 -37 -13t-31 -4q-16 0 -33.5 5t-33.5 14l-8 47q-42 -20 -84.5 -31.5t-73.5 -11.5q-82 0 -122 81.5t-40 252.5q0 199 63.5 286t207.5 87h32 q-1 124 -29 204t-67 80q-9 0 -23.5 -5t-29.5 -13l-74 -41h-6q-32 0 -56 26t-24 56zM96 1317q28 80 54.5 107.5t70.5 27.5h4q26 -9 63 -42.5t66 -33.5h10l74 90q27 -6 44.5 -20.5t31.5 -42.5q-46 -90 -79 -116.5t-85 -26.5q-38 0 -69 14t-62 45l-43 -57q-28 8 -47.5 21.5 t-32.5 33.5zM209 373q0 -124 22 -162.5t80 -38.5q9 0 35 5q10 2 16 3q0 93 -1.5 186.5t-4.5 190.5q-5 1 -11 1.5t-17 0.5q-59 0 -89 -47t-30 -139z" />
<glyph unicode="&#xe4;" horiz-adv-x="602" d="M45 1014q0 4 3 10t11 16q57 34 118 66t124 61q125 -24 173 -135.5t48 -529.5q0 -139 -7 -459q-1 -33 -1 -49q-21 -9 -37 -13t-31 -4q-16 0 -33.5 5t-33.5 14l-8 47q-42 -20 -84.5 -31.5t-73.5 -11.5q-82 0 -122 81.5t-40 252.5q0 199 63.5 286t207.5 87h32 q-1 124 -29 204t-67 80q-9 0 -23.5 -5t-29.5 -13l-74 -41h-6q-32 0 -56 26t-24 56zM113 1354q0 15 3 33t11 49q26 4 45.5 6t32.5 2q14 0 50 -6q9 -1 15 -2q2 -15 3 -27t1 -23q0 -31 -4 -52.5t-14 -43.5q-28 -9 -40 -11.5t-24 -2.5q-15 0 -30.5 1.5t-32.5 4.5q-9 23 -12.5 40 t-3.5 32zM209 373q0 -124 22 -162.5t80 -38.5q9 0 35 5q10 2 16 3q0 93 -1.5 186.5t-4.5 190.5q-5 1 -11 1.5t-17 0.5q-59 0 -89 -47t-30 -139zM332 1331q0 30 4.5 56t14.5 51q11 2 22 3t20 1q21 0 46 -3.5t54 -10.5q2 -9 2.5 -19t0.5 -27q0 -14 -5.5 -39.5t-15.5 -60.5 q-10 -2 -21 -3t-26 -1q-17 0 -38 3.5t-56 13.5q0 5 -1 17.5t-1 18.5z" />
<glyph unicode="&#xe5;" horiz-adv-x="602" d="M45 1014q0 4 3 10t11 16q57 34 118 66t124 61q125 -24 173 -135.5t48 -529.5q0 -139 -7 -459q-1 -33 -1 -49q-21 -9 -37 -13t-31 -4q-16 0 -33.5 5t-33.5 14l-8 47q-42 -20 -84.5 -31.5t-73.5 -11.5q-82 0 -122 81.5t-40 252.5q0 199 63.5 286t207.5 87h32 q-1 124 -29 204t-67 80q-9 0 -23.5 -5t-29.5 -13l-74 -41h-6q-32 0 -56 26t-24 56zM111 1401q0 78 57.5 136t134.5 58q82 0 134 -52.5t52 -133.5q0 -80 -57 -136t-139 -56q-78 0 -130 52t-52 132zM203 1399q0 -40 26 -66t66 -26q44 0 73 27.5t29 68.5q0 21 -6 39t-20 39 q-17 11 -32 15.5t-32 4.5q-47 0 -75.5 -28.5t-28.5 -73.5zM209 373q0 -124 22 -162.5t80 -38.5q9 0 35 5q10 2 16 3q0 93 -1.5 186.5t-4.5 190.5q-5 1 -11 1.5t-17 0.5q-59 0 -89 -47t-30 -139z" />
<glyph unicode="&#xe6;" horiz-adv-x="895" d="M31 365q0 100 24.5 174t79.5 145q36 27 87.5 39t141.5 14q1 64 -8.5 122t-29.5 116l-82 26q-23 -22 -53 -39t-72 -30q-34 8 -49 24t-15 43v6l8 9q142 151 224 151q57 0 109 -30.5t91 -87.5q45 54 87 80.5t93 33.5q84 -11 142.5 -101.5t58.5 -209.5q0 -60 -20.5 -117.5 t-63.5 -114.5q-26 -4 -53 -6t-57 -2q-20 0 -61 3t-89 7q-1 -22 -1.5 -47.5t-0.5 -72.5q0 -137 26 -213.5t87 -128.5q3 -1 8 -1q23 -3 35 -3q40 0 66.5 14.5t42.5 44.5q34 -4 49 -14.5t18 -32.5q-46 -103 -78.5 -142.5t-68.5 -39.5q-49 0 -105 17t-108 48q-25 19 -41.5 40 t-28.5 46q-56 -73 -99 -102.5t-108 -48.5q-100 25 -143 112.5t-43 268.5zM197 397q0 -103 14.5 -160t46.5 -83q35 4 64.5 19t62.5 46q-12 44 -17.5 91.5t-5.5 129.5q0 43 1 82t1 80q-4 1 -11 1.5t-19 0.5q-25 0 -48.5 -5.5t-47.5 -16.5q-22 -49 -31.5 -93.5t-9.5 -91.5z M524 741q21 1 46.5 2.5t29.5 1.5q14 0 39 -1t37 -1q16 29 23.5 51t7.5 42q0 69 -21.5 112t-64.5 60l-58 -13q-20 -64 -29.5 -119.5t-9.5 -105.5v-29z" />
<glyph unicode="&#xe7;" horiz-adv-x="473" d="M45 535q0 219 43 375t121 223q28 13 53.5 19.5t54.5 6.5q48 0 80 -9.5t54 -29.5v-18q0 -28 -8 -57.5t-25 -63.5q-34 18 -53 24.5t-35 6.5q-59 0 -89 -111.5t-30 -331.5q0 -164 25.5 -266.5t74.5 -136.5q7 -1 17 -1.5t28 -0.5q25 0 46 2t40 6q8 -21 11.5 -37.5t3.5 -30.5 q0 -2 -1 -8t-1 -10q-11 -47 -51.5 -79t-90.5 -32q-122 0 -195 151t-73 409zM152 -317q34 82 53.5 160.5t26.5 156.5q16 5 29.5 7.5t23.5 2.5t27 -2t53 -8q-7 -101 -33 -182.5t-76 -153.5q-2 0 -7 -1q-17 -3 -22 -3q-13 0 -36.5 11t-38.5 12z" />
<glyph unicode="&#xe8;" horiz-adv-x="551" d="M45 498q0 282 86.5 472.5t206.5 190.5q80 0 130 -93t50 -245q0 -45 -6.5 -87t-19.5 -83q-26 -5 -45 -7.5t-35 -2.5q-4 0 -64.5 3.5t-117.5 4.5q-6 -66 -7.5 -99t-1.5 -60q0 -209 47.5 -283t182.5 -74h20l12 1t23 1q1 -9 1.5 -17t0.5 -16q0 -57 -42.5 -93t-107.5 -36 q-154 0 -233.5 133t-79.5 390zM189 1505q24 15 44 22t38 7q9 0 28 -6q9 -3 14 -4q19 -71 47 -131.5t66 -112.5q-17 -21 -39.5 -33t-54.5 -18q-46 50 -81.5 118t-61.5 158zM240 762l136 12q2 23 3.5 47.5t1.5 26.5q0 75 -15 108t-49 33q-28 0 -46 -51.5t-31 -175.5z" />
<glyph unicode="&#xe9;" horiz-adv-x="551" d="M45 498q0 282 86.5 472.5t206.5 190.5q80 0 130 -93t50 -245q0 -45 -6.5 -87t-19.5 -83q-26 -5 -45 -7.5t-35 -2.5q-4 0 -64.5 3.5t-117.5 4.5q-6 -66 -7.5 -99t-1.5 -60q0 -209 47.5 -283t182.5 -74h20l12 1t23 1q1 -9 1.5 -17t0.5 -16q0 -57 -42.5 -93t-107.5 -36 q-154 0 -233.5 133t-79.5 390zM226 1284q10 17 33 55q68 115 116 191q8 1 15.5 1.5t15.5 0.5q15 0 34.5 -6.5t53.5 -22.5q-50 -105 -96.5 -173.5t-85.5 -92.5q-28 3 -49 14.5t-37 32.5zM240 762l136 12q2 23 3.5 47.5t1.5 26.5q0 75 -15 108t-49 33q-28 0 -46 -51.5 t-31 -175.5z" />
<glyph unicode="&#xea;" horiz-adv-x="551" d="M45 498q0 282 86.5 472.5t206.5 190.5q80 0 130 -93t50 -245q0 -45 -6.5 -87t-19.5 -83q-26 -5 -45 -7.5t-35 -2.5q-4 0 -64.5 3.5t-117.5 4.5q-6 -66 -7.5 -99t-1.5 -60q0 -209 47.5 -283t182.5 -74h20l12 1t23 1q1 -9 1.5 -17t0.5 -16q0 -57 -42.5 -93t-107.5 -36 q-154 0 -233.5 133t-79.5 390zM148 1278q39 45 74.5 105t71.5 143q9 1 25 3q32 5 40 5q15 0 40 -10h1q22 -74 51 -134t65 -110q-17 -20 -35.5 -30t-43.5 -13q-29 20 -53.5 50t-47.5 75q-19 -33 -44 -63t-57 -58q-28 3 -49 12t-38 25zM240 762l136 12q2 23 3.5 47.5t1.5 26.5 q0 75 -15 108t-49 33q-28 0 -46 -51.5t-31 -175.5z" />
<glyph unicode="&#xeb;" horiz-adv-x="551" d="M45 498q0 282 86.5 472.5t206.5 190.5q80 0 130 -93t50 -245q0 -45 -6.5 -87t-19.5 -83q-26 -5 -45 -7.5t-35 -2.5q-4 0 -64.5 3.5t-117.5 4.5q-6 -66 -7.5 -99t-1.5 -60q0 -209 47.5 -283t182.5 -74h20l12 1t23 1q1 -9 1.5 -17t0.5 -16q0 -57 -42.5 -93t-107.5 -36 q-154 0 -233.5 133t-79.5 390zM140 1354q0 15 3 33t11 49q26 4 45.5 6t32.5 2q14 0 50 -6q9 -1 15 -2q2 -15 3 -27t1 -23q0 -31 -4 -52.5t-14 -43.5q-28 -9 -40 -11.5t-24 -2.5q-15 0 -30.5 1.5t-32.5 4.5q-9 23 -12.5 40t-3.5 32zM240 762l136 12q2 23 3.5 47.5t1.5 26.5 q0 75 -15 108t-49 33q-28 0 -46 -51.5t-31 -175.5zM359 1331q0 30 4.5 56t14.5 51q11 2 22 3t20 1q21 0 46 -3.5t54 -10.5q2 -9 2.5 -19t0.5 -27q0 -14 -5.5 -39.5t-15.5 -60.5q-10 -2 -21 -3t-26 -1q-17 0 -38 3.5t-56 13.5q0 5 -1 17.5t-1 18.5z" />
<glyph unicode="&#xec;" horiz-adv-x="336" d="M29 1505q24 15 44 22t38 7q9 0 28 -6q9 -3 14 -4q19 -71 47 -131.5t66 -112.5q-17 -21 -39.5 -33t-54.5 -18q-46 50 -81.5 118t-61.5 158zM82 596q0 85 3 204t11 339q19 6 37.5 9t36.5 3q19 0 36 -2t35 -6q6 -215 8.5 -408.5t2.5 -374.5q0 -58 -1 -173.5t-1 -171.5 q-23 -16 -46 -23.5t-46 -7.5q-13 0 -26 3t-36 11q-7 178 -10.5 323t-3.5 275z" />
<glyph unicode="&#xed;" horiz-adv-x="336" d="M66 1284q10 17 33 55q68 115 116 191q8 1 15.5 1.5t15.5 0.5q15 0 34.5 -6.5t53.5 -22.5q-50 -105 -96.5 -173.5t-85.5 -92.5q-28 3 -49 14.5t-37 32.5zM82 596q0 85 3 204t11 339q19 6 37.5 9t36.5 3q19 0 36 -2t35 -6q6 -215 8.5 -408.5t2.5 -374.5q0 -58 -1 -173.5 t-1 -171.5q-23 -16 -46 -23.5t-46 -7.5q-13 0 -26 3t-36 11q-7 178 -10.5 323t-3.5 275z" />
<glyph unicode="&#xee;" horiz-adv-x="336" d="M-12 1278q39 45 74.5 105t71.5 143q9 1 25 3q32 5 40 5q15 0 40 -10h1q22 -74 51 -134t65 -110q-17 -20 -35.5 -30t-43.5 -13q-29 20 -53.5 50t-47.5 75q-19 -33 -44 -63t-57 -58q-28 3 -49 12t-38 25zM82 596q0 85 3 204t11 339q19 6 37.5 9t36.5 3q19 0 36 -2t35 -6 q6 -215 8.5 -408.5t2.5 -374.5q0 -58 -1 -173.5t-1 -171.5q-23 -16 -46 -23.5t-46 -7.5q-13 0 -26 3t-36 11q-7 178 -10.5 323t-3.5 275z" />
<glyph unicode="&#xef;" horiz-adv-x="336" d="M-20 1354q0 15 3 33t11 49q26 4 45.5 6t32.5 2q14 0 50 -6q9 -1 15 -2q2 -15 3 -27t1 -23q0 -31 -4 -52.5t-14 -43.5q-28 -9 -40 -11.5t-24 -2.5q-15 0 -30.5 1.5t-32.5 4.5q-9 23 -12.5 40t-3.5 32zM82 596q0 85 3 204t11 339q19 6 37.5 9t36.5 3q19 0 36 -2t35 -6 q6 -215 8.5 -408.5t2.5 -374.5q0 -58 -1 -173.5t-1 -171.5q-23 -16 -46 -23.5t-46 -7.5q-13 0 -26 3t-36 11q-7 178 -10.5 323t-3.5 275zM199 1331q0 30 4.5 56t14.5 51q11 2 22 3t20 1q21 0 46 -3.5t54 -10.5q2 -9 2.5 -19t0.5 -27q0 -14 -5.5 -39.5t-15.5 -60.5 q-10 -2 -21 -3t-26 -1q-17 0 -38 3.5t-56 13.5q0 5 -1 17.5t-1 18.5z" />
<glyph unicode="&#xf0;" horiz-adv-x="592" d="M49 543q0 257 64 378t198 121l4 1q-5 12 -28 66t-39 87q-45 -14 -75.5 -22t-56.5 -12q-11 13 -17.5 26.5t-8.5 29.5l8 25q21 12 46 24t59 27l-46.5 111t-29.5 70q14 26 31 39t45 18l43 -12q29 -61 51.5 -105t36.5 -67q36 14 65.5 21.5t55.5 8.5q16 -11 22 -23t6 -32v-10 q-17 -30 -80 -57q-12 -5 -20 -9q90 -188 126 -336.5t36 -312.5q0 -282 -81 -452.5t-210 -170.5q-107 0 -156 134.5t-49 433.5zM215 539q0 -213 19 -305.5t61 -92.5q44 0 64 97.5t20 316.5q0 102 -7 185t-22 167q-10 1 -20 1.5t-25 0.5q-50 0 -70 -79.5t-20 -290.5z" />
<glyph unicode="&#xf1;" horiz-adv-x="649" d="M55 1067q27 31 61.5 48t80.5 21l18 -57q41 17 84 36.5t88 41.5q9 2 18.5 3t22.5 1q75 0 109 -63.5t34 -206.5v-234q0 -214 4 -367.5t13 -266.5q-25 -17 -48.5 -25t-50.5 -8q-23 0 -46.5 6.5t-49.5 19.5q6 145 9.5 283t3.5 270v43q0 254 -16.5 311.5t-63.5 57.5 q-29 0 -54.5 -15.5t-40.5 -41.5q7 -121 10 -242.5t3 -247.5q0 -78 -1 -214.5t-1 -194.5q-15 -19 -35 -27t-53 -8q-26 0 -49 6t-48 20q11 178 16 349t5 337q0 122 -5.5 205.5t-17.5 159.5zM121 1317q28 80 54.5 107.5t70.5 27.5h4q26 -9 63 -42.5t66 -33.5h10l74 90 q27 -6 44.5 -20.5t31.5 -42.5q-46 -90 -79 -116.5t-85 -26.5q-38 0 -69 14t-62 45l-43 -57q-28 8 -47.5 21.5t-32.5 33.5z" />
<glyph unicode="&#xf2;" horiz-adv-x="592" d="M49 535q0 314 73.5 470t221.5 156q103 0 151 -131.5t48 -415.5q0 -289 -80 -464t-209 -175q-110 0 -157.5 128.5t-47.5 431.5zM174 1505q24 15 44 22t38 7q9 0 28 -6q9 -3 14 -4q19 -71 47 -131.5t66 -112.5q-17 -21 -39.5 -33t-54.5 -18q-46 50 -81.5 118t-61.5 158z M215 588q0 -252 18 -349.5t62 -97.5q46 0 64 97t18 376q0 207 -18.5 297t-61.5 99q-41 -19 -61.5 -123.5t-20.5 -298.5z" />
<glyph unicode="&#xf3;" horiz-adv-x="592" d="M49 535q0 314 73.5 470t221.5 156q103 0 151 -131.5t48 -415.5q0 -289 -80 -464t-209 -175q-110 0 -157.5 128.5t-47.5 431.5zM211 1284q10 17 33 55q68 115 116 191q8 1 15.5 1.5t15.5 0.5q15 0 34.5 -6.5t53.5 -22.5q-50 -105 -96.5 -173.5t-85.5 -92.5q-28 3 -49 14.5 t-37 32.5zM215 588q0 -252 18 -349.5t62 -97.5q46 0 64 97t18 376q0 207 -18.5 297t-61.5 99q-41 -19 -61.5 -123.5t-20.5 -298.5z" />
<glyph unicode="&#xf4;" horiz-adv-x="592" d="M49 535q0 314 73.5 470t221.5 156q103 0 151 -131.5t48 -415.5q0 -289 -80 -464t-209 -175q-110 0 -157.5 128.5t-47.5 431.5zM133 1278q39 45 74.5 105t71.5 143q9 1 25 3q32 5 40 5q15 0 40 -10h1q22 -74 51 -134t65 -110q-17 -20 -35.5 -30t-43.5 -13q-29 20 -53.5 50 t-47.5 75q-19 -33 -44 -63t-57 -58q-28 3 -49 12t-38 25zM215 588q0 -252 18 -349.5t62 -97.5q46 0 64 97t18 376q0 207 -18.5 297t-61.5 99q-41 -19 -61.5 -123.5t-20.5 -298.5z" />
<glyph unicode="&#xf5;" horiz-adv-x="592" d="M49 535q0 314 73.5 470t221.5 156q103 0 151 -131.5t48 -415.5q0 -289 -80 -464t-209 -175q-110 0 -157.5 128.5t-47.5 431.5zM108 1317q28 80 54.5 107.5t70.5 27.5h4q26 -9 63 -42.5t66 -33.5h10l74 90q27 -6 44.5 -20.5t31.5 -42.5q-46 -90 -79 -116.5t-85 -26.5 q-38 0 -69 14t-62 45l-43 -57q-28 8 -47.5 21.5t-32.5 33.5zM215 588q0 -252 18 -349.5t62 -97.5q46 0 64 97t18 376q0 207 -18.5 297t-61.5 99q-41 -19 -61.5 -123.5t-20.5 -298.5z" />
<glyph unicode="&#xf6;" horiz-adv-x="592" d="M49 535q0 314 73.5 470t221.5 156q103 0 151 -131.5t48 -415.5q0 -289 -80 -464t-209 -175q-110 0 -157.5 128.5t-47.5 431.5zM125 1354q0 15 3 33t11 49q26 4 45.5 6t32.5 2q14 0 50 -6q9 -1 15 -2q2 -15 3 -27t1 -23q0 -31 -4 -52.5t-14 -43.5q-28 -9 -40 -11.5 t-24 -2.5q-15 0 -30.5 1.5t-32.5 4.5q-9 23 -12.5 40t-3.5 32zM215 588q0 -252 18 -349.5t62 -97.5q46 0 64 97t18 376q0 207 -18.5 297t-61.5 99q-41 -19 -61.5 -123.5t-20.5 -298.5zM344 1331q0 30 4.5 56t14.5 51q11 2 22 3t20 1q21 0 46 -3.5t54 -10.5q2 -9 2.5 -19 t0.5 -27q0 -14 -5.5 -39.5t-15.5 -60.5q-10 -2 -21 -3t-26 -1q-17 0 -38 3.5t-56 13.5q0 5 -1 17.5t-1 18.5z" />
<glyph unicode="&#xf7;" horiz-adv-x="1706" d="M254 553v117h1198v-117h-1198zM739 250q0 48 34 81.5t81 33.5t81 -34t34 -81t-33.5 -81t-81.5 -34t-81.5 33.5t-33.5 81.5zM739 971q0 47 34 80.5t81 33.5q48 0 81.5 -33.5t33.5 -80.5q0 -48 -33.5 -81.5t-81.5 -33.5q-49 0 -82 33.5t-33 81.5z" />
<glyph unicode="&#xf8;" horiz-adv-x="606" d="M45 512q0 295 67.5 443t219.5 192l16 155q26 12 47 17.5t37 5.5q17 0 32.5 -4.5t30.5 -13.5q-11 -78 -17 -135.5t-9 -106.5q42 -62 68 -206t26 -324q0 -236 -71.5 -391.5t-178.5 -163.5l-10 -160q-30 -15 -51 -22t-37 -7q-13 0 -25 6t-26 21l22 205q-72 44 -106.5 162.5 t-34.5 326.5zM209 475q0 -147 25.5 -216.5t84.5 -90.5q45 25 62.5 76t17.5 174q0 243 -27 381.5t-80 158.5q-43 -7 -63 -121t-20 -362z" />
<glyph unicode="&#xf9;" horiz-adv-x="631" d="M57 1128q25 12 47 17.5t43 5.5t43.5 -6.5t51.5 -22.5q-2 -81 -3 -209.5t-1 -283.5v-45q0 -244 14 -320t51 -104h12q15 0 28.5 2.5t28.5 7.5q7 77 10 157t3 177q0 177 -5 337.5t-15 307.5q21 9 42 13.5t42 4.5q24 0 49 -6.5t55 -21.5v-78q0 -11 -1 -67q-5 -306 -5 -617 q0 -147 2.5 -223t7.5 -143q-20 -14 -44.5 -19.5t-66.5 -5.5h-30q-13 22 -21 40t-12 33q-34 -32 -65.5 -50.5t-51.5 -18.5q-1 0 -6.5 1t-9.5 1q-171 43 -177 614q-4 320 -16 522zM176 1505q24 15 44 22t38 7q9 0 28 -6q9 -3 14 -4q19 -71 47 -131.5t66 -112.5 q-17 -21 -39.5 -33t-54.5 -18q-46 50 -81.5 118t-61.5 158z" />
<glyph unicode="&#xfa;" horiz-adv-x="631" d="M57 1128q25 12 47 17.5t43 5.5t43.5 -6.5t51.5 -22.5q-2 -81 -3 -209.5t-1 -283.5v-45q0 -244 14 -320t51 -104h12q15 0 28.5 2.5t28.5 7.5q7 77 10 157t3 177q0 177 -5 337.5t-15 307.5q21 9 42 13.5t42 4.5q24 0 49 -6.5t55 -21.5v-78q0 -11 -1 -67q-5 -306 -5 -617 q0 -147 2.5 -223t7.5 -143q-20 -14 -44.5 -19.5t-66.5 -5.5h-30q-13 22 -21 40t-12 33q-34 -32 -65.5 -50.5t-51.5 -18.5q-1 0 -6.5 1t-9.5 1q-171 43 -177 614q-4 320 -16 522zM213 1284q10 17 33 55q68 115 116 191q8 1 15.5 1.5t15.5 0.5q15 0 34.5 -6.5t53.5 -22.5 q-50 -105 -96.5 -173.5t-85.5 -92.5q-28 3 -49 14.5t-37 32.5z" />
<glyph unicode="&#xfb;" horiz-adv-x="631" d="M57 1128q25 12 47 17.5t43 5.5t43.5 -6.5t51.5 -22.5q-2 -81 -3 -209.5t-1 -283.5v-45q0 -244 14 -320t51 -104h12q15 0 28.5 2.5t28.5 7.5q7 77 10 157t3 177q0 177 -5 337.5t-15 307.5q21 9 42 13.5t42 4.5q24 0 49 -6.5t55 -21.5v-78q0 -11 -1 -67q-5 -306 -5 -617 q0 -147 2.5 -223t7.5 -143q-20 -14 -44.5 -19.5t-66.5 -5.5h-30q-13 22 -21 40t-12 33q-34 -32 -65.5 -50.5t-51.5 -18.5q-1 0 -6.5 1t-9.5 1q-171 43 -177 614q-4 320 -16 522zM135 1278q39 45 74.5 105t71.5 143q9 1 25 3q32 5 40 5q15 0 40 -10h1q22 -74 51 -134t65 -110 q-17 -20 -35.5 -30t-43.5 -13q-29 20 -53.5 50t-47.5 75q-19 -33 -44 -63t-57 -58q-28 3 -49 12t-38 25z" />
<glyph unicode="&#xfc;" horiz-adv-x="631" d="M57 1128q25 12 47 17.5t43 5.5t43.5 -6.5t51.5 -22.5q-2 -81 -3 -209.5t-1 -283.5v-45q0 -244 14 -320t51 -104h12q15 0 28.5 2.5t28.5 7.5q7 77 10 157t3 177q0 177 -5 337.5t-15 307.5q21 9 42 13.5t42 4.5q24 0 49 -6.5t55 -21.5v-78q0 -11 -1 -67q-5 -306 -5 -617 q0 -147 2.5 -223t7.5 -143q-20 -14 -44.5 -19.5t-66.5 -5.5h-30q-13 22 -21 40t-12 33q-34 -32 -65.5 -50.5t-51.5 -18.5q-1 0 -6.5 1t-9.5 1q-171 43 -177 614q-4 320 -16 522zM127 1354q0 15 3 33t11 49q26 4 45.5 6t32.5 2q14 0 50 -6q9 -1 15 -2q2 -15 3 -27t1 -23 q0 -31 -4 -52.5t-14 -43.5q-28 -9 -40 -11.5t-24 -2.5q-15 0 -30.5 1.5t-32.5 4.5q-9 23 -12.5 40t-3.5 32zM346 1331q0 30 4.5 56t14.5 51q11 2 22 3t20 1q21 0 46 -3.5t54 -10.5q2 -9 2.5 -19t0.5 -27q0 -14 -5.5 -39.5t-15.5 -60.5q-10 -2 -21 -3t-26 -1q-17 0 -38 3.5 t-56 13.5q0 5 -1 17.5t-1 18.5z" />
<glyph unicode="&#xfd;" horiz-adv-x="575" d="M10 1085q25 20 49.5 28.5t67.5 8.5q19 0 33.5 -0.5t29.5 -1.5q28 -158 53 -341t48 -394q36 177 64 368.5t48 399.5q28 6 39.5 8t18.5 2q22 0 48.5 -7.5t61.5 -22.5q-60 -434 -151 -826t-211 -737h-21q-43 0 -79.5 17.5t-73.5 56.5q42 73 78 168t75 237q-32 273 -76.5 532 t-101.5 504zM187 1284q10 17 33 55q68 115 116 191q8 1 15.5 1.5t15.5 0.5q15 0 34.5 -6.5t53.5 -22.5q-50 -105 -96.5 -173.5t-85.5 -92.5q-28 3 -49 14.5t-37 32.5z" />
<glyph unicode="&#xfe;" horiz-adv-x="616" d="M70 1532q21 8 39.5 12t33.5 4q16 0 36.5 -2.5t70.5 -12.5q-5 -117 -8 -218.5t-4 -187.5q27 17 54 25.5t58 8.5q109 0 161 -129.5t52 -398.5q0 -315 -62.5 -486.5t-176.5 -171.5q-21 0 -40.5 8t-43.5 27v-145q0 -77 2.5 -122t6.5 -88q-19 -21 -53.5 -32.5t-78.5 -11.5 q-10 0 -19.5 2t-25.5 8q0 58 2 127.5t2 81.5v705q0 90 1 243.5t1 214.5q0 104 -2 222.5t-6 316.5zM240 524q0 -225 14.5 -304t50.5 -79q48 0 69 109.5t21 363.5q0 215 -21.5 306.5t-70.5 91.5q-35 0 -49 -31t-14 -125v-332z" />
<glyph unicode="&#xff;" horiz-adv-x="575" d="M10 1085q25 20 49.5 28.5t67.5 8.5q19 0 33.5 -0.5t29.5 -1.5q28 -158 53 -341t48 -394q36 177 64 368.5t48 399.5q28 6 39.5 8t18.5 2q22 0 48.5 -7.5t61.5 -22.5q-60 -434 -151 -826t-211 -737h-21q-43 0 -79.5 17.5t-73.5 56.5q42 73 78 168t75 237q-32 273 -76.5 532 t-101.5 504zM101 1354q0 15 3 33t11 49q26 4 45.5 6t32.5 2q14 0 50 -6q9 -1 15 -2q2 -15 3 -27t1 -23q0 -31 -4 -52.5t-14 -43.5q-28 -9 -40 -11.5t-24 -2.5q-15 0 -30.5 1.5t-32.5 4.5q-9 23 -12.5 40t-3.5 32zM320 1331q0 30 4.5 56t14.5 51q11 2 22 3t20 1q21 0 46 -3.5 t54 -10.5q2 -9 2.5 -19t0.5 -27q0 -14 -5.5 -39.5t-15.5 -60.5q-10 -2 -21 -3t-26 -1q-17 0 -38 3.5t-56 13.5q0 5 -1 17.5t-1 18.5z" />
<glyph unicode="&#x152;" horiz-adv-x="944" d="M47 803q0 297 27.5 431t93.5 220q45 60 85.5 83.5t100.5 23.5q34 0 108 -44q9 -5 14 -7q87 18 179 27t189 9h30q14 -21 19.5 -36t5.5 -29q0 -21 -6 -42.5t-21 -49.5h-69q-63 0 -116.5 -10t-102.5 -29q22 -113 32 -177.5t15 -117.5h63q34 0 68 1t76 3q21 -11 32 -26 t11 -34q0 -24 -8.5 -48t-27.5 -48q-18 -1 -39 -1.5t-65 -0.5q-17 0 -44 1.5t-62 4.5q0 -46 1 -94.5l1 -48.5q0 -140 -14 -287.5t-41 -304.5q56 -14 102.5 -20.5t87.5 -6.5q29 0 59 4t66 13q13 -22 19 -38.5t6 -33.5q0 -32 -18.5 -59.5t-53.5 -48.5q-15 -1 -41 -3 q-37 -2 -47 -2q-87 0 -165 8.5t-134 22.5q-25 -16 -54 -23.5t-75 -7.5q-154 0 -220.5 190t-66.5 636zM227 750q0 -308 30 -470.5t87 -162.5q69 0 97 147.5t28 536.5q0 331 -32 465.5t-107 134.5q-16 0 -31 -7t-29 -20q-23 -80 -33 -205t-10 -419z" />
<glyph unicode="&#x153;" horiz-adv-x="903" d="M47 473q0 194 31 353.5t76 220.5q32 43 98.5 80.5t103.5 37.5q33 0 57 -27t58 -108q60 77 108 111.5t93 34.5q84 0 139 -108t55 -271q0 -33 -2 -65.5t-6 -65.5q-42 -23 -88 -33t-117 -10q-46 0 -71.5 0.5t-48.5 1.5q-2 -16 -2.5 -33.5t-0.5 -50.5q0 -178 50.5 -287 t128.5 -109q29 0 47.5 9.5t29.5 29.5q20 -1 32 -7.5t22 -20.5q-34 -84 -94.5 -135.5t-122.5 -51.5q-44 0 -82 30t-95 114q-60 -80 -102.5 -112t-85.5 -32q-94 0 -152.5 137t-58.5 367zM213 393q0 -80 5.5 -134t17.5 -97q8 -3 21 -8q22 -9 30 -9q48 0 72 123.5t24 368.5 q0 78 -8 159t-25 167q-17 17 -28.5 23.5t-22.5 6.5q-44 0 -65 -147t-21 -453zM535 776q26 -14 56 -20t71 -6q18 7 33 19t26 30q-3 106 -26 159.5t-66 53.5q-48 0 -71 -57.5t-23 -178.5z" />
<glyph unicode="&#x178;" horiz-adv-x="502" d="M-16 1493q17 29 41 44t55 15q5 0 21 -2q8 -1 14 -2q42 -108 76 -223.5t61 -239.5q38 181 69.5 288t67.5 183q3 1 9 1q31 4 46 4q13 0 37.5 -7.5t55.5 -19.5q-30 -57 -84.5 -238.5t-114.5 -425.5l-8 -303q-5 -185 -7 -322t-4 -266l-90 -14q-21 14 -40.5 21t-40.5 10 q8 308 11 438t3 215q0 71 -2 132t-6 116q-28 115 -67.5 253t-102.5 343zM64 1751q0 15 3 33t11 49q26 4 45.5 6t32.5 2q14 0 50 -6q9 -1 15 -2q2 -15 3 -27t1 -23q0 -31 -4 -52.5t-14 -43.5q-28 -9 -40 -11.5t-24 -2.5q-15 0 -30.5 1.5t-32.5 4.5q-9 23 -12.5 40t-3.5 32z M283 1728q0 30 4.5 56t14.5 51q11 2 22 3t20 1q21 0 46 -3.5t54 -10.5q2 -9 2.5 -19t0.5 -27q0 -14 -5.5 -39.5t-15.5 -60.5q-10 -2 -21 -3t-26 -1q-17 0 -38 3.5t-56 13.5q0 5 -1 17.5t-1 18.5z" />
<glyph unicode="&#x2c6;" d="M332 1278q39 45 74.5 105t71.5 143q9 1 25 3q32 5 40 5q15 0 40 -10h1q22 -74 51 -134t65 -110q-17 -20 -35.5 -30t-43.5 -13q-29 20 -53.5 50t-47.5 75q-19 -33 -44 -63t-57 -58q-28 3 -49 12t-38 25z" />
<glyph unicode="&#x2dc;" d="M307 1317q28 80 54.5 107.5t70.5 27.5h4q26 -9 63 -42.5t66 -33.5h10l74 90q27 -6 44.5 -20.5t31.5 -42.5q-46 -90 -79 -116.5t-85 -26.5q-38 0 -69 14t-62 45l-43 -57q-28 8 -47.5 21.5t-32.5 33.5z" />
<glyph unicode="&#x2000;" horiz-adv-x="965" />
<glyph unicode="&#x2001;" horiz-adv-x="1931" />
<glyph unicode="&#x2002;" horiz-adv-x="965" />
<glyph unicode="&#x2003;" horiz-adv-x="1931" />
<glyph unicode="&#x2004;" horiz-adv-x="643" />
<glyph unicode="&#x2005;" horiz-adv-x="482" />
<glyph unicode="&#x2006;" horiz-adv-x="321" />
<glyph unicode="&#x2007;" horiz-adv-x="321" />
<glyph unicode="&#x2008;" horiz-adv-x="241" />
<glyph unicode="&#x2009;" horiz-adv-x="386" />
<glyph unicode="&#x200a;" horiz-adv-x="107" />
<glyph unicode="&#x2010;" horiz-adv-x="408" d="M41 623q0 8 1.5 19.5t4.5 22.5q58 13 113 19t112 6q11 0 52 -2q27 -1 44 -2q-1 -41 -9.5 -76t-24.5 -69q-98 -2 -161 -6.5t-110 -11.5q-10 28 -16 55t-6 45z" />
<glyph unicode="&#x2011;" horiz-adv-x="408" d="M41 623q0 8 1.5 19.5t4.5 22.5q58 13 113 19t112 6q11 0 52 -2q27 -1 44 -2q-1 -41 -9.5 -76t-24.5 -69q-98 -2 -161 -6.5t-110 -11.5q-10 28 -16 55t-6 45z" />
<glyph unicode="&#x2012;" horiz-adv-x="408" d="M41 623q0 8 1.5 19.5t4.5 22.5q58 13 113 19t112 6q11 0 52 -2q27 -1 44 -2q-1 -41 -9.5 -76t-24.5 -69q-98 -2 -161 -6.5t-110 -11.5q-10 28 -16 55t-6 45z" />
<glyph unicode="&#x2013;" d="M63 580q0 3 1 10t4 22q84 14 183 20.5t226 6.5q143 0 254 -5.5t211 -17.5q9 -21 12.5 -35t3.5 -26t-0.5 -20.5t-1.5 -16.5l-12 -18q-52 -1 -109 -1.5t-151 -0.5q-214 0 -353.5 4.5t-242.5 15.5l-23 38q-1 6 -1.5 11.5t-0.5 12.5z" />
<glyph unicode="&#x2014;" horiz-adv-x="2048" d="M-14 510v117h2076v-117h-2076z" />
<glyph unicode="&#x2018;" horiz-adv-x="358" d="M74 1534q22 15 48 22t60 7q4 0 15 -1t16 -1l23 -13v-12q0 -59 11 -140t42 -233q-23 -13 -47 -19.5t-52 -6.5q-42 98 -71 196.5t-45 200.5z" />
<glyph unicode="&#x2019;" horiz-adv-x="358" d="M68 1163l4 22q49 252 49 351v12l22 13q6 0 16.5 1t14.5 1q35 0 61.5 -7t49.5 -22q-15 -95 -44.5 -193.5t-74.5 -203.5q-28 0 -52 6.5t-46 19.5z" />
<glyph unicode="&#x201a;" horiz-adv-x="358" d="M68 -199l1 7q52 263 52 366v12l22 13q6 0 16.5 1t14.5 1q35 0 61.5 -7t49.5 -22q-15 -94 -44 -191t-75 -206q-28 0 -52 6.5t-46 19.5z" />
<glyph unicode="&#x201c;" horiz-adv-x="623" d="M74 1534q22 15 48 22t60 7q4 0 15 -1t16 -1l23 -13v-12q0 -59 11 -140t42 -233q-23 -13 -47 -19.5t-52 -6.5q-42 98 -71 196.5t-45 200.5zM338 1534q22 15 48.5 22t62.5 7q3 0 14 -1t16 -1l21 -13v-12q0 -54 10 -127.5t45 -245.5q-23 -13 -46.5 -19.5t-51.5 -6.5 q-45 102 -74.5 200.5t-44.5 196.5z" />
<glyph unicode="&#x201d;" horiz-adv-x="623" d="M68 1163l4 22q49 252 49 351v12l22 13q6 0 16.5 1t14.5 1q35 0 61.5 -7t49.5 -22q-15 -95 -44.5 -193.5t-74.5 -203.5q-28 0 -52 6.5t-46 19.5zM332 1164q3 16 9 47q46 234 46 325v12l23 13q5 0 15.5 1t14.5 1q35 0 60.5 -7t48.5 -22q-15 -99 -44 -197.5t-73 -199.5 q-28 0 -53 6.5t-47 20.5z" />
<glyph unicode="&#x201e;" horiz-adv-x="623" d="M68 -199l1 7q52 263 52 366v12l22 13q6 0 16.5 1t14.5 1q35 0 61.5 -7t49.5 -22q-15 -94 -44 -191t-75 -206q-28 0 -52 6.5t-46 19.5zM332 -198q3 14 8 40q47 238 47 332v12l23 13q5 0 15.5 1t14.5 1q35 0 60.5 -7t48.5 -22q-15 -97 -44 -195t-73 -202q-28 0 -53 6.5 t-47 20.5z" />
<glyph unicode="&#x2022;" horiz-adv-x="1208" d="M307 762q0 123 87 209t210 86q122 0 208.5 -86.5t86.5 -208.5t-87.5 -209.5t-209.5 -87.5q-123 0 -209 87t-86 210z" />
<glyph unicode="&#x2026;" horiz-adv-x="2048" d="M232 117q23 25 57 43.5t84 34.5q27 -27 40.5 -64t16.5 -92q-24 -24 -50.5 -40.5t-57.5 -27.5q-36 26 -57.5 60.5t-32.5 85.5zM914 117q23 25 57 43.5t84 34.5q27 -27 40.5 -64t16.5 -92q-24 -24 -50.5 -40.5t-57.5 -27.5q-36 26 -57.5 60.5t-32.5 85.5zM1598 117 q23 25 57 43.5t84 34.5q27 -27 40.5 -64t16.5 -92q-24 -24 -50.5 -40.5t-57.5 -27.5q-36 26 -57.5 60.5t-32.5 85.5z" />
<glyph unicode="&#x202f;" horiz-adv-x="386" />
<glyph unicode="&#x2039;" horiz-adv-x="453" d="M39 580q0 13 3 28.5t9 34.5q65 51 121.5 126.5t116.5 191.5q33 0 54.5 -11t37.5 -37l25 -39q-40 -71 -97 -147.5t-131 -155.5q71 -70 126.5 -143.5t96.5 -151.5q-10 -43 -34 -66.5t-70 -33.5q-75 117 -133 191.5t-113 121.5q-6 32 -9 55t-3 36z" />
<glyph unicode="&#x203a;" horiz-adv-x="453" d="M49 264q40 73 95.5 147.5t131.5 155.5q-78 79 -132 149.5t-93 143.5q10 44 34.5 67.5t70.5 33.5q62 -101 124 -178.5t123 -132.5q6 -34 8.5 -55.5t2.5 -35.5q0 -19 -11 -58q-1 -4 -2 -5q-61 -48 -116.5 -121.5t-120.5 -198.5q-33 0 -53.5 10.5t-36.5 36.5z" />
<glyph unicode="&#x205f;" horiz-adv-x="482" />
<glyph unicode="&#x20ac;" horiz-adv-x="707" d="M-4 883q0 8 2.5 20.5t8.5 26.5l124 12q40 273 174 436t330 178q41 0 66.5 -17.5t25.5 -45.5q0 -10 -5.5 -21t-19.5 -28q-180 -60 -275.5 -178.5t-119.5 -317.5q31 0 66.5 -1.5t105.5 -6.5q20 -2 38 -7.5t34 -14.5l-6 -44q-12 -17 -29.5 -31.5t-42.5 -29.5l-180 -6 q-1 -19 -3.5 -49t-2.5 -37q15 2 30.5 3t34.5 1q23 0 71 -4h5q20 -2 38 -7.5t34 -15.5l-6 -43q-13 -18 -31 -34t-41 -29l-131 -4v-25q0 -171 66 -291t157 -120q26 0 53 12.5t58 40.5q9 3 17 4.5t13 1.5q25 0 37.5 -17t12.5 -51q-1 -10 -4.5 -22.5t-12.5 -34.5 q-40 -53 -92.5 -82t-110.5 -29q-155 0 -260.5 174.5t-109.5 448.5l-90 20q-4 16 -5.5 25t-1.5 14q0 11 8 38q3 10 5 16l84 12v20q0 8 1.5 34.5t2.5 39.5l-119 25q-3 18 -3.5 26t-0.5 15z" />
<glyph unicode="&#x2122;" horiz-adv-x="1706" d="M254 1389v67h440v-67h-172v-467h-94v467h-174zM819 922v534h129l160 -405l149 405h132v-534h-82v458l-172 -458h-54l-180 458v-458h-82z" />
<glyph unicode="&#xe000;" horiz-adv-x="1160" d="M0 0v1160h1160v-1160h-1160z" />
</font>
</defs>
</svg>
