<svg viewBox="0 0 675 290">
    <g id="meet">
        <path d="m 83.73234,43.83473 q -0.58673,-0.97788 -2.34692,-2.54249 -1.564612,-1.56461 -2.738071,-2.15134 -5.671718,-3.12923 -12.712472,-3.12923 -5.867295,0 -11.343436,1.56462 -5.280566,1.56461 -11.539014,4.69383 l 0,-5.08499 -33.052427,0 0,21.51342 q 2.738071,0.97788 3.91153,2.34692 1.173459,1.36903 2.738071,4.49826 l 0,41.65779 q 0,3.12922 -6.649601,6.06287 l 0,25.62052 40.679911,0 0,-26.01167 q -2.933648,-1.17346 -3.520377,-1.56462 -1.564612,-1.17345 -1.564612,-3.3248 l 0,-43.02682 q 1.564612,-3.12923 3.3248,-4.69384 1.955765,-1.56461 5.280566,-1.56461 3.129223,0.39115 5.280565,2.93365 0.782306,0.97788 2.542494,3.91153 l 0,42.44009 q 0,2.15135 -0.977882,2.93365 -2.151342,0.97788 -4.107107,1.95577 l 0,26.01167 38.919722,0 0,-25.62052 q -3.3248,-0.58673 -3.91153,-0.97788 -1.76019,-0.97789 -1.76019,-3.52038 l 0,-41.46222 q 0.58673,-2.93364 1.36904,-6.06287 1.36903,-2.73807 7.04075,-2.73807 5.08499,0 6.6496,2.5425 1.17346,3.91153 1.95577,6.06287 l 0,40.67991 q -0.39116,3.71595 -4.88942,5.47614 l 0,25.62052 39.1153,0 0,-26.20725 q -4.30268,-0.78231 -5.86729,-1.36904 -1.56461,-0.58673 -1.76019,-2.54249 l 0,-41.46222 q 0.19558,-1.17346 0.19558,-3.91153 0,-8.01863 -2.5425,-14.86381 -2.54249,-7.04075 -7.23633,-9.38767 -6.84518,-3.12923 -15.05939,-3.12923 -6.6496,0 -13.49478,2.15135 -6.6496,2.15134 -11.93016,5.67171 z" />
        <path d="m 179.34026,140.44952 q 14.47266,0 25.03379,-11.14786 10.56113,-11.14786 13.2992,-29.1409 l -28.94532,0 q 0,9.1921 -1.95576,12.5169 -1.95577,3.12922 -5.28057,3.12922 -4.49826,-0.39115 -6.6496,-5.47614 -2.15134,-5.28056 -2.15134,-11.73459 0,-3.91153 0.78231,-7.04075 l 44.20028,0 q 0,-22.10015 -11.14786,-38.72415 -10.95228,-16.624 -27.18513,-16.624 -16.42842,0 -28.16301,15.25497 -11.73459,15.25496 -11.73459,36.76838 0,21.90457 11.53901,37.15953 11.53901,15.05939 28.35859,15.05939 z m 8.80094,-61.99775 -15.84169,0 q 0,-8.01863 0.39115,-11.73459 1.56461,-11.73459 6.84518,-11.14786 4.30268,0 6.45402,5.28057 2.15134,5.28056 2.15134,17.60188 z" />
        <path d="m 252.24911,140.44952 q 14.47266,0 25.03379,-11.14786 10.56113,-11.14786 13.2992,-29.1409 l -28.94532,0 q 0,9.1921 -1.95577,12.5169 -1.95576,3.12922 -5.28056,3.12922 -4.49826,-0.39115 -6.6496,-5.47614 -2.15134,-5.28056 -2.15134,-11.73459 0,-3.91153 0.7823,-7.04075 l 44.20029,0 q 0,-22.10015 -11.14786,-38.72415 -10.95228,-16.624 -27.18513,-16.624 -16.42843,0 -28.16302,15.25497 -11.73459,15.25496 -11.73459,36.76838 0,21.90457 11.53901,37.15953 11.53902,15.05939 28.3586,15.05939 z m 8.80094,-61.99775 -15.8417,0 q 0,-8.01863 0.39116,-11.73459 1.56461,-11.73459 6.84517,-11.14786 4.30269,0 6.45403,5.28057 2.15134,5.28056 2.15134,17.60188 z" />
        <path d="m 319.57791,10 -18.18862,0 q 0,5.8673 -0.58673,8.60537 -0.58673,2.73807 -2.73807,6.6496 -1.95576,3.71595 -7.23633,7.82306 -5.08499,4.1071 -9.38767,4.1071 l 0,20.92669 10.36556,0 0,71.18984 q 0.7823,6.6496 7.62748,9.1921 4.88941,1.76019 13.2992,1.76019 6.45402,0 12.71247,-2.5425 7.62748,-3.12922 7.62748,-7.82306 l 0,-26.98955 -6.6496,0 0,11.34343 q 0,4.49826 -2.93364,4.49826 -3.52038,0 -3.52038,-4.49826 l 0,-56.13045 12.71247,0 0,-20.92669 -13.10362,0 0,-27.18513 z" />
    </g>
    <g id="eat">
        <path d="m 507.91785,243.25862 q 14.47266,0 25.03379,-11.14786 10.56113,-11.14786 13.29921,-29.1409 l -28.94533,0 q 0,9.1921 -1.95576,12.5169 -1.95577,3.12922 -5.28057,3.12922 -4.49825,-0.39115 -6.6496,-5.47614 -2.15134,-5.28057 -2.15134,-11.73459 0,-3.91153 0.78231,-7.04075 l 44.20029,0 q 0,-22.10015 -11.14786,-38.72415 -10.95229,-16.624 -27.18514,-16.624 -16.42842,0 -28.16301,15.25496 -11.73459,15.25497 -11.73459,36.76839 0,21.90456 11.53901,37.15953 11.53901,15.05939 28.35859,15.05939 z m 8.80095,-61.99775 -15.8417,0 q 0,-8.01864 0.39115,-11.73459 1.56461,-11.73459 6.84518,-11.14786 4.30268,0 6.45402,5.28057 2.15135,5.28056 2.15135,17.60188 z" />
        <path d="m 582.78245,195.53795 0,20.53554 q 0,2.73807 -1.36903,4.1071 -1.17346,1.17346 -3.12922,1.95577 -0.58673,0 -1.95577,0.19557 -1.17346,0 -1.56461,-0.19557 -3.91153,-0.97789 -4.69384,-7.04076 -0.58673,-6.06287 -0.58673,-9.38767 0,-2.54249 1.95577,-4.69383 3.3248,-3.71596 7.23633,-4.30269 l 4.1071,-1.17346 z m -13.2992,-56.5216 q -8.60536,0 -15.25496,4.88941 -5.08499,3.52038 -8.01864,8.80094 -2.73807,5.08499 -2.73807,11.73459 0.19558,1.56461 0.19558,2.5425 0,4.49826 3.71595,7.82306 3.91153,3.12922 9.58325,4.69383 10.36555,0 12.71247,-7.4319 l 0,-10.75671 q 0.58673,-0.78231 2.93365,-1.56461 2.54249,-0.78231 4.49826,-0.78231 2.93364,0 4.30268,0.58673 1.36903,0.39115 1.76019,2.73807 l -0.39116,13.10363 -0.97788,2.15134 q -3.52037,2.54249 -12.51689,4.69383 -8.99652,1.95577 -12.71248,4.10711 -7.62748,4.49826 -10.56113,7.62748 -4.88941,5.08499 -4.88941,12.12574 0,13.10363 0.97788,18.18862 1.95577,10.56113 8.99652,14.86381 2.5425,1.76019 6.84518,2.73807 4.49826,0.97789 8.99652,0.97789 3.71595,0 6.84518,-0.58673 3.3248,-0.58673 6.84517,-2.5425 3.71596,-1.95576 5.67172,-2.34692 3.12923,2.73807 8.01864,4.10711 5.08499,1.36904 10.95228,1.36904 6.25845,0 11.34344,-3.12923 6.25845,-3.91153 7.82306,-11.14786 l 0,-17.40631 -6.45403,0 q 0.19558,1.76019 0.19558,2.93365 0,2.15134 -0.97788,3.52038 -0.97789,1.17346 -3.91153,1.17346 -1.56461,0 -2.34692,-1.95577 -0.58673,-2.15134 -0.58673,-2.73807 l 0,-50.06758 q 0,-7.23633 -3.12922,-13.88593 -3.12923,-6.6496 -10.95229,-8.99652 -7.62748,-2.54249 -17.79746,-2.54249 -2.34692,0 -4.69383,0 -2.93365,0.39115 -4.30269,0.39115 z" />
        <path d="m 652.16633,112.8091 -18.18861,0 q 0,5.86729 -0.58673,8.60536 -0.58673,2.73808 -2.73807,6.6496 -1.95577,3.71596 -7.23633,7.82306 -5.08499,4.10711 -9.38767,4.10711 l 0,20.92669 10.36555,0 0,71.18984 q 0.78231,6.6496 7.62748,9.19209 4.88942,1.76019 13.2992,1.76019 6.45403,0 12.71248,-2.54249 7.62748,-3.12923 7.62748,-7.82306 l 0,-26.98956 -6.6496,0 0,11.34344 q 0,4.49826 -2.93365,4.49826 -3.52038,0 -3.52038,-4.49826 l 0,-56.13045 12.71248,0 0,-20.92669 -13.10363,0 0,-27.18513 z" />
    </g>
    <g id="and">
        <path d="m 411.44844,45.0411 q -4.86305,-6.07882 -13.06945,-9.11823 -7.90246,-3.34334 -17.02068,-3.34334 -17.93251,0 -28.87437,9.7261 -10.94187,9.7261 -16.4128,22.49161 -5.167,12.76551 -5.167,27.35467 0,20.36403 10.63793,38.29653 -20.66797,13.98128 -28.87437,24.01132 -7.90246,10.03004 -9.7261,18.84433 -1.82365,8.81428 -1.82365,15.19703 0,14.28522 5.47093,27.96255 3.03941,10.33398 11.54975,18.54038 8.81428,8.2064 20.97191,11.85369 2.43153,0.91183 5.47094,1.21577 3.0394,0.30394 6.99063,0.30394 13.3734,0 26.74679,-5.47094 13.67733,-5.77487 18.54038,-12.76551 8.51034,7.90246 13.06945,11.85369 8.81429,7.29458 15.80492,8.2064 18.23645,0 25.83497,-1.82364 13.67733,-3.34335 20.06008,-13.67734 3.64729,-4.25517 5.47094,-11.85368 2.12758,-7.59852 2.12758,-15.19704 -0.30394,-3.34335 -0.30394,-4.86305 l -20.06009,-0.91183 q -0.60788,2.73547 -1.5197,5.77488 -0.60788,2.73546 -2.12759,3.03941 -1.21576,2.12758 -3.34334,2.12758 -1.51971,0 -3.34335,-1.82364 -1.51971,-1.82365 -3.34335,-6.07882 l -19.45221,-32.52166 q 3.03941,-4.86305 5.47094,-9.42216 1.5197,-3.03941 5.47093,-8.51034 4.86305,6.38276 10.33398,9.42216 5.47094,2.73547 11.24581,2.73547 9.72611,0 15.19704,-7.29458 3.64729,-3.64729 3.64729,-12.76551 0,-9.11822 -3.64729,-16.10886 -6.38276,-14.28521 -22.79556,-16.10886 -1.5197,-0.30394 -3.95123,-0.30394 -12.46157,0 -22.49161,9.42217 -7.59852,7.29457 -13.98127,19.75614 l -10.33399,-20.36403 q 1.82364,-2.43152 11.85369,-13.98127 13.37339,-15.19704 13.37339,-29.17831 0,-11.54975 -3.34335,-18.54039 -3.0394,-6.99063 -10.33398,-16.10885 z m -25.22708,14.58915 q 9.42216,1.82365 9.42216,11.24581 0,9.7261 -9.42216,19.75615 L 376.19131,71.48394 q -0.60788,-1.82364 -0.60788,-2.73547 0,-3.0394 3.03941,-5.47093 3.34335,-2.43153 7.59852,-3.64729 z m -36.77683,96.34921 28.26649,56.83692 q -2.12759,2.43153 -4.55911,4.25517 -2.43153,1.5197 -5.47094,2.12759 -9.7261,-1.21577 -16.71674,-7.29458 -6.99063,-6.38276 -10.94186,-16.10886 -3.03941,-9.11822 -3.03941,-17.02068 0,-8.81428 3.95123,-16.4128 l 3.95123,-3.34335 4.55911,-3.03941 z" />
    </g>
    <g id="exmatrikulationsamt.de">
        <path d="m 485.53247,268.6415 q 0.0297,-0.34099 0.0445,-0.69681 0.0297,-0.37064 0.0297,-0.40029 0,-1.11194 -0.22239,-1.60119 -0.22238,-0.48925 -0.72646,-0.48925 -0.41512,0 -0.68199,0.77094 -0.26686,0.75612 -0.4596,2.59451 l 2.01631,-0.17791 z m 1.92735,9.44403 q 0.0148,0.13343 0.0148,0.25204 0.0148,0.1186 0.0148,0.23721 0,0.84507 -0.6375,1.3788 -0.62269,0.53373 -1.58636,0.53373 -2.28317,0 -3.46924,-1.97183 -1.17123,-1.97183 -1.17123,-5.78206 0,-4.18087 1.27501,-6.99777 1.28985,-2.83172 3.06894,-2.83172 1.18606,0 1.92735,1.37879 0.74129,1.3788 0.74129,3.63232 0,0.66716 -0.10378,1.28984 -0.089,0.62269 -0.28169,1.23054 -0.38547,0.0741 -0.66716,0.11861 -0.28169,0.0297 -0.5189,0.0297 -0.0593,0 -0.96368,-0.0445 -0.88954,-0.0593 -1.73461,-0.0741 -0.089,0.9785 -0.11861,1.46775 -0.0148,0.48925 -0.0148,0.88955 0,3.09859 0.69682,4.1957 0.71163,1.0971 2.71311,1.0971 l 0.29652,0 q 0,0 0.17791,-0.0148 0.17791,-0.0148 0.34099,-0.0148 z" />
        <path d="m 497.52653,279.65706 q -0.31134,0.37065 -0.68199,0.54856 -0.35581,0.17791 -0.74128,0.17791 -0.26687,0 -0.71164,-0.17791 -0.10378,-0.0445 -0.13343,-0.0593 -0.28169,-2.12009 -0.8599,-4.596 -0.56338,-2.4759 -1.48258,-5.57449 l -3.32097,10.60043 q -0.13344,0 -0.29652,-0.0148 -0.14826,-0.0148 -0.14826,-0.0148 -0.66716,0 -1.00815,-0.23721 -0.34099,-0.23721 -0.69681,-0.9192 l 4.22535,-12.72052 q -0.74129,-1.92735 -1.55671,-3.91401 -0.80059,-2.00148 -1.73462,-4.1957 0.0741,-0.5782 0.65234,-1.02298 0.59303,-0.4596 1.14158,-0.4596 0.14826,0 0.25204,0.0148 0.11861,0 0.20756,0.0148 0.48925,1.63084 1.69014,4.78873 0.50408,1.3195 0.74129,1.97183 l 2.17939,-6.47887 q 0.31134,-0.17791 0.5189,-0.23721 0.20756,-0.0741 0.42995,-0.0741 0.38547,0 0.75612,0.17791 0.37064,0.17791 0.78576,0.57821 -1.09711,2.68346 -1.94218,4.89251 -0.83024,2.19421 -1.48257,4.06226 1.37879,4.06227 2.17939,7.29429 0.80059,3.21719 1.0378,5.57449 z" />
        <path d="m 498.17887,279.71637 q 0.32616,-1.08229 0.4596,-2.40178 0.14825,-1.3195 0.14825,-4.21052 0,-1.92736 -0.1186,-4.31431 -0.10378,-2.38695 -0.31134,-5.07042 0.26686,-0.34099 0.66716,-0.5189 0.41512,-0.19273 1.08228,-0.29651 l 0.13343,0 q 0.44477,0 0.68199,0.29651 0.23721,0.28169 0.29651,0.87472 0.41512,-0.44477 0.93403,-0.66716 0.53372,-0.23721 1.12676,-0.23721 0.66716,0 1.15641,0.29651 0.48925,0.28169 0.90437,0.9192 0.72646,-0.74129 1.48258,-1.11193 0.75611,-0.37064 1.55671,-0.37064 1.57153,0 2.26834,1.23053 0.71164,1.23054 0.71164,4.0771 0,1.54188 -0.11861,4.40326 -0.10378,2.84654 -0.10378,4.16604 0,0.72646 0.0148,1.54188 0.0297,0.80059 0.0741,1.61601 -0.53373,0.23722 -0.9785,0.35582 -0.42995,0.11861 -0.77095,0.11861 -0.25203,0 -0.5189,-0.0741 -0.25204,-0.0593 -0.63751,-0.23722 0.20756,-2.62416 0.31134,-4.87768 0.10378,-2.25352 0.10378,-4.18087 0,-3.88436 -0.29651,-4.80355 -0.28169,-0.93403 -1.09711,-0.93403 -0.69681,0 -0.9785,0.72647 -0.26686,0.71163 -0.26686,2.9355 0,0.41512 0.0148,1.51223 0.0148,1.08228 0.0148,1.7791 0,1.48257 0.0445,3.51371 0.0445,2.0163 0.0445,2.55003 0,0.38547 -0.0445,1.12676 l -0.0148,0.089 -0.62268,0.32617 q -0.11861,0.0297 -0.22239,0.0445 -0.10378,0 -0.31134,0 -0.4596,0 -0.81542,-0.10378 -0.34099,-0.11861 -0.63751,-0.37065 0.0297,-0.90437 0.0593,-2.49073 0.089,-4.32913 0.089,-4.99629 l 0,-1.64566 q 0,-3.15789 -0.23721,-4.00296 -0.23722,-0.84507 -0.87473,-0.84507 -0.32616,0 -0.66716,0.17791 -0.32616,0.17791 -0.63751,0.5189 -0.0297,0.66716 -0.0593,1.27502 -0.0148,0.59303 -0.0148,1.18606 0,3.70645 0.10378,7.5908 0.0296,0.81542 0.0296,0.96368 0,0.93402 -0.11861,1.69014 -0.10378,0.75611 -0.31134,1.28984 -0.28169,0.0741 -0.50408,0.10378 -0.22238,0.0445 -0.40029,0.0445 -0.38547,0 -0.84507,-0.14826 -0.44478,-0.13343 -0.9785,-0.42994 z" />
        <path d="m 517.58582,277.44802 q 0,-1.3788 -0.0296,-2.7576 -0.0148,-1.39362 -0.0593,-2.83172 -0.0741,-0.0148 -0.16308,-0.0148 -0.089,-0.0148 -0.25204,-0.0148 -0.87472,0 -1.31949,0.69681 -0.44478,0.69681 -0.44478,2.06079 0,1.83839 0.32617,2.4166 0.32617,0.56338 1.18606,0.56338 0.13344,0 0.51891,-0.0741 0.14825,-0.0296 0.23721,-0.0445 z m -3.42476,-11.14899 -0.0889,0 q -0.47443,0 -0.83025,-0.38547 -0.35581,-0.38547 -0.35581,-0.83024 0,-0.0593 0.0445,-0.14826 0.0445,-0.089 0.16309,-0.23721 0.84507,-0.50408 1.74944,-0.97851 0.90437,-0.47442 1.8384,-0.90437 1.85322,0.35582 2.56486,2.01631 0.71163,1.64566 0.71163,7.84284 0,2.06078 -0.10378,6.80503 -0.0148,0.48925 -0.0148,0.72647 -0.31134,0.13343 -0.54856,0.19273 -0.23721,0.0593 -0.45959,0.0593 -0.23722,0 -0.50408,-0.0741 -0.25204,-0.0741 -0.48925,-0.20756 l -0.11861,-0.69681 q -0.62268,0.29651 -1.26019,0.47442 -0.62268,0.16309 -1.08228,0.16309 -1.21572,0 -1.80875,-1.20089 -0.59303,-1.21571 -0.59303,-3.75092 0,-2.95034 0.93402,-4.24018 0.94885,-1.28984 3.08377,-1.28984 l 0.47442,0 q -0.0148,-1.8384 -0.42994,-3.02446 -0.41513,-1.18607 -0.99333,-1.18607 -0.13343,0 -0.35582,0.0741 -0.20756,0.0741 -0.42995,0.19274 l -1.09711,0.60786 z" />
        <path d="m 525.11732,260.62075 q 0.0741,0.28169 0.10378,0.62269 0.0445,0.32616 0.0445,0.74129 l 0,1.27501 q 0,0.0148 -0.0148,0.16309 -0.0148,0.13343 0,0.29651 0.50408,-0.0148 1.17124,-0.089 0.66716,-0.0889 1.5567,-0.23721 0.42995,0.35582 0.62269,0.80059 0.20756,0.44478 0.22238,1.06746 -0.48925,0.25204 -1.18606,0.41512 -0.69681,0.14826 -2.3573,0.32617 -0.14826,2.38695 -0.22239,4.58117 -0.0593,2.17939 -0.0593,4.12156 0,2.49074 0.22239,3.03929 0.22238,0.54855 0.84507,0.54855 0.32616,0 0.60785,-0.0593 0.28169,-0.0741 0.53373,-0.20756 0.20756,0.17791 0.29652,0.37065 0.10378,0.19273 0.10378,0.41512 0,0.28169 -0.13343,0.56338 -0.11861,0.28169 -0.44478,0.68199 -0.78576,0.34099 -1.33432,0.48925 -0.53373,0.14826 -0.96367,0.14826 -1.2602,0 -1.80875,-1.03781 -0.53373,-1.05263 -0.53373,-3.51371 0,-1.21572 0.14826,-3.75093 0.14826,-2.5352 0.14826,-3.83987 0,-1.00816 -0.0148,-1.52706 0,-0.53373 -0.0148,-0.96368 -0.38547,-0.10378 -0.72647,-0.23721 -0.32616,-0.14826 -0.63751,-0.34099 l 0,-0.14826 q 0,-0.4003 0.10378,-0.78577 0.11861,-0.38547 0.32617,-0.77094 l 1.02298,-0.089 0.10378,-2.92068 q 0.32617,-0.26686 0.62268,-0.40029 0.31135,-0.13344 0.62269,-0.13344 0.22238,0 0.4596,0.089 0.23721,0.0741 0.56338,0.29651 z" />
        <path d="m 529.23889,279.87945 q 0.0741,-2.03113 0.10378,-3.52854 0.0445,-1.51223 0.0445,-2.72794 0,-2.68347 -0.10378,-5.10007 -0.0889,-2.41661 -0.29651,-4.6553 0.35582,-0.38547 0.78576,-0.60786 0.44478,-0.23721 1.03781,-0.32616 0.47442,0.32616 0.68199,0.94885 0.20756,0.62268 0.26686,2.26834 1.00815,-0.99333 1.70497,-1.61601 0.71163,-0.63751 1.17123,-0.96368 0.50408,0.19274 0.78577,0.60786 0.29651,0.4003 0.48925,1.24537 -1.06746,0.63751 -2.06078,1.4974 -0.99333,0.84507 -1.94218,1.95701 -0.0445,1.40845 -0.0741,2.84655 -0.0148,1.4381 -0.0148,2.92068 0,0.93402 0.0297,2.25352 0.0297,1.31949 0.089,2.8762 l -0.4596,0.57821 q -0.13343,0 -0.4003,-0.0148 -0.26686,-0.0148 -0.38547,-0.0148 -0.53372,0 -0.87472,-0.10378 -0.34099,-0.10378 -0.5782,-0.34099 z" />
        <path d="m 536.91864,258.53032 q 0.35582,-0.089 0.69681,-0.13343 0.35582,-0.0445 0.66716,-0.0445 0.16309,0 0.4596,0.0593 0.29652,0.0593 0.66716,0.17791 0.13344,0.41512 0.19274,0.71163 0.0741,0.28169 0.0741,0.47443 0,0.19273 -0.0741,0.44477 -0.0593,0.25204 -0.22239,0.66716 -0.40029,0.11861 -0.72646,0.17791 -0.32617,0.0445 -0.54855,0.0445 -0.17791,0 -0.4596,-0.0445 -0.26687,-0.0593 -0.69682,-0.16308 -0.1186,-0.42995 -0.17791,-0.74129 -0.0593,-0.31134 -0.0593,-0.53373 0,-0.14826 0.0296,-0.35582 0.0445,-0.20756 0.17791,-0.74129 z m 0.20756,21.61599 q -0.10378,-2.63899 -0.16308,-4.78873 -0.0445,-2.14973 -0.0445,-4.07709 0,-1.26019 0.0445,-3.02446 0.0445,-1.76427 0.16308,-5.02594 0.28169,-0.089 0.54856,-0.13343 0.28169,-0.0445 0.54855,-0.0445 0.28169,0 0.53373,0.0297 0.25204,0.0296 0.5189,0.0889 0.089,3.18754 0.11861,6.06375 0.0445,2.86137 0.0445,5.54484 0,0.8599 -0.0148,2.57969 -0.0148,1.70496 -0.0148,2.53521 -0.34099,0.23721 -0.68198,0.34099 -0.34099,0.11861 -0.68199,0.11861 -0.19273,0 -0.38547,-0.0445 -0.19273,-0.0445 -0.53373,-0.16309 z" />
        <path d="m 544.25741,268.24121 q 0.31134,-0.54856 0.85989,-1.57154 1.74944,-3.26167 2.68347,-3.97331 0.65233,0.11861 1.11193,0.4596 0.47443,0.32617 0.88955,0.99333 -1.15641,1.08228 -2.7576,3.45441 -0.69681,1.0378 -1.06745,1.52705 l 4.01779,10.20014 q -0.47443,0.54856 -1.03781,0.8006 -0.54855,0.26686 -1.33432,0.28169 l -3.36545,-9.85915 q 0.0148,3.45441 0.0741,6.04892 0.0593,2.59451 0.16308,4.78873 -0.72646,0.13343 -1.02298,0.16308 -0.29652,0.0445 -0.48925,0.0445 -0.34099,0 -0.62268,-0.0445 -0.26687,-0.0445 -0.56338,-0.16308 0.0148,-1.98666 0.0297,-5.70793 0.0296,-3.72127 0.0296,-4.7739 0,-3.46924 -0.0741,-6.83469 -0.0593,-3.36545 -0.19273,-6.58265 0.47442,-0.19273 0.80059,-0.26686 0.32616,-0.0889 0.62268,-0.0889 0.29652,0 0.62268,0.0593 0.341,0.0593 0.74129,0.17791 -0.0593,2.17939 -0.089,4.84803 -0.0296,2.65382 -0.0296,6.01927 z" />
        <path d="m 553.03427,280.23527 q -2.53521,-0.63751 -2.62416,-9.10303 -0.0593,-4.74425 -0.23722,-7.73906 0.37065,-0.17791 0.69682,-0.25204 0.32616,-0.089 0.63751,-0.089 0.31134,0 0.6375,0.10378 0.341,0.0889 0.77094,0.32617 -0.0296,1.20088 -0.0445,3.11341 -0.0148,1.8977 -0.0148,4.1957 l 0,0.66716 q 0,3.61749 0.20756,4.74425 0.20756,1.12676 0.75612,1.54188 l 0.17791,0 q 0.22238,0 0.41512,-0.0296 0.20756,-0.0445 0.42995,-0.1186 0.10378,-1.14159 0.14825,-2.32765 0.0445,-1.18607 0.0445,-2.62417 0,-2.62416 -0.0741,-4.99629 -0.0741,-2.38695 -0.22238,-4.56634 0.31134,-0.13343 0.62268,-0.19273 0.31134,-0.0741 0.62268,-0.0741 0.35582,0 0.72647,0.10379 0.37064,0.089 0.81541,0.31134 l 0,1.15641 q 0,0.16308 -0.0148,0.99333 -0.0741,4.53669 -0.0741,9.14751 0,2.17939 0.0296,3.30615 0.0445,1.12676 0.11861,2.12008 -0.29652,0.20756 -0.66716,0.28169 -0.35582,0.089 -0.97851,0.089 l -0.44477,0 q -0.19273,-0.32616 -0.31134,-0.59303 -0.11861,-0.26686 -0.17791,-0.48925 -0.50408,0.47443 -0.9785,0.75612 -0.4596,0.26686 -0.75612,0.26686 -0.0148,0 -0.10378,-0.0148 -0.0741,-0.0148 -0.13343,-0.0148 z" />
        <path d="m 563.14546,257.38873 q -0.0593,2.16457 -0.089,4.1364 -0.0296,1.957 -0.0296,3.58784 0,5.66345 0.0445,9.04373 0.0593,3.36545 0.19273,5.95996 -0.62268,0.11861 -0.99333,0.16309 -0.35581,0.0445 -0.60785,0.0445 -0.25204,0 -0.50408,-0.0593 -0.25204,-0.0445 -0.62268,-0.17791 0.0297,-2.52039 0.0445,-4.77391 0.0148,-2.26834 0.0148,-4.24017 0,-3.49889 -0.0741,-6.89399 -0.0593,-3.39511 -0.19273,-6.68643 0.4596,-0.19274 0.80059,-0.26686 0.35582,-0.089 0.65233,-0.089 0.29652,0 0.62269,0.0593 0.32616,0.0445 0.74129,0.19273 z" />
        <path d="m 569.59468,277.44802 q 0,-1.3788 -0.0297,-2.7576 -0.0148,-1.39362 -0.0593,-2.83172 -0.0741,-0.0148 -0.16308,-0.0148 -0.089,-0.0148 -0.25204,-0.0148 -0.87472,0 -1.31949,0.69681 -0.44478,0.69681 -0.44478,2.06079 0,1.83839 0.32617,2.4166 0.32617,0.56338 1.18606,0.56338 0.13343,0 0.5189,-0.0741 0.14826,-0.0296 0.23722,-0.0445 z m -3.42476,-11.14899 -0.089,0 q -0.47443,0 -0.83025,-0.38547 -0.35582,-0.38547 -0.35582,-0.83024 0,-0.0593 0.0445,-0.14826 0.0445,-0.089 0.16308,-0.23721 0.84507,-0.50408 1.74945,-0.97851 0.90437,-0.47442 1.83839,-0.90437 1.85323,0.35582 2.56486,2.01631 0.71164,1.64566 0.71164,7.84284 0,2.06078 -0.10378,6.80503 -0.0148,0.48925 -0.0148,0.72647 -0.31135,0.13343 -0.54856,0.19273 -0.23721,0.0593 -0.4596,0.0593 -0.23721,0 -0.50407,-0.0741 -0.25204,-0.0741 -0.48925,-0.20756 l -0.11861,-0.69681 q -0.62268,0.29651 -1.26019,0.47442 -0.62269,0.16309 -1.08229,0.16309 -1.21571,0 -1.80874,-1.20089 -0.59303,-1.21571 -0.59303,-3.75092 0,-2.95034 0.93402,-4.24018 0.94885,-1.28984 3.08377,-1.28984 l 0.47442,0 q -0.0148,-1.8384 -0.42995,-3.02446 -0.41512,-1.18607 -0.99332,-1.18607 -0.13344,0 -0.35582,0.0741 -0.20756,0.0741 -0.42995,0.19274 l -1.09711,0.60786 z" />
        <path d="m 577.12617,260.62075 q 0.0741,0.28169 0.10378,0.62269 0.0445,0.32616 0.0445,0.74129 l 0,1.27501 q 0,0.0148 -0.0148,0.16309 -0.0148,0.13343 0,0.29651 0.50407,-0.0148 1.17123,-0.089 0.66716,-0.0889 1.55671,-0.23721 0.42995,0.35582 0.62268,0.80059 0.20757,0.44478 0.22239,1.06746 -0.48925,0.25204 -1.18606,0.41512 -0.69681,0.14826 -2.3573,0.32617 -0.14826,2.38695 -0.22239,4.58117 -0.0593,2.17939 -0.0593,4.12156 0,2.49074 0.22238,3.03929 0.22239,0.54855 0.84507,0.54855 0.32617,0 0.60786,-0.0593 0.28169,-0.0741 0.53373,-0.20756 0.20756,0.17791 0.29652,0.37065 0.10378,0.19273 0.10378,0.41512 0,0.28169 -0.13344,0.56338 -0.1186,0.28169 -0.44477,0.68199 -0.78577,0.34099 -1.33432,0.48925 -0.53373,0.14826 -0.96368,0.14826 -1.26019,0 -1.80874,-1.03781 -0.53373,-1.05263 -0.53373,-3.51371 0,-1.21572 0.14826,-3.75093 0.14826,-2.5352 0.14826,-3.83987 0,-1.00816 -0.0148,-1.52706 0,-0.53373 -0.0148,-0.96368 -0.38547,-0.10378 -0.72646,-0.23721 -0.32617,-0.14826 -0.63751,-0.34099 l 0,-0.14826 q 0,-0.4003 0.10378,-0.78577 0.11861,-0.38547 0.32617,-0.77094 l 1.02298,-0.089 0.10378,-2.92068 q 0.32617,-0.26686 0.62268,-0.40029 0.31134,-0.13344 0.62269,-0.13344 0.22238,0 0.45959,0.089 0.23722,0.0741 0.56338,0.29651 z" />
        <path d="m 581.3367,258.53032 q 0.35582,-0.089 0.69681,-0.13343 0.35582,-0.0445 0.66716,-0.0445 0.16308,0 0.4596,0.0593 0.29652,0.0593 0.66716,0.17791 0.13343,0.41512 0.19274,0.71163 0.0741,0.28169 0.0741,0.47443 0,0.19273 -0.0741,0.44477 -0.0593,0.25204 -0.22239,0.66716 -0.4003,0.11861 -0.72646,0.17791 -0.32617,0.0445 -0.54856,0.0445 -0.17791,0 -0.4596,-0.0445 -0.26686,-0.0593 -0.69681,-0.16308 -0.11861,-0.42995 -0.17791,-0.74129 -0.0593,-0.31134 -0.0593,-0.53373 0,-0.14826 0.0297,-0.35582 0.0445,-0.20756 0.17791,-0.74129 z m 0.20756,21.61599 q -0.10378,-2.63899 -0.16308,-4.78873 -0.0445,-2.14973 -0.0445,-4.07709 0,-1.26019 0.0445,-3.02446 0.0445,-1.76427 0.16308,-5.02594 0.28169,-0.089 0.54855,-0.13343 0.28169,-0.0445 0.54856,-0.0445 0.28169,0 0.53373,0.0297 0.25203,0.0296 0.5189,0.0889 0.0889,3.18754 0.11861,6.06375 0.0445,2.86137 0.0445,5.54484 0,0.8599 -0.0148,2.57969 -0.0148,1.70496 -0.0148,2.53521 -0.34099,0.23721 -0.68199,0.34099 -0.34099,0.11861 -0.68198,0.11861 -0.19274,0 -0.38547,-0.0445 -0.19274,-0.0445 -0.53373,-0.16309 z" />
        <path d="m 589.5057,265.14262 q -0.60785,0.28169 -0.9192,1.8384 -0.29651,1.54188 -0.29651,4.41808 0,3.7361 0.26686,5.18902 0.26687,1.43811 0.9192,1.43811 0.68199,0 0.94885,-1.43811 0.26687,-1.4381 0.26687,-5.57449 0,-3.06894 -0.28169,-4.40326 -0.26687,-1.33432 -0.90438,-1.46775 z m -3.67679,7.04225 q 0,-4.6553 1.08228,-6.96812 1.09711,-2.31282 3.29133,-2.31282 1.52705,0 2.23869,1.957 0.71164,1.94218 0.71164,6.1527 0,4.28465 -1.18607,6.87916 -1.18606,2.59452 -3.09859,2.59452 -1.63083,0 -2.34247,-1.8977 -0.69681,-1.91253 -0.69681,-6.40474 z" />
        <path d="m 594.69473,264.29755 q 0.4003,-0.4596 0.90438,-0.71164 0.5189,-0.25204 1.20089,-0.31134 l 0.26686,0.84507 q 0.60786,-0.25204 1.24537,-0.53373 0.6375,-0.29651 1.30466,-0.62268 0.13344,-0.0297 0.26687,-0.0445 0.14826,-0.0148 0.34099,-0.0148 1.11194,0 1.61601,0.94885 0.50408,0.93402 0.50408,3.05411 l 0,3.46923 q 0,3.17272 0.0593,5.45589 0.0593,2.26835 0.19274,3.94366 -0.37065,0.25204 -0.72647,0.37065 -0.34099,0.1186 -0.74129,0.1186 -0.34099,0 -0.69681,-0.10378 -0.34099,-0.089 -0.72646,-0.28169 0.0889,-2.14974 0.13343,-4.1957 0.0593,-2.04595 0.0593,-4.00296 l 0,-0.63751 q 0,-3.76575 -0.25203,-4.61082 -0.23722,-0.85989 -0.93403,-0.85989 -0.42995,0 -0.81542,0.23721 -0.37064,0.22239 -0.59303,0.60786 0.10378,1.79392 0.14826,3.60266 0.0445,1.79392 0.0445,3.66197 0,1.15641 -0.0148,3.18755 -0.0148,2.0163 -0.0148,2.8762 -0.22239,0.28169 -0.51891,0.4003 -0.29651,0.1186 -0.78576,0.1186 -0.38547,0 -0.72647,-0.089 -0.34099,-0.0889 -0.71163,-0.29651 0.16308,-2.63899 0.23721,-5.1742 0.0741,-2.53521 0.0741,-4.99629 0,-1.80875 -0.089,-3.03929 -0.0741,-1.24536 -0.25204,-2.37212 z" />
        <path d="m 607.31148,262.11816 q 0.53373,0.17791 0.85989,0.50407 0.341,0.31135 0.56338,0.88955 l -0.22238,0.23721 q -2.04596,2.2387 -2.04596,3.52854 0,0.63751 0.84507,3.11342 0.41512,1.18606 0.63751,1.8977 0.5189,1.66048 0.68198,2.50555 0.16309,0.84507 0.16309,1.58636 0,1.66049 -0.69682,2.84656 -0.69681,1.17123 -2.09043,1.82357 -0.5189,-0.0889 -0.80059,-0.341 -0.28169,-0.23721 -0.62269,-1.05263 0.83025,-0.94885 1.24537,-1.88287 0.41512,-0.94885 0.41512,-1.91253 0,-0.62268 -0.20756,-1.46775 -0.20756,-0.84507 -0.84507,-2.65382 l -0.0297,-0.0741 q -1.09711,-3.18754 -1.09711,-4.29947 0,-1.55671 0.83024,-2.90586 0.84507,-1.36397 2.41661,-2.34247 z" />
        <path d="m 615.02088,277.44802 q 0,-1.3788 -0.0296,-2.7576 -0.0148,-1.39362 -0.0593,-2.83172 -0.0741,-0.0148 -0.16308,-0.0148 -0.089,-0.0148 -0.25204,-0.0148 -0.87472,0 -1.31949,0.69681 -0.44478,0.69681 -0.44478,2.06079 0,1.83839 0.32617,2.4166 0.32617,0.56338 1.18606,0.56338 0.13343,0 0.51891,-0.0741 0.14825,-0.0296 0.23721,-0.0445 z m -3.42476,-11.14899 -0.0889,0 q -0.47443,0 -0.83025,-0.38547 -0.35582,-0.38547 -0.35582,-0.83024 0,-0.0593 0.0445,-0.14826 0.0445,-0.089 0.16308,-0.23721 0.84507,-0.50408 1.74945,-0.97851 0.90437,-0.47442 1.83839,-0.90437 1.85323,0.35582 2.56487,2.01631 0.71163,1.64566 0.71163,7.84284 0,2.06078 -0.10378,6.80503 -0.0148,0.48925 -0.0148,0.72647 -0.31134,0.13343 -0.54856,0.19273 -0.23721,0.0593 -0.4596,0.0593 -0.23721,0 -0.50407,-0.0741 -0.25204,-0.0741 -0.48925,-0.20756 l -0.11861,-0.69681 q -0.62268,0.29651 -1.26019,0.47442 -0.62268,0.16309 -1.08228,0.16309 -1.21572,0 -1.80875,-1.20089 -0.59303,-1.21571 -0.59303,-3.75092 0,-2.95034 0.93402,-4.24018 0.94885,-1.28984 3.08377,-1.28984 l 0.47442,0 q -0.0148,-1.8384 -0.42995,-3.02446 -0.41512,-1.18607 -0.99332,-1.18607 -0.13344,0 -0.35582,0.0741 -0.20756,0.0741 -0.42995,0.19274 l -1.09711,0.60786 z" />
        <path d="m 619.03866,279.71637 q 0.32617,-1.08229 0.4596,-2.40178 0.14826,-1.3195 0.14826,-4.21052 0,-1.92736 -0.1186,-4.31431 -0.10379,-2.38695 -0.31135,-5.07042 0.26687,-0.34099 0.66716,-0.5189 0.41513,-0.19273 1.08229,-0.29651 l 0.13343,0 q 0.44477,0 0.68198,0.29651 0.23722,0.28169 0.29652,0.87472 0.41512,-0.44477 0.93402,-0.66716 0.53373,-0.23721 1.12676,-0.23721 0.66716,0 1.15642,0.29651 0.48925,0.28169 0.90437,0.9192 0.72646,-0.74129 1.48258,-1.11193 0.75611,-0.37064 1.5567,-0.37064 1.57154,0 2.26835,1.23053 0.71164,1.23054 0.71164,4.0771 0,1.54188 -0.11861,4.40326 -0.10378,2.84654 -0.10378,4.16604 0,0.72646 0.0148,1.54188 0.0296,0.80059 0.0741,1.61601 -0.53373,0.23722 -0.97851,0.35582 -0.42994,0.11861 -0.77094,0.11861 -0.25204,0 -0.5189,-0.0741 -0.25204,-0.0593 -0.63751,-0.23722 0.20756,-2.62416 0.31134,-4.87768 0.10378,-2.25352 0.10378,-4.18087 0,-3.88436 -0.29651,-4.80355 -0.28169,-0.93403 -1.09711,-0.93403 -0.69681,0 -0.9785,0.72647 -0.26687,0.71163 -0.26687,2.9355 0,0.41512 0.0148,1.51223 0.0148,1.08228 0.0148,1.7791 0,1.48257 0.0445,3.51371 0.0445,2.0163 0.0445,2.55003 0,0.38547 -0.0445,1.12676 l -0.0148,0.089 -0.62269,0.32617 q -0.1186,0.0297 -0.22238,0.0445 -0.10378,0 -0.31134,0 -0.4596,0 -0.81542,-0.10378 -0.341,-0.11861 -0.63751,-0.37065 0.0296,-0.90437 0.0593,-2.49073 0.089,-4.32913 0.089,-4.99629 l 0,-1.64566 q 0,-3.15789 -0.23722,-4.00296 -0.23721,-0.84507 -0.87472,-0.84507 -0.32616,0 -0.66716,0.17791 -0.32617,0.17791 -0.63751,0.5189 -0.0296,0.66716 -0.0593,1.27502 -0.0148,0.59303 -0.0148,1.18606 0,3.70645 0.10378,7.5908 0.0297,0.81542 0.0297,0.96368 0,0.93402 -0.11861,1.69014 -0.10378,0.75611 -0.31134,1.28984 -0.28169,0.0741 -0.50408,0.10378 -0.22238,0.0445 -0.40029,0.0445 -0.38547,0 -0.84507,-0.14826 -0.44478,-0.13343 -0.97851,-0.42994 z" />
        <path d="m 637.02235,260.62075 q 0.0741,0.28169 0.10378,0.62269 0.0445,0.32616 0.0445,0.74129 l 0,1.27501 q 0,0.0148 -0.0148,0.16309 -0.0148,0.13343 0,0.29651 0.50407,-0.0148 1.17124,-0.089 0.66716,-0.0889 1.5567,-0.23721 0.42995,0.35582 0.62269,0.80059 0.20756,0.44478 0.22238,1.06746 -0.48925,0.25204 -1.18606,0.41512 -0.69681,0.14826 -2.3573,0.32617 -0.14826,2.38695 -0.22239,4.58117 -0.0593,2.17939 -0.0593,4.12156 0,2.49074 0.22239,3.03929 0.22238,0.54855 0.84507,0.54855 0.32616,0 0.60785,-0.0593 0.28169,-0.0741 0.53373,-0.20756 0.20756,0.17791 0.29652,0.37065 0.10378,0.19273 0.10378,0.41512 0,0.28169 -0.13343,0.56338 -0.11861,0.28169 -0.44478,0.68199 -0.78576,0.34099 -1.33432,0.48925 -0.53373,0.14826 -0.96367,0.14826 -1.2602,0 -1.80875,-1.03781 -0.53373,-1.05263 -0.53373,-3.51371 0,-1.21572 0.14826,-3.75093 0.14826,-2.5352 0.14826,-3.83987 0,-1.00816 -0.0148,-1.52706 0,-0.53373 -0.0148,-0.96368 -0.38547,-0.10378 -0.72647,-0.23721 -0.32617,-0.14826 -0.63751,-0.34099 l 0,-0.14826 q 0,-0.4003 0.10378,-0.78577 0.11861,-0.38547 0.32617,-0.77094 l 1.02298,-0.089 0.10378,-2.92068 q 0.32617,-0.26686 0.62268,-0.40029 0.31135,-0.13344 0.62269,-0.13344 0.22238,0 0.4596,0.089 0.23721,0.0741 0.56338,0.29651 z" />
        <path d="m 642.38929,280.54661 q -0.53373,-0.38547 -0.8599,-0.88955 -0.31134,-0.5189 -0.47442,-1.27502 0.34099,-0.37064 0.84507,-0.6375 0.50408,-0.28169 1.24536,-0.51891 0.4003,0.4003 0.59304,0.94885 0.20756,0.54856 0.25203,1.36398 -0.35581,0.35581 -0.75611,0.59303 -0.38547,0.25204 -0.84507,0.41512 z" />
        <path d="m 648.79403,277.27011 q 0.47442,0.13343 0.83024,0.20756 0.37064,0.0593 0.62268,0.0593 0.26687,0 0.81542,-0.20756 l 0.0297,-0.0148 q 0.10378,-1.88287 0.16309,-4.75908 0.0593,-2.89102 0.0741,-7.50184 -0.32617,-0.0741 -0.56338,-0.10379 -0.23722,-0.0445 -0.4003,-0.0445 -0.93403,0 -1.36397,1.97183 -0.42995,1.97183 -0.42995,6.28614 0,1.09711 0.0445,2.12008 0.0593,1.00816 0.17791,1.98666 z m 0.089,2.90586 q -0.60786,0 -1.0378,-0.17791 -0.42995,-0.19274 -0.75612,-0.57821 -0.50408,-1.03781 -0.74129,-2.46108 -0.23721,-1.42328 -0.23721,-3.58784 0,-2.8762 0.41512,-5.24833 0.42995,-2.38695 1.20089,-3.88435 0.23721,-0.51891 0.87472,-0.84507 0.65234,-0.341 1.36397,-0.341 0.29652,0 0.63751,0.0593 0.35582,0.0593 0.72647,0.17791 l -0.0593,-5.27798 q 0.4003,-0.41512 0.81542,-0.59303 0.42995,-0.19273 0.9785,-0.19273 0.089,0 0.25204,0.0297 0.16308,0.0148 0.65234,0.1186 -0.13344,4.15122 -0.20757,8.98443 -0.0593,4.81838 -0.0593,10.33357 l 0,3.18754 -0.90437,0.50408 -0.22239,0 q -0.37064,0 -0.69681,-0.0741 -0.32617,-0.0741 -0.63751,-0.23721 -0.0445,-0.17791 -0.0889,-0.4003 -0.0297,-0.23721 -0.0593,-0.66716 -0.42994,0.4003 -0.9785,0.69681 -0.53373,0.28169 -1.23054,0.47443 z" />
        <path d="m 660.41743,268.6415 q 0.0297,-0.34099 0.0445,-0.69681 0.0297,-0.37064 0.0297,-0.40029 0,-1.11194 -0.22238,-1.60119 -0.22239,-0.48925 -0.72647,-0.48925 -0.41512,0 -0.68198,0.77094 -0.26687,0.75612 -0.4596,2.59451 l 2.0163,-0.17791 z m 1.92736,9.44403 q 0.0148,0.13343 0.0148,0.25204 0.0148,0.1186 0.0148,0.23721 0,0.84507 -0.63751,1.3788 -0.62268,0.53373 -1.58636,0.53373 -2.28317,0 -3.46923,-1.97183 -1.17124,-1.97183 -1.17124,-5.78206 0,-4.18087 1.27502,-6.99777 1.28984,-2.83172 3.06893,-2.83172 1.18607,0 1.92736,1.37879 0.74129,1.3788 0.74129,3.63232 0,0.66716 -0.10378,1.28984 -0.089,0.62269 -0.28169,1.23054 -0.38548,0.0741 -0.66717,0.11861 -0.28169,0.0297 -0.5189,0.0297 -0.0593,0 -0.96367,-0.0445 -0.88955,-0.0593 -1.73462,-0.0741 -0.089,0.9785 -0.11861,1.46775 -0.0148,0.48925 -0.0148,0.88955 0,3.09859 0.69681,4.1957 0.71164,1.0971 2.71312,1.0971 l 0.29651,0 q 0,0 0.17791,-0.0148 0.17791,-0.0148 0.341,-0.0148 z" />
    </g>
</svg>
